<?xml version="1.0" encoding="UTF-8"?><svg id="_圖層_1" xmlns="http://www.w3.org/2000/svg" viewBox="0 0 600 400"><defs><style>.cls-1{fill:#444;}.cls-2{fill:#fff;}.cls-3{fill:#3d8dcc;}</style></defs><path class="cls-3" d="M381.89,203.45c-9.43.01-26.67.01-47.52.02-35.97,0-82.73.02-118.8.05-20.68,0-37.85,0-47.46.01,0,0-.05-95.04-.06-130.54,31.52-.01,213.77-.07,213.77-.07.02,32.25.05,92.14.06,130.53Z"/><path class="cls-1" d="M233.32,206.49h83.31c3.67,0,3.68-5.7,0-5.7h-83.31c-3.67,0-3.68,5.7,0,5.7h0Z"/><path class="cls-2" d="M432.41,261.23c-8.56-14.61-26.06-38.73-34.21-50.2-.02-40.4-.03-103.82-.03-142.87,0-5.7-4.62-10.31-10.32-10.31-52.67.02-181.37.06-225.79.08-5.7,0-10.31,4.61-10.31,10.31.01,29.11.03,74.71.04,109.11,0,13.12,0,24.61.01,32.94-8.04,11.29-25.61,36.17-34.26,50.94-.85,1.46-1.29,3.12-1.29,4.81,0,9.03.03-2.88.03,6.33,0,3.3,2.67,5.97,5.97,5.97h304.25c3.95,0,7.16-3.2,7.16-7.15,0-1.86.03-3.67.03-5.16,0-1.69-.44-3.33-1.29-4.79h0ZM334.37,203.48c-35.97,0-82.73.02-118.8.05-20.68,0-37.85,0-47.46.01,0,0-.05-95.04-.06-130.54,31.52-.01,213.77-.07,213.77-.07.02,32.25.05,92.14.06,130.53-9.43.01-26.67.01-47.52.02Z"/><path class="cls-1" d="M154.64,177.34c0-20.99-.02-41.97-.02-62.96,0-10.12,0-20.23-.01-30.35,0-4.45,0-8.89,0-13.34,0-1.87-.15-3.75.63-5.51.74-1.67,2.12-3.04,3.78-3.78,2.37-1.06,5.39-.63,7.93-.63s5.3,0,7.95,0c6.29,0,12.59,0,18.88,0,15.42,0,30.83-.01,46.25-.02,17.31,0,34.61-.01,51.92-.02,16.69,0,33.37-.01,50.06-.02,13.61,0,27.23,0,40.84-.01,2.98,0,6.3-.48,8.95,1.12,1.46.89,2.61,2.33,3.14,3.95.58,1.79.39,3.71.39,5.56v26.58c0,20.23,0,40.47.01,60.7,0,9.86,0,19.72,0,29.57,0,4.53,0,9.06,0,13.6,0,2.13,0,4.25,0,6.38,0,.95-.06,1.92,0,2.87.08,1.21.81,2.03,1.48,2.97,10.27,14.39,20.73,28.71,30.11,43.71,1.02,1.64,2.08,3.27,3.01,4.96,1.32,2.39.89,5.26.87,7.89-.01,1.79-.5,3.37-2.14,4.33-1.01.59-2.06.59-3.18.59H125.1c-1.43,0-3.3.3-4.53-.49-2.14-1.36-1.29-4.21-1.44-6.35-.21-3.03-4.88-4.08-5.6-.76-.13.61-.05,1.17-.12,1.77h5.7c-.2-1.91-.26-4.38.47-6.15,1.13-2.75,3.14-5.36,4.72-7.87,3.7-5.86,7.55-11.63,11.44-17.37,3.86-5.67,7.77-11.31,11.71-16.92,1.66-2.36,3.33-4.72,5-7.08.67-.95,1.78-2.09,2.09-3.22.45-1.62.1-3.81.1-5.48,0-9.41,0-18.81-.01-28.21,0-3.67-5.7-3.68-5.7,0,0,10.98,0,21.96.01,32.94l.39-1.44c-11.21,15.74-22.5,31.54-32.54,48.06-1.6,2.63-3.11,5.14-3.37,8.29-.11,1.41-.18,3.03-.03,4.46.38,3.68,5.28,3.65,5.7,0,.05-.47.23-1.72-.08-.26l-5.6-.76c.07.94,0,1.9,0,2.84,0,2.56.56,4.89,2.31,6.84,2.26,2.51,5.28,2.88,8.43,2.88h298.82c2.09,0,4.35.2,6.37-.42,2.35-.72,4.38-2.28,5.67-4.37,1.47-2.38,1.47-4.95,1.49-7.65.03-3.19-.07-6.1-1.66-8.96-1.01-1.81-2.13-3.56-3.23-5.31-2.47-3.93-5.03-7.8-7.63-11.65-5.48-8.11-11.13-16.11-16.81-24.08-2.18-3.05-4.36-6.1-6.54-9.16l.39,1.44c0-18.58-.01-37.15-.02-55.73,0-19.92-.01-39.84-.01-59.75,0-8.67,0-17.34,0-26.01,0-4.52-1.26-8.71-4.93-11.62-3.35-2.66-7.07-2.92-11.17-2.92-13.15,0-26.3,0-39.44.01-16.32,0-32.65.01-48.97.02-17.14,0-34.28.01-51.41.02-15.59,0-31.18.01-46.77.02-11.72,0-23.43,0-35.15.01-4.19,0-8.13,1.2-10.97,4.45-3.18,3.65-3.3,7.84-3.3,12.43,0,9.35,0,18.71.01,28.06,0,20.98.02,41.95.02,62.93,0,4.8,0,9.6,0,14.39,0,3.67,5.7,3.68,5.7,0h0Z"/><path class="cls-1" d="M408.95,259.17H150.24c-3.5,0-7.01-.07-10.51,0-.15,0-.3,0-.45,0-3.67,0-3.68,5.7,0,5.7h258.71c3.5,0,7.01.07,10.51,0,.15,0,.3,0,.45,0,3.67,0,3.68-5.7,0-5.7h0Z"/><path class="cls-1" d="M381.89,200.6c-27.05.03-54.1.02-81.15.03-29.75,0-59.5.04-89.25.04-14.46,0-28.91,0-43.37.01l2.85,2.85c0-11.44-.01-22.88-.02-34.33-.01-21.96-.02-43.93-.03-65.89,0-10.11,0-20.22-.01-30.32l-2.85,2.85c11.09,0,22.18,0,33.27-.01,17.63,0,35.26-.01,52.9-.02,19.15,0,38.31-.01,57.46-.02,15.79,0,31.57-.01,47.36-.02,5.1,0,10.2,0,15.3,0,2.37,0,4.81.16,7.18,0,.1,0,.21,0,.31,0l-2.85-2.85c.01,15.78.02,31.57.03,47.35,0,18.44.02,36.88.02,55.31,0,9.29,0,18.58,0,27.87,0,3.67,5.7,3.68,5.7,0,0-17.24-.01-34.49-.02-51.73,0-18.03-.02-36.06-.02-54.09,0-8.24,0-16.47-.02-24.71,0-1.54-1.31-2.85-2.85-2.85-6.13,0-12.27,0-18.4,0-15.08,0-30.17,0-45.25.01-19.01,0-38.02.01-57.03.02-18.04,0-36.07.01-54.11.02-12.16,0-24.31,0-36.47.01h-2.51c-1.54,0-2.85,1.31-2.85,2.85,0,19.9.02,39.79.02,59.69,0,19.59.02,39.18.03,58.77,0,4.03,0,8.06,0,12.09,0,1.54,1.31,2.85,2.85,2.85,27.22-.03,54.44-.02,81.66-.03,29.75-.02,59.5-.01,89.25-.03,14.29,0,28.57,0,42.86-.02,3.67,0,3.68-5.71,0-5.7h0Z"/><path class="cls-2" d="M494.31,299.34c-2.72-4.93-7.83-13.68-15.34-25.28-5.14-7.94-11.07-17.13-18.38-25.85-3.76-4.48-8.91-5.56-12.34-4.34-3.18,1.14-6.43,3.95-6.01,7.53-2.3-3.8-7.72-4.28-12.13-2.22-4.42,2.06-6.47,6.64-5.33,10.35-1.84-3.58-6.24-4.82-10.28-3.39-5.15,1.82-7.34,5.81-6.99,9.93-7.74-8.76-22.94-26.56-30.07-34.39-4.18-4.6-8.86-7.66-14.79-4.48-6.31,3.38-3.07,12.26.11,16.47,9.15,12.12,23.95,31.4,33.27,43.51-.07,0-.1,0-.1,0-2.46.19-3.82.42-5.93,1.01-1.81.5-4.3,2.04-5.19,5.11-1.25,4.32.48,7.96,3.71,11.09,10.54,10.24,19.17,19.2,24.29,23.61,9.22,7.95,24.42,9.82,35.91,10.81"/><path class="cls-1" d="M406.12,295.65c-10.67-13.88-21.36-27.75-31.98-41.67-2.85-3.74-5.7-7.48-8.53-11.23-2.31-3.06-4.5-7.35-3.51-10.79.47-1.62,2.32-2.85,4.46-3.16,2.29-.34,4.45.81,6.15,2.24,3.56,2.99,6.53,6.9,9.59,10.39,7.69,8.78,15.27,17.66,22.99,26.42,2.43,2.76,6.45-1.29,4.03-4.03-7.23-8.2-14.34-16.51-21.53-24.75-3.26-3.73-6.41-7.72-10.01-11.13-2.21-2.09-4.86-4-7.89-4.63-3.23-.67-6.74.04-9.47,1.91-4.66,3.2-4.96,9.1-3.18,14.03,1.63,4.51,4.74,8.09,7.61,11.86,6.73,8.86,13.5,17.7,20.28,26.52,5.35,6.97,10.71,13.93,16.07,20.89.94,1.22,2.45,1.87,3.9,1.02,1.2-.7,1.97-2.67,1.02-3.9h0Z"/><path class="cls-1" d="M395.92,284.33c-3.25.27-6.96.62-9.72,2.53-3.11,2.15-4.79,5.79-4.65,9.55.14,3.75,2.04,7.02,4.6,9.65,2.96,3.04,6.07,5.95,9.08,8.93,4.63,4.59,9.19,9.27,14.02,13.66s10.38,7.3,16.61,9.2c7.4,2.25,15.16,3.13,22.84,3.79,1.54.13,2.85-1.41,2.85-2.85,0-1.65-1.31-2.72-2.85-2.85-5.84-.5-11.68-1.17-17.39-2.53-5.64-1.34-11.47-3.33-16.02-7.04-4-3.26-7.6-7.06-11.25-10.68-2.48-2.45-4.95-4.92-7.43-7.37-1.33-1.31-2.66-2.63-4-3.93-1.26-1.23-2.66-2.4-3.71-3.83-1.62-2.21-2.46-5.5-.68-7.9,1.66-2.25,4.98-2.41,7.7-2.64,1.53-.13,2.85-1.22,2.85-2.85,0-1.44-1.31-2.98-2.85-2.85h0Z"/><path class="cls-1" d="M410.36,266.1c-.21-3.04,1.18-5.47,4.08-6.87,2.75-1.33,6.27-1.18,7.87,1.73,1.56,2.84,6.08.91,5.21-2.2-.8-2.86,1.14-5.87,4.02-7.13,2.56-1.12,6.52-1.45,8.23,1.2,1.42,2.2,5.55,1.56,5.31-1.44-.17-2.22,1.55-3.73,3.45-4.59,1.57-.71,3.08-.72,4.8-.22,2.53.74,4.31,2.52,5.95,4.51,1.98,2.39,3.87,4.85,5.7,7.36,7.11,9.74,13.58,20,19.84,30.3,2.41,3.96,4.76,7.96,7.01,12.01,1.78,3.21,6.7.34,4.92-2.88-5.4-9.75-11.37-19.18-17.44-28.52-3.74-5.74-7.56-11.44-11.71-16.89-3.99-5.23-7.96-10.95-14.99-11.82-6.11-.76-13.76,3.93-13.23,10.73l5.31-1.44c-3.43-5.3-10.26-5.81-15.64-3.42-5.2,2.3-8.61,8.1-7.04,13.75l5.21-2.2c-2.93-5.32-9.44-6.46-14.72-4.21-4.93,2.1-8.24,6.77-7.86,12.22.11,1.54,1.23,2.85,2.85,2.85,1.46,0,2.96-1.31,2.85-2.85h0Z"/><g id="calendar"><path class="cls-2" d="M227.16,94.91c-4.6,0-14.17,0-17.68,0-4.25,0-7.69,3.44-7.69,7.69,0,22.71.03,61.82.03,78.31,0,4.25,3.44,7.68,7.69,7.68,28.34-.01,78.56-.04,106.48-.05,4.25,0,7.69-3.44,7.69-7.7-.01-24.28-.02-56.6-.03-78.3,0-4.25-3.44-7.69-7.69-7.69-2.42,0-12.21,0-15.53,0"/><path class="cls-1" d="M274.73,92.03c-7.36,0-14.71,0-22.07,0-3.67,0-3.68,5.7,0,5.7,7.36,0,14.71,0,22.07,0,3.67,0,3.68-5.7,0-5.7h0Z"/><path class="cls-3" d="M233.07,119c-1.96,0-3.92,0-5.88.01-.91,0-1.87.4-2.52,1.04s-1.08,1.63-1.04,2.52.34,1.88,1.04,2.52,1.55,1.05,2.52,1.04c1.96,0,3.92,0,5.88-.01.91,0,1.87-.4,2.52-1.04s1.08-1.63,1.04-2.52-.34-1.88-1.04-2.52-1.56-1.05-2.52-1.04h0Z"/><path class="cls-1" d="M255.06,119c-1.96,0-3.92,0-5.88.01-.91,0-1.87.4-2.52,1.04s-1.08,1.63-1.04,2.52.34,1.88,1.04,2.52,1.55,1.05,2.52,1.04c1.96,0,3.92,0,5.88-.01.91,0,1.87-.4,2.52-1.04s1.08-1.63,1.04-2.52-.34-1.88-1.04-2.52-1.56-1.05-2.52-1.04h0Z"/><path class="cls-1" d="M277.05,119c-1.96,0-3.92,0-5.88.01-.91,0-1.87.4-2.52,1.04s-1.08,1.63-1.04,2.52.34,1.88,1.04,2.52,1.55,1.05,2.52,1.04c1.96,0,3.92,0,5.88-.01.91,0,1.87-.4,2.52-1.04s1.08-1.63,1.04-2.52-.34-1.88-1.04-2.52-1.56-1.05-2.52-1.04h0Z"/><path class="cls-1" d="M299.04,119c-1.96,0-3.92,0-5.88.01-.91,0-1.87.4-2.52,1.04s-1.08,1.63-1.04,2.52.34,1.88,1.04,2.52,1.55,1.05,2.52,1.04c1.96,0,3.92,0,5.88-.01.91,0,1.87-.4,2.52-1.04s1.08-1.63,1.04-2.52-.34-1.88-1.04-2.52-1.56-1.05-2.52-1.04h0Z"/><path class="cls-3" d="M233.07,140.16c-1.96,0-3.92,0-5.88.01-.91,0-1.87.4-2.52,1.04s-1.08,1.63-1.04,2.52.34,1.88,1.04,2.52,1.55,1.05,2.52,1.04c1.96,0,3.92,0,5.88-.01.91,0,1.87-.4,2.52-1.04s1.08-1.63,1.04-2.52-.34-1.88-1.04-2.52-1.56-1.05-2.52-1.04h0Z"/><path class="cls-1" d="M255.06,140.16c-1.96,0-3.92,0-5.88.01-.91,0-1.87.4-2.52,1.04s-1.08,1.63-1.04,2.52.34,1.88,1.04,2.52,1.55,1.05,2.52,1.04c1.96,0,3.92,0,5.88-.01.91,0,1.87-.4,2.52-1.04s1.08-1.63,1.04-2.52-.34-1.88-1.04-2.52-1.56-1.05-2.52-1.04h0Z"/><path class="cls-1" d="M277.05,140.16c-1.96,0-3.92,0-5.88.01-.91,0-1.87.4-2.52,1.04s-1.08,1.63-1.04,2.52.34,1.88,1.04,2.52,1.55,1.05,2.52,1.04c1.96,0,3.92,0,5.88-.01.91,0,1.87-.4,2.52-1.04s1.08-1.63,1.04-2.52-.34-1.88-1.04-2.52-1.56-1.05-2.52-1.04h0Z"/><path class="cls-1" d="M299.04,140.16c-1.96,0-3.92,0-5.88.01-.91,0-1.87.4-2.52,1.04s-1.08,1.63-1.04,2.52.34,1.88,1.04,2.52,1.55,1.05,2.52,1.04c1.96,0,3.92,0,5.88-.01.91,0,1.87-.4,2.52-1.04s1.08-1.63,1.04-2.52-.34-1.88-1.04-2.52-1.56-1.05-2.52-1.04h0Z"/><path class="cls-3" d="M233.07,161.32c-1.96,0-3.92,0-5.88.01-.91,0-1.87.4-2.52,1.04s-1.08,1.63-1.04,2.52.34,1.88,1.04,2.52,1.55,1.05,2.52,1.04c1.96,0,3.92,0,5.88-.01.91,0,1.87-.4,2.52-1.04s1.08-1.63,1.04-2.52-.34-1.88-1.04-2.52-1.56-1.05-2.52-1.04h0Z"/><path class="cls-1" d="M255.06,161.32c-1.96,0-3.92,0-5.88.01-.91,0-1.87.4-2.52,1.04s-1.08,1.63-1.04,2.52.34,1.88,1.04,2.52,1.55,1.05,2.52,1.04c1.96,0,3.92,0,5.88-.01.91,0,1.87-.4,2.52-1.04s1.08-1.63,1.04-2.52-.34-1.88-1.04-2.52-1.56-1.05-2.52-1.04h0Z"/><path class="cls-1" d="M277.05,161.32c-1.96,0-3.92,0-5.88.01-.91,0-1.87.4-2.52,1.04s-1.08,1.63-1.04,2.52.34,1.88,1.04,2.52,1.55,1.05,2.52,1.04c1.96,0,3.92,0,5.88-.01.91,0,1.87-.4,2.52-1.04s1.08-1.63,1.04-2.52-.34-1.88-1.04-2.52-1.56-1.05-2.52-1.04h0Z"/><path class="cls-1" d="M299.04,161.32c-1.96,0-3.92,0-5.88.01-.91,0-1.87.4-2.52,1.04s-1.08,1.63-1.04,2.52.34,1.88,1.04,2.52,1.55,1.05,2.52,1.04c1.96,0,3.92,0,5.88-.01.91,0,1.87-.4,2.52-1.04s1.08-1.63,1.04-2.52-.34-1.88-1.04-2.52-1.56-1.05-2.52-1.04h0Z"/><path class="cls-1" d="M227.16,92.05c-5.33,0-10.66,0-15.99,0-2.76,0-5.38.25-7.71,1.9-2.67,1.89-4.25,4.78-4.5,8.04-.2,2.62-.02,5.33-.02,7.95,0,2.84,0,5.69,0,8.53,0,6.15,0,12.31,0,18.46,0,11.57.01,23.15.02,34.72,0,2.2,0,4.39,0,6.59,0,2.62-.03,5.14,1.2,7.54,1.37,2.69,4.04,4.75,6.99,5.4,2.55.56,5.36.27,7.96.26,24.62-.01,49.24-.02,73.85-.03,5.81,0,11.61,0,17.42,0,2.53,0,5.06,0,7.59,0,2.95,0,5.72-.19,8.18-2.01,2.63-1.94,4.19-4.87,4.36-8.13s0-6.43,0-9.62c0-6.92,0-13.85,0-20.77,0-13.61-.01-27.21-.02-40.82,0-2.87.25-5.87-.1-8.71-.39-3.21-2.17-6.03-4.91-7.76-2.22-1.4-4.68-1.57-7.21-1.57s-4.85,0-7.28,0c-2.19,0-4.39,0-6.58,0-3.67,0-3.68,5.7,0,5.7,4.43,0,8.87,0,13.3,0,1.82,0,3.67-.19,5.21,1,1.93,1.5,1.86,3.63,1.86,5.85,0,12.39.01,24.79.02,37.18,0,6.72,0,13.45,0,20.17,0,6.3.16,12.63,0,18.93-.05,2.05-1.27,3.88-3.24,4.58s-4.54.27-6.59.27c-5.14,0-10.28,0-15.42,0-23.61.01-47.22.02-70.83.03-4.97,0-9.94.04-14.91,0-2.03-.01-3.92-.92-4.78-2.87-.75-1.7-.4-3.96-.4-5.79,0-10.11,0-20.23-.01-30.34,0-11.61-.01-23.23-.02-34.84,0-2.52,0-5.04,0-7.56,0-2.13.01-4.15,1.86-5.59,1.64-1.27,3.69-1.01,5.63-1.01,2.63,0,5.25,0,7.88,0,2.39,0,4.77,0,7.16,0,3.67,0,3.68-5.7,0-5.7h0Z"/><path class="cls-1" d="M285.94,88.81c0,3.78,0,7.57,0,11.35,0,1.49,1.31,2.92,2.85,2.85s2.85-1.25,2.85-2.85c0-3.78,0-7.57,0-11.35,0-1.49-1.31-2.92-2.85-2.85s-2.85,1.25-2.85,2.85h0Z"/><path class="cls-1" d="M235.47,88.81c0,3.78,0,7.57,0,11.35,0,1.49,1.31,2.92,2.85,2.85s2.85-1.25,2.85-2.85c0-3.78,0-7.57,0-11.35,0-1.49-1.31-2.92-2.85-2.85s-2.85,1.25-2.85,2.85h0Z"/><path class="cls-2" d="M316.21,134.39c-22.55,0-38.14,17.47-38.14,37.91,0,22.87,15.92,38.62,38.14,38.62s38.14-15.9,38.14-38.62c0-20.58-15.67-37.91-38.14-37.91Z"/><path class="cls-1" d="M316.21,131.54c-8.89.04-17.75,2.65-24.88,8.05-6.75,5.11-11.72,12.18-14.24,20.27-4.96,15.9-.17,35,13.17,45.39,13.2,10.28,33.15,11.38,47.64,3.11,14.88-8.49,21.23-26.27,18.77-42.72-2.56-17.06-16.27-30.89-33.33-33.51-2.36-.36-4.73-.57-7.12-.58-3.67-.02-3.67,5.68,0,5.7,7.79.04,15.4,2.31,21.66,7,5.7,4.28,9.92,10.46,12.01,17.26,4.2,13.67.43,30.08-10.8,39.19-10.98,8.91-28.56,9.77-40.89,3-12.85-7.06-18.99-22.19-16.95-36.52,1.04-7.28,4.32-14.2,9.44-19.48,5.24-5.4,12.08-8.78,19.47-10.01,1.99-.33,4.02-.44,6.04-.45,3.67-.02,3.68-5.72,0-5.7Z"/><path class="cls-1" d="M316.23,175.51c4.34,0,8.69,0,13.03,0,1.49,0,2.92-1.31,2.85-2.85s-1.25-2.85-2.85-2.85c-4.34,0-8.69,0-13.03,0-1.49,0-2.92,1.31-2.85,2.85s1.25,2.85,2.85,2.85h0Z"/><path class="cls-1" d="M313.38,152.91c0,6.58-.01,13.15,0,19.73,0,1.54,1.31,2.85,2.85,2.85s2.85-1.3,2.85-2.85c-.01-6.58,0-13.15,0-19.73,0-1.54-1.31-2.85-2.85-2.85s-2.85,1.3-2.85,2.85h0Z"/></g></svg>