<?xml version="1.0" encoding="UTF-8"?><svg id="_圖層_1" xmlns="http://www.w3.org/2000/svg" viewBox="0 0 600 400"><defs><style>.cls-1{fill:#444;}.cls-2{fill:#bdbdbd;}.cls-3{fill:#fbd375;}.cls-4{fill:#645d5c;}.cls-5{fill:#fff;}.cls-6{fill:#3d8dcc;}</style></defs><path class="cls-5" d="M388.55,320.57c-28.91.09-61.73.19-83,.26,2.58,14.87,5.32,30.65,8.33,47.86,0,0,.33,1.56.73,3.43,9.91-5.48,43.21-24.85,59.99-35.14,0,0,8.3-5.42,14.88-9.79-.14-1.45-.44-3.79-.93-6.62Z"/><path class="cls-4" d="M410.82,151.43c.76-3.22,5.26-5.36,7.57-8.2,3.74-4.58,7.13-12.19,5.49-16.89-2.01-5.85-.7-15.82-3.85-35.18h0c.92-6.09-3.77-14.92-3.9-18.31-.46-11.77-6.14-25.03-14.84-32.53-.08-.07-.18-.15-.28-.22l-7.12-4.75c-.17-.1-.33-.2-.51-.3-3.56-1.97-7.57-3.79-11.09-4.77-7.14-2.33-14.69-3.84-25.24-3.81-18.1.04-31.86,6.75-39.22,12.35-14.53,11.07-22.23,26.21-20.2,51.13,2.97,18.7-3.07,36.68-1.57,52.11.44,4.63,5.46,7.43,12.88,11.79l101.88-2.41Z"/><path class="cls-5" d="M406.77,125.83c.49-.56.95-1.14,1.39-1.74,2.5-3.41,4.34-7.43,4.5-11.65.16-4.22-1.56-8.64-5.01-11.09-3.45-2.44-8.65-2.44-11.67.52l-7.41-3.99c-8.19-1.53-22.27-15.96-26.32-27.7-14.29,11.14-30.2,20.2-47.06,26.82-4.18,1.64-8.35,3.19-12.48,4.95.06,2.25.19,4.36.6,7.92.48,4.15,1.21,10.18,3.59,17.25,1.32,3.91,3.53,10.31,8.68,17.21,2.29,3.06,5.56,7.36,11.35,11.13.94.61,5.59,3.59,12.49,5.42,4.87,1.3,8.91,1.5,11.12,1.53,2.68.03,7.83-.16,13.85-2.03,9.31-2.9,15.21-8.13,18.8-11.38,3.3-2.99,7.91-7.84,11.94-14.95,4.44-1.9,8.49-4.62,11.62-8.23Z"/><path class="cls-1" d="M397.86,103.75c2.31-2.14,6.15-1.9,8.55-.02,2.96,2.32,4.07,6.57,3.43,10.16-.41,2.26-1.37,4.34-2.48,6.33s-2.23,3.91-3.65,5.61c-1.01,1.21-1.81,2.01-3.03,2.68-.13.07-.28.14-.42.2.1-.04.48-.16.02-.03-.2.06-.4.11-.6.17-.13.04-.26.05-.39.08.08-.02.61-.05.13-.02-.25.02-.5.03-.75.04-2.32.03-4.55-.38-6.79.54-1.33.55-2.27,1.77-1.86,3.27.35,1.26,1.93,2.41,3.27,1.86.3-.12.6-.23.91-.32.1-.03.93-.18.53-.13s.48-.02.6-.03c.28,0,.56,0,.84.01,1.08.04,2.16.17,3.25.08,3.84-.34,6.62-2.76,8.89-5.71,3.41-4.44,6.56-9.91,6.97-15.6.37-5.15-1.79-10.52-5.97-13.63-4.5-3.35-11.09-3.14-15.22.69-2.52,2.33,1.25,6.09,3.76,3.76h0Z"/><path class="cls-5" d="M403.15,166.68c-4.43-2.58-12.27-8.64-13.3-10.73-1.79-3.62-2.87-5.74-3.91-9.59-.98,1.01-1.9,1.89-2.74,2.64-3.59,3.26-9.49,8.48-18.8,11.38-6.02,1.87-11.17,2.06-13.85,2.03-2.21-.02-6.25-.23-11.12-1.53-.17-.05-.35-.09-.51-.14-.58.54-1.22,1-1.96,1.32-5.92,2.62-9.79,3.9-14.17,5.8,0,0,.88,6.68,5.75,9.59,5.75,3.45,10.44,4.65,10.44,4.65,2.85.85,5.68,1.37,8.22,1.61,10.79,1.01,20.91.24,30.56-1.75,0,0,10.38-2.54,18.02-7.96,2.92-2.08,6.26-6.04,7.39-7.34Z"/><path class="cls-1" d="M383.43,147.27c.82,2.92,1.99,5.68,3.33,8.4.52,1.06.98,2,1.73,2.91.54.65,1.15,1.24,1.77,1.82,3.5,3.22,7.45,6.17,11.55,8.58,2.96,1.74,5.64-2.86,2.68-4.59-3.87-2.27-7.1-4.69-10.31-7.59-.61-.55-1.19-1.13-1.74-1.73-.05-.06-.1-.12-.15-.18-.18-.22-.13-.15.15.21-.06-.01-.18-.25-.2-.3-.24-.5-.5-.99-.75-1.49-1.25-2.54-2.16-4.66-2.94-7.44-.92-3.29-6.06-1.89-5.13,1.41h0Z"/><path class="cls-1" d="M324.12,170.17c.14-.06.29-.12.43-.18.69-.29-.29.12.11-.05.28-.12.56-.23.85-.35.63-.26,1.26-.51,1.9-.76,1.28-.5,2.56-1,3.83-1.51,1.53-.61,3.05-1.23,4.56-1.87,1.76-.74,3.39-1.42,4.85-2.69,1.05-.92,1.01-2.84,0-3.76-1.12-1.03-2.64-.98-3.76,0-.08.07-.32.26-.1.1-.14.11-.3.21-.45.3-.37.23-.76.4-1.16.57-.37.16-.75.33-1.12.49-.23.1-.45.19-.68.29.25-.1-.08.03-.15.06-1.36.57-2.72,1.11-4.09,1.65-2.58,1.02-5.16,2.02-7.71,3.12-1.28.55-1.67,2.53-.95,3.64.86,1.33,2.27,1.54,3.64.95h0Z"/><path class="cls-1" d="M395.13,33.11c-7.15-4.31-15.73-6.8-23.94-8.07-9.36-1.44-18.99-1.43-28.3.36-13.78,2.66-27.01,9.43-36.1,20.29-4.41,5.27-7.67,11.35-9.59,17.96-2.22,7.66-2.68,15.77-2.19,23.7.15,2.43.57,4.82.72,7.25.13,2.28.13,4.56.02,6.84-.2,4.39-.79,8.74-1.38,13.08-.62,4.51-1.24,9.02-1.48,13.57-.25,4.75-.31,9.96.81,14.62.48,1.98,1.98,3.63,3.4,5.02,1.99,1.95,4.27,3.65,6.63,5.14,4.05,2.56,10.2,5.91,15.08,3.85,1.18-.5,2.06-1.29,2.8-2.34s.2-2.73-.88-3.36c-1.23-.72-2.59-.21-3.36.88.26-.38.03-.04-.14.13-.1.1.35-.21-.06.05-.2.13-.58.26-.13.1-.23.08-.47.14-.71.2-.44.11.35,0-.12.01-.24,0-.48.02-.72,0-.79-.02-.5,0-1.14-.14-2.49-.51-4.42-1.45-6.62-2.71s-4.3-2.72-6.15-4.35c-.8-.71-1.54-1.46-2.25-2.26-.07-.08-.13-.16-.2-.24-.23-.28.23.32.03.04-.11-.15-.21-.29-.31-.44-.1-.16-.19-.33-.29-.49-.26-.4-.02-.03-.01,0-3.01-16.87,3.79-33.48,1.82-50.36-1.62-13.86-.21-28.4,8.13-40.02,7.25-10.11,18.48-16.77,30.32-20.04,8.47-2.34,17.24-2.88,25.98-2.19,7.51.59,15.33,2.28,22.24,5.32,1.91.84,3.83,1.75,5.62,2.82,2.71,1.63,5.18-2.61,2.48-4.24h0Z"/><path class="cls-1" d="M385.03,151.05c4.31,2.51,8.91,4.91,14.04,4.82,6.75-.12,12.7-4.03,17.92-7.92,3.91-2.92,7.85-6.58,8.8-11.6.65-3.44.54-7.01.35-10.48-.93-16.81-4.68-33.29-7.33-49.87-.03-.18-.05-.37-.08-.55-.11-.65,0,.67.02.11.01-1.18-.15-2.4-.28-3.56-.46-3.93-1.34-7.78-2.68-11.5-2.61-7.23-6.79-14.7-12.89-19.55-1.04-.83-2.47-1.02-3.48,0-.86.86-1.05,2.65,0,3.48,4.99,3.97,8.66,9.88,11.01,15.75,1.23,3.08,2.17,6.29,2.77,9.55.37,2,.44,4,.66,6.02.24,2.3.74,4.59,1.15,6.86.67,3.69,1.33,7.38,1.97,11.08,1.57,9.1,3.61,16.88,4.46,26,.35,3.79.04,8.74-.12,12.54-.03.68-.09,1.36-.15,2.04-.01.15-.1.74,0,.01-.02.16-.04.32-.07.47-.05.29-.1.58-.17.87-.06.26-.14.51-.21.77-.06.21-.39.85,0,.07-.65,1.34-1.33,2.66-2.3,3.79-2.24,2.62-5.37,4.69-8.24,6.53-2.79,1.79-5.76,3.36-9.04,3.99-4.88.93-9.27-1.42-13.6-3.95-2.74-1.6-5.23,2.66-2.49,4.25h0Z"/><path class="cls-1" d="M359.64,70.76c2.48,7.13,7.1,13.51,12.29,18.92,2.48,2.6,5.19,5,8.14,7.06,2.33,1.63,4.98,3.14,7.8,3.71,1.41.28,2.87-.4,3.27-1.86.36-1.31-.44-2.99-1.86-3.27-2.46-.49-4.32-1.62-6.53-3.17-2.57-1.8-4.9-3.96-7.06-6.22-4.52-4.73-8.75-10.34-10.92-16.58-.47-1.36-1.82-2.26-3.27-1.86-1.32.36-2.33,1.91-1.86,3.27h0Z"/><path class="cls-1" d="M360.41,68.27c-13.47,10.48-28.49,19.14-44.31,25.53-4.9,1.98-9.85,3.79-14.72,5.85-1.32.56-1.61,2.51-.95,3.64.8,1.37,2.31,1.52,3.64.95,8.38-3.55,16.95-6.53,25.16-10.48,7.88-3.78,15.49-8.11,22.77-12.94,4.17-2.77,8.22-5.72,12.17-8.79,1.14-.88.93-2.83,0-3.76-1.12-1.12-2.62-.88-3.76,0h0Z"/><path class="cls-2" d="M464.03,290.16c-1.43-25.45-9.8-67.32-14.6-85.85-1.2-4.63-2.39-9.3-5.2-13.17-4.76-6.57-8.8-9.83-14.84-13.06-7.74-4.14-19.99-9.63-29.47-14.29-.39-.54-.79-1.09-1.22-1.63-2.09-2.65-4.68-5.27-7.78-7.51-3.41,6.51-7.27,16.03-11.48,24.17-6.35,12.29-18.77,49.39-21.98,58.63-1.74,5-3.06,10.02-4.96,15.67-.68-1.3-1.16-2.24-1.16-2.24-2.52-6.49-6.03-17.08-7.65-24.13-2.41-10.56-4.07-19.76-4.79-30.04-.84-11.97-.7-24.01-.14-35.98-1.47-.41-2.83-.88-4.07-1.35-12.73,10.55-33.92,13.07-43.13,28.38-2.18,3.64-3.37,7.78-4.52,11.86-.84,2.99-7.48,29.09-8.32,32.08l-6.4,23.56-.43,1.58c7.24.23,13.23.42,17.33.54,3.16.1,5.81,2.41,6.34,5.53,1.77,10.38,3.58,20.89,5.45,31.79,6.66-10.09,10.9-20.23,15.86-29.95,2,4.05,4.31,7.95,6.19,12.05,1.18,2.56,2.06,5.17,2.83,7.88.14.51.32,1.01.51,1.5.98,2.55,1.07,6.53,2.31,10.96h52.89c5.46,10.68,7.83,28.21,7.94,31.21,5.58-.08,31.59-.49,40-1.35,6.64-.68,13.45-.83,19.67-3.24,6.22-2.41,11.9-7.18,13.69-13.61,1.25-4.51,1.85-13.78,1.15-18.42"/><path class="cls-3" d="M363.69,183.93c-5.33.37-10.82.33-16.5-.2-2.72-.25-5.78-.84-8.84-1.8.05,4.93.23,9.85.58,14.76.72,10.29,2.38,19.48,4.79,30.04,1.61,7.05,5.13,17.64,7.65,24.13l1.12,2.32c1.92-5.69,3.24-10.72,4.99-15.75,2.98-8.55,13.84-41,20.48-55.5-4.64.96-9.39,1.65-14.27,1.99Z"/><path class="cls-5" d="M381.09,296.94c-3.71.1-6.17,1.1-10.57.01-6.25-1.53-9.3-4.31-15.6-5.67-4.93-1.06-9.99.98-14.5,3.27-5.55,2.83-10.88,6.1-15.93,9.77-1.26.92-6.12,4.63-7.24,5.74-.8.79-1.97,1.98-2.47,3.01-.41.83-1,3.15-.07,4.52,1.25,1.84,3.4,2.22,5.03,1.87,0,0,.64-.13,1.28-.27-.49.62-.98,1.25-.98,1.25-.95,1.2-1.3,2.09-1.36,3.43,0,.12,0,.25,0,.38.04.91.37,1.94.96,2.58.79.88,2.39,1.21,3.57,1.05,1.27-.17,2.39-.64,3.56-1.18,0,0,.68-.32,1.83-.85-.71,1.12-1.16,2.23-1.18,3.11-.04,2.23,1.37,4.03,3.57,4.42,2.31.4,3.96-.68,5.93-1.94,6.09-3.85,11.96-8.3,18.07-12.09-3.68,4.71-5.1,8.49-8.43,13.6-.69,1.06-1.02,3.78.38,4.97,2.13,1.81,4.75-.11,5.54-.75,4.57-3.67,8.22-7.05,11.8-11.05,4.08,1.75,8.85,1.75,12.94.06,4.6-1.91,8.6-4.39,10.18-5.05,0,0,.3-.09.77-.23.14-.04.27-.1.4-.15-1.18-6.93-3.45-16.88-7.06-23.84-.14,0-.28,0-.42.02Z"/><path class="cls-1" d="M408.57,242.49c3.93,14.46,7.53,29,10.77,43.63.74,3.34,5.87,1.93,5.13-1.41-3.25-14.63-6.84-29.17-10.77-43.63-.9-3.3-6.03-1.9-5.13,1.41h0Z"/><path class="cls-1" d="M388.89,288.81c14.34,1.28,28.93-.28,43.26-1.07,3.4-.19,3.43-5.51,0-5.32-14.33.79-28.92,2.35-43.26,1.07-1.43-.13-2.66,1.31-2.66,2.66,0,1.55,1.22,2.53,2.66,2.66h0Z"/><path class="cls-1" d="M307.11,225.12c.59,2.21.58,4.59.76,6.87.21,2.56.35,5.13.53,7.69.35,5.07.8,10.18,1.98,15.13,1.19,4.99,3.33,9.64,5.71,14.16,2.3,4.38,4.78,8.68,6.35,13.39.8,2.41,1.7,4.87,2.16,7.37.5,2.71.85,5.44,1.57,8.11.89,3.3,6.02,1.9,5.13-1.41-.64-2.4-1.01-4.84-1.42-7.28-.36-2.14-1.06-4.12-1.68-6.2-1.47-4.93-3.69-9.47-6.1-14-2.34-4.39-4.7-8.77-6.07-13.58-1.36-4.78-1.88-9.72-2.23-14.66-.21-2.91-.37-5.81-.6-8.72-.22-2.75-.24-5.61-.95-8.28-.88-3.31-6.01-1.9-5.13,1.41h0Z"/><path class="cls-1" d="M314.37,263.85c-4.44,8.77-8.42,17.78-13.53,26.19-1.78,2.93,2.82,5.61,4.59,2.68,5.11-8.42,9.09-17.42,13.53-26.19,1.54-3.05-3.04-5.74-4.59-2.68h0Z"/><path class="cls-1" d="M319.05,316.91c-.34.06-1.16.03-1.65-.3-.74-.5-.54-1.34-.31-2.1.16-.55.07-.21,0-.08.11-.24.26-.47.41-.69.32-.46.74-.87,1.13-1.27.55-.56,1.12-1.07,1.72-1.57,3.33-2.76,6.83-5.33,10.48-7.72,5.02-3.28,10.47-6.74,16.21-8.6,2.9-.94,5.65-1.18,8.6-.38,2.52.68,4.85,1.77,7.23,2.83,2.97,1.32,6.01,2.49,9.25,2.92,3,.39,5.89-.21,8.88-.33,3.41-.14,3.43-5.46,0-5.32-2.83.11-5.69.82-8.52.37-3.08-.49-5.95-1.79-8.77-3.06-2.9-1.3-5.88-2.57-9.04-3.04-3.55-.54-7.11.12-10.44,1.39-6.74,2.57-13.12,6.51-19.01,10.62-3.54,2.47-7.33,5.04-10.35,8.14-2.3,2.37-4.09,5.56-3.02,8.97,1.15,3.65,5.17,4.99,8.61,4.37,1.41-.25,2.21-1.98,1.86-3.27-.41-1.49-1.85-2.11-3.27-1.86h0Z"/><path class="cls-1" d="M337.97,303.3c-4.93,2.96-9.61,6.42-14.11,9.99-3.88,3.08-9.22,7.18-7.52,12.89.66,2.23,2.41,3.83,4.7,4.25,2.53.47,4.81-.37,7.08-1.41,1.31-.6,1.63-2.49.95-3.64-.78-1.34-2.33-1.56-3.64-.95-.65.3-1.3.56-2,.73-.55.14-.9.17-1.29.08-.12-.03-.67-.25-.49-.16.15.08-.1-.11-.14-.2-.16-.33-.21-.74-.14-1.31-.03.24.1-.37.13-.46-.06.18.24-.44.33-.58.15-.23.46-.89.72-1.04-.16.08-.44.51-.11.16.11-.12.22-.25.34-.37.25-.27.52-.53.79-.79,3.45-3.26,6.87-5.69,10.77-8.43,2.06-1.45,4.15-2.87,6.31-4.16,2.93-1.76.26-6.36-2.68-4.59h0Z"/><path class="cls-1" d="M346.67,308.8c-4.02,2.53-7.89,5.28-11.75,8.03-3.52,2.51-7.35,4.85-9.27,8.91-1.82,3.86-.44,8.47,3.77,9.98,4.52,1.63,8.7-1.8,12.23-4.16,4.62-3.09,9.13-6.36,13.82-9.34,2.88-1.83.22-6.44-2.68-4.59-4.41,2.8-8.66,5.86-12.99,8.78-2.06,1.39-4.2,3.12-6.49,4.1-1.02.43-2.5.5-3.03-.49-.59-1.11.24-2.34,1.1-3.5,1.43-1.91,3.48-3.15,5.4-4.51,4.14-2.94,8.27-5.9,12.57-8.61,2.89-1.82.22-6.42-2.68-4.59h0Z"/><path class="cls-1" d="M351.91,319.07c-1.93,2.64-3.48,5.48-5.09,8.32-1.51,2.67-3.75,5.2-3.49,8.46.15,1.87.92,3.52,2.51,4.57s3.49,1.17,5.2.59c1.38-.47,2.48-1.25,3.6-2.15,1.38-1.11,2.73-2.24,4.05-3.41,2.82-2.49,5.48-5.16,7.98-7.98.95-1.08,1.06-2.7,0-3.76-.97-.97-2.81-1.08-3.76,0-1.9,2.15-3.89,4.22-5.99,6.17-1.09,1.02-2.2,2.01-3.33,2.97-.55.47-1.1.93-1.65,1.39-.31.25-.61.5-.92.75-.12.1-.26.25-.4.33.17-.09.53-.37.14-.11-.36.25-.73.47-1.12.68s.22,0-.23.08c-.16.03-.31.09-.47.11.37-.06.1.05-.02-.03.03.02.58.21-.04,0-.01,0-.38-.17-.18-.06.3.16-.17-.31.13.16-.16-.26-.15-.5-.1-.13,0-.02-.1-.31-.08-.32-.04-.2-.04-.14,0,.16l-.02-.22c0-.22,0-.44,0-.66,0-.5.01-.03-.01.07.03-.1.04-.2.07-.3.03-.09.06-.19.08-.28.09-.44-.01.04-.07.13.18-.29.35-.58.54-.87.79-1.23,1.53-2.5,2.25-3.77,1.58-2.79,3.12-5.59,5.01-8.18.85-1.16.2-2.97-.95-3.64-1.35-.79-2.79-.21-3.64.95h0Z"/><path class="cls-1" d="M365.15,329.28c4.71,1.4,9.5.9,13.98-1.03,3.3-1.42,6.34-3.39,9.63-4.82,1.32-.57,1.62-2.5.95-3.64-.8-1.36-2.32-1.53-3.64-.95-2.92,1.27-5.63,3.02-8.53,4.33-3.54,1.61-7.2,2.1-10.97.97-3.29-.98-4.69,4.15-1.41,5.13h0Z"/><path class="cls-1" d="M461.52,292.44c-.05-.35.04.36.04.46.04.38.06.76.08,1.14.05.85.07,1.7.07,2.54,0,1.8-.07,3.61-.21,5.41-.23,3-.51,6.23-1.68,9.04-2.91,7-10.51,10.56-17.53,11.89-4.23.8-8.55,1.01-12.83,1.42-2.18.21-4.37.33-6.56.44-5.96.3-11.93.46-17.89.6-5.15.12-10.31.22-15.46.3l2.66,2.66c-.16-3.83-.92-7.72-1.66-11.47-1.13-5.79-2.58-11.58-4.82-17.04-1.19-2.91-2.54-5.79-4.47-8.29-.88-1.14-2.29-1.75-3.64-.95-1.12.65-1.84,2.49-.95,3.64,4.24,5.5,6.17,12.66,7.74,19.33.75,3.19,1.38,6.4,1.88,9.64.1.65.2,1.29.28,1.94-.09-.68.03.23.04.36.03.25.06.51.09.76.08.7.16,1.4.19,2.11.06,1.42,1.17,2.68,2.66,2.66,11.02-.16,22.05-.35,33.06-.88,6.94-.34,14.03-.76,20.85-2.02,8.05-1.48,16.22-5.65,20.3-13.06,2-3.64,2.57-7.75,2.95-11.83.38-4.05.5-8.15-.07-12.19-.2-1.42-2.01-2.2-3.27-1.86-1.53.42-2.06,1.84-1.86,3.27h0Z"/><path class="cls-5" d="M149.12,258.36c5.34,31.26,10.98,63.85,18.17,105.12.36,2.04,2.03,3.6,4.1,3.79,24.8,2.21,108.68,5.84,137.84,6.78,2.9.09,5.15-2.51,4.65-5.37-7.18-41.1-12.88-74.09-18.3-105.79-.53-3.12-3.18-5.43-6.34-5.53-23.92-.72-112.32-3.6-135.48-4.35-2.89-.09-5.13,2.48-4.64,5.33Z"/><path class="cls-1" d="M146.56,259.07c3.64,21.31,7.31,42.62,11.01,63.93,2.13,12.29,4.27,24.58,6.41,36.86.51,2.92.64,6.1,2.99,8.21,1.67,1.5,3.65,1.79,5.79,1.97,2.46.21,4.92.39,7.39.56,14.97,1.04,29.95,1.8,44.94,2.53,17.36.86,34.72,1.64,52.08,2.35,7.22.3,14.45.59,21.67.85,2.87.11,5.74.21,8.61.31,1.93.06,3.8.1,5.54-.9,2.22-1.27,3.66-3.77,3.63-6.33-.02-1.56-.47-3.17-.73-4.7-.3-1.7-.59-3.39-.89-5.09-.56-3.23-1.13-6.45-1.69-9.68-1.05-6.01-2.09-12.02-3.14-18.04-1.96-11.31-3.92-22.63-5.87-33.94-1.83-10.59-3.65-21.19-5.46-31.78-.42-2.44-.59-5.05-1.96-7.19s-3.65-3.72-6.18-4.13-4.95-.27-7.38-.34c-13.77-.43-27.54-.87-41.31-1.31-16.72-.54-33.44-1.08-50.15-1.62-12.32-.4-24.64-.8-36.96-1.2-1.86-.06-3.67.07-5.27,1.17-2.19,1.5-3.51,4.12-3.16,6.79.18,1.42,1.09,2.66,2.66,2.66,1.3,0,2.84-1.23,2.66-2.66-.21-1.66.57-2.7,2.27-2.66.95.02,1.9.06,2.85.09,2.41.08,4.81.16,7.22.23,6.37.21,12.73.41,19.1.62,15.87.51,31.74,1.03,47.62,1.54,14.73.47,29.46.95,44.19,1.41,2.66.08,5.32.17,7.99.25,2.11.07,4.31-.03,6.41.2,1.62.18,2.94,1.27,3.42,2.83.73,2.37.9,5.04,1.32,7.49.85,4.99,1.71,9.99,2.57,14.98,3.81,22.19,7.66,44.37,11.52,66.55.53,3.05,1.06,6.11,1.6,9.16.26,1.52.53,3.03.79,4.55.22,1.26.85,2.91.63,4.19-.26,1.47-1.57,1.62-2.83,1.58s-2.47-.08-3.71-.13c-6.38-.22-12.75-.47-19.13-.72-16.44-.66-32.88-1.38-49.32-2.16-15.71-.74-31.41-1.52-47.11-2.49-5.42-.33-10.85-.68-16.26-1.13-1.11-.09-2.31-.06-2.88-1.22-.57-1.18-.58-2.98-.81-4.27-.28-1.6-.56-3.21-.84-4.81-1.06-6.08-2.12-12.17-3.17-18.25-3.71-21.38-7.41-42.77-11.08-64.17-.82-4.79-1.64-9.58-2.46-14.37-.24-1.42-1.99-2.21-3.27-1.86-1.5.41-2.1,1.85-1.86,3.27Z"/><path class="cls-1" d="M373.25,334.68c-17.48,10.72-35.22,21.04-53.02,31.21-2.83,1.61-5.65,3.24-8.51,4.78-3.02,1.62-.33,6.22,2.68,4.59,6.43-3.46,12.72-7.18,19.04-10.84,9.57-5.54,19.1-11.13,28.6-16.78,4.65-2.76,9.28-5.54,13.89-8.37,2.91-1.79.24-6.39-2.68-4.59h0Z"/><path class="cls-1" d="M93.13,323.27c6.17,0,12.33-.02,18.5-.03,9.75-.02,19.49-.03,29.24-.05,2.48,0,4.95-.01,7.43-.01,3.42,0,3.43-5.32,0-5.32-6.37,0-12.75.02-19.12.03-9.69.02-19.38.03-29.07.05-2.33,0-4.65.01-6.98.01-3.42,0-3.43,5.32,0,5.32h0Z"/><path class="cls-1" d="M470.75,323.27c10.64,0,21.27-.05,31.91-.08,1.73,0,3.47-.01,5.2-.01,3.42,0,3.43-5.32,0-5.32-10.79,0-21.57.05-32.36.08-1.58,0-3.17.01-4.75.01-3.42,0-3.43,5.32,0,5.32h0Z"/><path class="cls-1" d="M392.32,162.89c9.63,5.14,19.67,9.47,29.47,14.29,4.42,2.17,9.06,4.3,12.89,7.44,4.19,3.43,8.11,7.96,10.03,13.08,1.66,4.44,2.66,9.16,3.75,13.77,1.02,4.32,1.98,8.66,2.9,13.01,2.22,10.51,4.2,21.07,5.93,31.68,1.83,11.26,3.44,22.61,4.09,34.01.19,3.4,5.51,3.43,5.32,0-.6-10.47-2.01-20.9-3.62-31.26-1.69-10.88-3.67-21.71-5.89-32.49-1.85-9.02-3.71-18.12-6.31-26.96-.9-3.07-2.04-6.18-3.81-8.87-1.66-2.53-3.64-4.94-5.77-7.1-3.67-3.74-8.09-6.45-12.72-8.83-11.07-5.69-22.59-10.49-33.57-16.35-3.02-1.61-5.71,2.98-2.68,4.59h0Z"/><path class="cls-1" d="M338.26,184.69c6.55,1.9,13.49,2.26,20.28,2.13s13.36-.93,19.92-2.27c1.41-.29,2.22-1.95,1.86-3.27-.4-1.46-1.86-2.15-3.27-1.86-6.1,1.24-12.28,1.96-18.5,2.08s-12.74-.16-18.86-1.94c-3.29-.96-4.7,4.17-1.41,5.13h0Z"/><path class="cls-2" d="M338.69,162.65c-.48,11.33-.57,22.71.23,34.04.72,10.29,2.38,19.48,4.79,30.04,1.61,7.05,5.13,17.64,7.65,24.13,0,0,.48,1.03,1.1,2.39-.55,1.62-1.14,3.3-1.81,5.04-.36,2.74-.06,4.61.34,8.33l-10.9-21.35c-7.83-16.11-14.65-33.92-21.51-53.26-.16-.46-.08-.97.24-1.33,1.71-1.95,3.99-4.18,6.12-6.07-.12-2.57.21-5,.21-5,.08-2.56.57-5.11,1.44-7.52,0,0,3.42-7.32,7.48-9.17,4.06-1.85,4.63-.28,4.63-.28Z"/><path class="cls-1" d="M325.48,180.69c-1.63,1.31-3.19,2.7-4.7,4.15s-3.45,3-4.46,4.81c-1.28,2.3.44,5.22,1.23,7.42.87,2.43,1.75,4.86,2.65,7.28,3.44,9.33,7.04,18.6,10.96,27.73,2.1,4.9,4.3,9.75,6.63,14.55.63,1.29,2.47,1.64,3.64.95,1.32-.77,1.58-2.34.95-3.64-7.95-16.38-14.4-33.44-20.52-50.58-.06-.16-.59-2.03-.73-2.05.4.04-.76,1.11-.03.79.21-.09.58-.64.72-.78.77-.82,1.57-1.63,2.38-2.41,1.61-1.56,3.28-3.06,5.03-4.47,1.12-.9.94-2.82,0-3.76-1.11-1.11-2.64-.9-3.76,0h0Z"/><path class="cls-1" d="M330.03,182.57c.05-1.93-.44-3.88-.74-5.78-.04-.24-.08-.48-.11-.72-.02-.12-.03-.24-.05-.36-.05-.33.08.67.03.21s-.1-.91-.13-1.36c-.02-.43-.03-.86,0-1.29,0-.07.04-.22.03-.28.02.07-.14.76-.04.34.04-.18.08-.35.14-.52.45-1.32-.52-2.97-1.86-3.27-1.48-.34-2.79.45-3.27,1.86-.68,2-.25,4.35.06,6.37.15.97.32,1.93.47,2.9.04.24.14,1.13.03.14.02.2.05.4.07.61.04.39.06.77.05,1.16-.03,1.39,1.25,2.72,2.66,2.66s2.62-1.17,2.66-2.66h0Z"/><path class="cls-2" d="M350.99,266.63c-.4-3.72-.7-5.59-.34-8.33,3.01-7.88,4.57-14.38,6.82-20.87,3.22-9.24,15.63-46.34,21.98-58.63,4.21-8.14,8.06-17.65,11.48-24.17,3.09,2.24,5.69,4.85,7.78,7.51,4.33,5.51,6.5,11.17,6.45,13.92,0,.44-9.91,4.39-12.99,5.78,2.86,2.07,7.89,6.6,10.77,9.5,1.16,1.17,1.37,3.03.37,4.33-6.49,8.37-25.94,37.6-37.31,51.73l-15.01,19.22Z"/><path class="cls-1" d="M389.59,156.94c3.65,2.68,6.8,6.11,9.22,9.93,1.05,1.66,2.03,3.42,2.73,5.26.29.76.54,1.53.73,2.31.09.37.18.75.23,1.14-.04-.28-.05-.26-.02.04,0,.38.03.31.1-.24l.68-1.17c.45-.55.37-.26-.11,0-.41.22-.84.41-1.26.6-1.23.56-2.48,1.09-3.73,1.62-2.35,1-4.92,2.03-7.34,3.12-2.01.91-1.43,3.55,0,4.59,2.31,1.69,4.47,3.66,6.59,5.6,1.07.98,2.13,1.98,3.16,3,.95.94.81,1.1.12,2-2.31,3.03-4.5,6.16-6.7,9.28-6.54,9.29-12.99,18.65-19.64,27.87-3.35,4.65-6.72,9.26-10.24,13.64-.9,1.12-1.09,2.67,0,3.76.93.93,2.86,1.13,3.76,0,7.42-9.25,14.2-19.02,21.01-28.73,3.3-4.7,6.57-9.42,9.88-14.11,1.31-1.86,2.63-3.72,3.96-5.56.5-.69,1-1.37,1.5-2.05.24-.32.48-.65.72-.97.11-.15.22-.29.33-.44.18-.23.14-.19-.1.13.23-.28.45-.57.64-.87,1.08-1.85.99-4.23-.1-6.05-.93-1.57-2.61-2.85-3.94-4.09-2.65-2.46-5.37-4.87-8.29-7v4.59c2.82-1.27,5.51-2.33,8.51-3.62,2.3-.99,5.84-1.84,5.78-4.9-.08-4.14-2.48-8.48-4.68-11.85-2.9-4.46-6.57-8.28-10.85-11.42-1.16-.85-2.97-.19-3.64.95-.79,1.35-.21,2.79.95,3.64h0Z"/><path class="cls-1" d="M388.64,153.3c-2.3,4.41-4.29,8.96-6.36,13.48-1.91,4.17-3.98,8.25-5.96,12.38-2.9,6.05-5.28,12.36-7.64,18.64-4.74,12.6-9.07,25.36-13.47,38.08-1.62,4.68-2.98,9.45-4.49,14.17-.49,1.52-.99,3.03-1.52,4.53s-1.14,2.89-1.29,4.49c-.23,2.53.15,5.06.42,7.57.16,1.43,1.11,2.66,2.66,2.66,1.32,0,2.82-1.22,2.66-2.66-.24-2.21-.58-4.43-.48-6.66.05-1.13.42-1.92.8-2.99.52-1.44,1.02-2.9,1.5-4.36,1.53-4.67,2.83-9.41,4.42-14.06,1.73-5.04,3.46-10.08,5.21-15.11,2.49-7.17,5.02-14.32,7.65-21.43,2.35-6.34,4.75-12.72,7.42-18.58,1.87-4.1,3.99-8.09,5.88-12.18,2.36-5.11,4.58-10.29,7.18-15.28,1.58-3.03-3.01-5.72-4.59-2.68h0Z"/><path class="cls-1" d="M336.03,162.65c-.54,12.96-.67,26.02.65,38.93,1.16,11.42,3.34,22.88,6.63,33.87,1.63,5.43,3.44,10.82,5.49,16.12.52,1.34,1.79,2.27,3.27,1.86,1.28-.35,2.38-1.92,1.86-3.27-3.66-9.48-6.64-19.2-8.75-29.14-2.56-12.03-3.88-24.1-4.13-36.4-.15-7.32,0-14.65.31-21.97.14-3.42-5.18-3.42-5.32,0h0Z"/><path class="cls-1" d="M332.83,157.49c-8.31,6.81-19.09,9.84-28.34,15.08-4.73,2.68-9.27,5.97-12.68,10.25-3.86,4.85-5.82,10.56-7.43,16.47-3.23,11.84-6.07,23.79-9.29,35.63-1.78,6.54-3.55,13.08-5.33,19.63-.9,3.31,4.23,4.72,5.13,1.41,2.76-10.17,5.59-20.32,8.23-30.53,1.98-7.68,3.93-15.37,5.94-23.05,1.19-4.55,2.37-9.24,4.81-13.3,2.61-4.36,6.5-7.73,10.76-10.41,10.3-6.49,22.45-9.63,31.96-17.43,1.11-.91.95-2.82,0-3.76-1.1-1.1-2.65-.91-3.76,0h0Z"/><path class="cls-1" d="M298.87,104.53c1.51,19.33,8.34,40.18,24.59,52.08,15.64,11.45,38.46,10.91,54.09-.16,8.32-5.9,15.25-13.96,19.93-23,1.57-3.04-3.02-5.73-4.59-2.68-3.88,7.48-9.25,14-15.75,19.35-7.06,5.82-15.99,9.22-25.13,9.54-7.83.28-15.92-1.56-22.7-5.55-7.94-4.68-14.01-12.62-17.9-20.85-4.21-8.9-6.46-18.89-7.22-28.72-.11-1.43-1.14-2.66-2.66-2.66-1.35,0-2.77,1.22-2.66,2.66h0Z"/><path class="cls-1" d="M341.06,120.26c-.38.9-.68,1.85-.95,2.79-.47,1.58-1.02,3.56.3,4.9.23.24.65.54.97.71.36.18.75.37,1.15.45.58.12,1.07.11,1.64.11.68,0,1.4-.3,1.88-.78s.81-1.22.78-1.88-.26-1.4-.78-1.88-1.16-.77-1.88-.78c-.29,0-.57.03-.86,0l.71.1c-.15-.03-.29-.06-.43-.12l.64.27c-.21-.09-.39-.21-.57-.34l.54.42s-.01-.01-.02-.02l.42.54s-.02-.03-.02-.04l.27.64s-.02-.07-.02-.1l.1.71c-.02-.14,0-.28.02-.42l-.1.71c.12-.85.39-1.68.65-2.49.22-.69.44-1.38.72-2.04.25-.59.04-1.53-.27-2.05-.32-.55-.96-1.08-1.59-1.22-.68-.16-1.45-.12-2.05.27l-.54.42c-.33.33-.56.72-.68,1.17h0Z"/><path class="cls-1" d="M321.15,108.58c-.75,2.36-.42,7.83,3.89,8.38,5.7.07,6.15-6.52,4.3-9.67-1.52-2.57-6.11-3.72-8.19,1.29Z"/><path class="cls-1" d="M370.08,108.78c.71,2.5.1,8.19-4.61,8.58-6.21-.17-6.4-7.07-4.24-10.27,1.77-2.62,6.82-3.62,8.85,1.69Z"/><path class="cls-1" d="M351.67,149.11c1.79-1.67,3.29-3.51,4.45-5.68,1.3-2.44,3.01-6.39-.11-8.24-1.54-.91-3.66-.46-5.35-.31-1.81.16-3.62.35-5.43.56-2.03.23-4.05.48-6.07.79-1.38.21-2.26,2.02-1.86,3.27.49,1.51,1.79,2.08,3.27,1.86.37-.06.74-.11,1.11-.16.77-.11-.32.04.19-.03.19-.02.38-.05.57-.07.96-.12,1.93-.24,2.9-.35,1.96-.22,3.93-.43,5.9-.59.78-.07,1.56-.13,2.35-.17.08,0,.33.02.41-.02-.37-.02-.7-.16-.98-.42-.39-.43-.55-.9-.49-1.41-.11.16-.16.61-.22.8-.06.18-.12.35-.18.53-.12.3-.13.35-.04.14-.5,1.21-1.22,2.35-1.97,3.42-.16.23-.32.47-.5.69.26-.34-.24.26-.3.32-.44.46-.93.88-1.4,1.32-1.02.95-1.03,2.81,0,3.76,1.09,1,2.67,1.01,3.76,0h0Z"/><path class="cls-1" d="M367.15,125.75c7.79.23,16.68,0,21.44-7.22,1.81-2.74,2.63-6.11,2.7-9.37.04-1.62-.07-3.34-.62-4.87-.62-1.73-1.66-3.86-3.19-4.97-.81-.58-1.95-.82-2.9-1.11-1.09-.33-2.2-.62-3.32-.87-2.05-.46-4.13-.77-6.21-.98-4.31-.42-8.67-.2-12.93.59-3.58.67-7.79,1.4-9.83,4.73-1.46,2.38-2.06,5.49-1.87,8.24.29,4.16,2.02,8.65,5.12,11.53s7.45,4.12,11.62,4.29c3.07.12,3.06-4.64,0-4.76-3.27-.13-6.91-1.13-9.07-3.76s-3.29-6.22-2.88-9.52c.11-.93.39-1.94.75-2.78.65-1.5,1.34-1.78,2.85-2.25,4.07-1.26,8.29-1.83,12.56-1.76,4.8.08,9.51.99,14.04,2.57l-1.05-.61c3.41,3.53,2.64,10.01-.18,13.71-3.88,5.07-11.33,4.57-17.01,4.4-3.07-.09-3.06,4.67,0,4.76Z"/><path class="cls-1" d="M307.9,103.49c6.52-2.26,13.52-3.17,20.38-2.21,1.69.24,3.38.6,5.03,1.05,1.09.3,2.6.47,3.34,1.36,1.15,1.4,1.53,3.65,1.51,5.41-.03,2.82-1.06,5.71-2.79,7.94-1.69,2.18-4.34,3.23-6.99,3.72-3.02.57-6.44.43-9.5.19s-6.09-.96-8.36-2.92c-3.99-3.45-5.45-11.15-1.57-15.16,2.13-2.2-1.23-5.58-3.37-3.37-4.83,5-4.57,13.61-.77,19.18,4.79,7.02,13.62,7.37,21.34,7.06,3.56-.14,7.28-1.03,10.21-3.15,3.05-2.21,5.08-5.71,6.01-9.33.76-3,.77-6.24-.26-9.18-.51-1.45-1.21-2.92-2.33-4-1.35-1.3-3.2-1.78-4.96-2.28-9.21-2.6-19.17-2.04-28.18,1.09-2.88,1-1.64,5.6,1.27,4.59h0Z"/><path class="cls-1" d="M343.02,110.48c.48-.24-.56.2-.04,0,.17-.06.34-.11.51-.16.36-.1.72-.17,1.09-.23.18-.03.52-.03-.2.02.09,0,.17-.02.26-.03.22-.02.44-.04.66-.06.45-.03.9-.04,1.35-.04s.86.02,1.29.05c.22.02.44.04.66.06.17.02.53.1-.18-.03.08.02.17.02.25.04.4.06.79.14,1.18.24.16.04.32.09.48.14.2.07.87.35.04-.01.61.26,1.17.42,1.84.24.55-.15,1.15-.58,1.42-1.09.54-1.03.37-2.73-.85-3.26-1.93-.84-4.03-1.13-6.13-1.14s-4.18.22-6.03,1.14c-1.12.56-1.52,2.23-.85,3.26.74,1.14,2.06,1.45,3.26.85h0Z"/><path class="cls-1" d="M392.69,107.92c.38-.18.72-.47,1.02-.77.33-.33.62-.72.9-1.1.39-.51.75-1.06,1.14-1.57l-.37.48c.25-.32.51-.63.83-.87l-.48.37c.11-.08.23-.16.35-.21l-.57.24c.08-.03.16-.06.24-.07.56-.11,1.14-.61,1.42-1.09.3-.51.43-1.26.24-1.84s-.54-1.13-1.09-1.42l-.57-.24c-.42-.11-.84-.11-1.27,0-.94.19-1.77.9-2.36,1.63-.58.72-1.08,1.48-1.64,2.21l.37-.48c-.23.29-.47.58-.76.81l.48-.37c-.09.07-.19.13-.3.18-.28.15-.5.35-.67.61-.21.23-.35.5-.43.81-.16.57-.09,1.33.24,1.84s.82.96,1.42,1.09l.63.09c.43,0,.83-.11,1.2-.33h0Z"/><path class="cls-1" d="M367.15,125.75c7.79.23,16.68,0,21.44-7.22,1.81-2.74,2.63-6.11,2.7-9.37.04-1.62-.07-3.34-.62-4.87-.62-1.73-1.66-3.86-3.19-4.97-.81-.58-1.95-.82-2.9-1.11-1.09-.33-2.2-.62-3.32-.87-2.05-.46-4.13-.77-6.21-.98-4.31-.42-8.67-.2-12.93.59-3.58.67-7.79,1.4-9.83,4.73-1.46,2.38-2.06,5.49-1.87,8.24.29,4.16,2.02,8.65,5.12,11.53s7.45,4.12,11.62,4.29c3.07.12,3.06-4.64,0-4.76-3.27-.13-6.91-1.13-9.07-3.76s-3.29-6.22-2.88-9.52c.11-.93.39-1.94.75-2.78.65-1.5,1.34-1.78,2.85-2.25,4.07-1.26,8.29-1.83,12.56-1.76,4.8.08,9.51.99,14.04,2.57l-1.05-.61c3.41,3.53,2.64,10.01-.18,13.71-3.88,5.07-11.33,4.57-17.01,4.4-3.07-.09-3.06,4.67,0,4.76Z"/><path class="cls-1" d="M307.9,103.49c6.52-2.26,13.52-3.17,20.38-2.21,1.69.24,3.38.6,5.03,1.05,1.09.3,2.6.47,3.34,1.36,1.15,1.4,1.53,3.65,1.51,5.41-.03,2.82-1.06,5.71-2.79,7.94-1.69,2.18-4.34,3.23-6.99,3.72-3.02.57-6.44.43-9.5.19s-6.09-.96-8.36-2.92c-3.99-3.45-5.45-11.15-1.57-15.16,2.13-2.2-1.23-5.58-3.37-3.37-4.83,5-4.57,13.61-.77,19.18,4.79,7.02,13.62,7.37,21.34,7.06,3.56-.14,7.28-1.03,10.21-3.15,3.05-2.21,5.08-5.71,6.01-9.33.76-3,.77-6.24-.26-9.18-.51-1.45-1.21-2.92-2.33-4-1.35-1.3-3.2-1.78-4.96-2.28-9.21-2.6-19.17-2.04-28.18,1.09-2.88,1-1.64,5.6,1.27,4.59h0Z"/><path class="cls-1" d="M343.02,110.48c.48-.24-.56.2-.04,0,.17-.06.34-.11.51-.16.36-.1.72-.17,1.09-.23.18-.03.52-.03-.2.02.09,0,.17-.02.26-.03.22-.02.44-.04.66-.06.45-.03.9-.04,1.35-.04s.86.02,1.29.05c.22.02.44.04.66.06.17.02.53.1-.18-.03.08.02.17.02.25.04.4.06.79.14,1.18.24.16.04.32.09.48.14.2.07.87.35.04-.01.61.26,1.17.42,1.84.24.55-.15,1.15-.58,1.42-1.09.54-1.03.37-2.73-.85-3.26-1.93-.84-4.03-1.13-6.13-1.14s-4.18.22-6.03,1.14c-1.12.56-1.52,2.23-.85,3.26.74,1.14,2.06,1.45,3.26.85h0Z"/><path class="cls-1" d="M392.69,107.92c.38-.18.72-.47,1.02-.77.33-.33.62-.72.9-1.1.39-.51.75-1.06,1.14-1.57l-.37.48c.25-.32.51-.63.83-.87l-.48.37c.11-.08.23-.16.35-.21l-.57.24c.08-.03.16-.06.24-.07.56-.11,1.14-.61,1.42-1.09.3-.51.43-1.26.24-1.84s-.54-1.13-1.09-1.42l-.57-.24c-.42-.11-.84-.11-1.27,0-.94.19-1.77.9-2.36,1.63-.58.72-1.08,1.48-1.64,2.21l.37-.48c-.23.29-.47.58-.76.81l.48-.37c-.09.07-.19.13-.3.18-.28.15-.5.35-.67.61-.21.23-.35.5-.43.81-.16.57-.09,1.33.24,1.84s.82.96,1.42,1.09l.63.09c.43,0,.83-.11,1.2-.33h0Z"/><path class="cls-1" d="M302.45,103.81c-.25-.11-.48-.25-.69-.42l.48.37c-.14-.11-.27-.23-.4-.35-.27-.24-.55-.46-.84-.68-.14-.1-.29-.2-.45-.27-.39-.18-.77-.35-1.19-.43-.32-.1-.63-.11-.95-.04-.32.01-.61.11-.89.28-.28.15-.5.35-.67.61-.21.23-.35.5-.43.81l-.09.63c0,.43.11.83.33,1.2.32.5.82.98,1.42,1.09.19.04.38.09.56.16l-.57-.24c.19.08.37.19.53.31l-.48-.37c.21.17.41.36.61.54.4.34.82.67,1.3.89.27.17.57.27.89.28.32.07.63.06.95-.04.31-.07.58-.22.81-.43.26-.17.46-.39.61-.67.29-.55.44-1.22.24-1.84l-.24-.57c-.21-.36-.5-.64-.85-.85h0Z"/><path class="cls-1" d="M157.18,73.45c-3.93-.03-7.76,1.2-10.92,3.53-2.97,2.24-5.16,5.36-6.27,8.92-2.18,7-.07,15.4,5.8,19.96,5.84,4.54,14.71,4.98,21.07,1.26,6.43-3.76,9.18-11.52,8.09-18.68-.56-3.67-2.26-7.06-4.85-9.72-2.66-2.69-6.12-4.45-9.87-5.02-1.01-.16-2.04-.24-3.06-.24-1.14,0-1.14,1.77,0,1.77,3.56-.02,7.04,1.1,9.92,3.19,2.64,1.99,4.58,4.77,5.56,7.93,1.95,6.28.23,13.85-4.94,18.05-2.49,2.03-5.72,3.12-8.93,3.36-3.41.25-6.91-.31-9.92-1.97-2.79-1.55-5.02-3.95-6.35-6.85-1.44-3.17-1.92-6.69-1.39-10.13.51-3.32,2.03-6.4,4.36-8.81,2.44-2.46,5.6-4.06,9.03-4.58.88-.13,1.77-.2,2.67-.19,1.14,0,1.14-1.78,0-1.77Z"/><path class="cls-1" d="M157.31,110.63c-4.39,0-8.77-1.34-12.15-3.97-6.02-4.68-8.55-13.34-6.15-21.07,1.17-3.78,3.47-7.04,6.63-9.43,3.33-2.44,7.45-3.75,11.54-3.73h.03c1.07,0,2.14.09,3.19.26,3.93.6,7.64,2.48,10.44,5.31,2.76,2.83,4.53,6.38,5.13,10.28,1.23,8.08-2.23,16-8.59,19.72-3.02,1.76-6.55,2.63-10.07,2.63ZM157.1,76.24c-.82,0-1.64.06-2.44.18-3.18.48-6.19,2-8.45,4.28-2.18,2.27-3.6,5.12-4.07,8.25-.51,3.25-.05,6.56,1.31,9.56,1.25,2.72,3.3,4.92,5.92,6.38,2.65,1.46,5.89,2.1,9.35,1.84,3.2-.24,6.17-1.35,8.36-3.13,4.65-3.78,6.54-10.75,4.61-16.96-.92-2.98-2.72-5.54-5.2-7.41-2.68-1.95-5.86-2.99-9.19-2.99-.04,0-.07,0-.11,0h-.08Z"/><path class="cls-6" d="M148.15,94.26c1.63,1.63,3.23,3.29,4.85,4.93.89.86,2.3.86,3.19,0,3.36-3.3,6.69-6.62,9.98-9.99.88-.88.88-2.31,0-3.19-.88-.88-2.31-.88-3.19,0-3.29,3.37-6.62,6.69-9.98,9.99h3.19c-1.63-1.63-3.22-3.3-4.85-4.93-.88-.88-2.31-.88-3.19,0-.88.88-.88,2.31,0,3.19h0Z"/><path class="cls-1" d="M243.82,103.21h-55.89c-1.17,0-2.12-.95-2.12-2.12s.95-2.12,2.12-2.12h55.89c1.17,0,2.12.95,2.12,2.12s-.95,2.12-2.12,2.12Z"/><path class="cls-1" d="M157.18,117.68c-3.93-.03-7.76,1.2-10.92,3.53-2.97,2.24-5.16,5.36-6.27,8.92-2.18,7-.07,15.4,5.8,19.96,5.84,4.54,14.71,4.98,21.07,1.26,6.43-3.76,9.18-11.52,8.09-18.68-.56-3.67-2.26-7.06-4.85-9.72-2.66-2.69-6.12-4.45-9.87-5.02-1.01-.16-2.04-.24-3.06-.24-1.14,0-1.14,1.77,0,1.77,3.56-.02,7.04,1.1,9.92,3.19,2.64,1.99,4.58,4.77,5.56,7.93,1.95,6.28.23,13.85-4.94,18.05-2.49,2.03-5.72,3.12-8.93,3.36-3.41.25-6.91-.31-9.92-1.97-2.79-1.55-5.02-3.95-6.35-6.85-1.44-3.17-1.92-6.69-1.39-10.13.51-3.32,2.03-6.4,4.36-8.81,2.44-2.46,5.6-4.06,9.03-4.58.88-.13,1.77-.2,2.67-.19,1.14,0,1.14-1.78,0-1.77Z"/><path class="cls-1" d="M157.31,154.86c-4.39,0-8.77-1.34-12.15-3.97-6.02-4.68-8.55-13.34-6.15-21.07,1.17-3.78,3.47-7.04,6.63-9.43,3.33-2.44,7.45-3.75,11.54-3.73h.03c1.07,0,2.14.09,3.19.26,3.93.6,7.64,2.48,10.44,5.31,2.76,2.83,4.53,6.38,5.13,10.28,1.23,8.08-2.23,16-8.59,19.72-3.02,1.76-6.55,2.63-10.07,2.63ZM157.1,120.48c-.82,0-1.64.06-2.44.18-3.18.48-6.19,2-8.45,4.28-2.18,2.27-3.6,5.12-4.07,8.25-.51,3.25-.05,6.56,1.31,9.56,1.25,2.72,3.3,4.92,5.92,6.38,2.65,1.46,5.89,2.1,9.35,1.84,3.2-.24,6.17-1.35,8.36-3.13,4.65-3.78,6.54-10.75,4.61-16.96-.92-2.98-2.72-5.54-5.2-7.41-2.68-1.95-5.86-2.99-9.19-2.99-.04,0-.07,0-.11,0h-.08Z"/><path class="cls-6" d="M148.15,138.49c1.63,1.63,3.23,3.29,4.85,4.93.89.86,2.3.86,3.19,0,3.36-3.3,6.69-6.62,9.98-9.99.88-.88.88-2.31,0-3.19-.88-.88-2.31-.88-3.19,0-3.29,3.37-6.62,6.69-9.98,9.99h3.19c-1.63-1.63-3.22-3.3-4.85-4.93-.88-.88-2.31-.88-3.19,0-.88.88-.88,2.31,0,3.19h0Z"/><path class="cls-1" d="M243.82,147.45h-55.89c-1.17,0-2.12-.95-2.12-2.12s.95-2.12,2.12-2.12h55.89c1.17,0,2.12.95,2.12,2.12s-.95,2.12-2.12,2.12Z"/><path class="cls-1" d="M157.18,161.92c-3.93-.03-7.76,1.2-10.92,3.53-2.97,2.24-5.16,5.36-6.27,8.92-2.18,7-.07,15.4,5.8,19.96,5.84,4.54,14.71,4.98,21.07,1.26,6.43-3.76,9.18-11.52,8.09-18.68-.56-3.67-2.26-7.06-4.85-9.72-2.66-2.69-6.12-4.45-9.87-5.02-1.01-.16-2.04-.24-3.06-.24-1.14,0-1.14,1.77,0,1.77,3.56-.02,7.04,1.1,9.92,3.19,2.64,1.99,4.58,4.77,5.56,7.93,1.95,6.28.23,13.85-4.94,18.05-2.49,2.03-5.72,3.12-8.93,3.36-3.41.25-6.91-.31-9.92-1.97-2.79-1.55-5.02-3.95-6.35-6.85-1.44-3.17-1.92-6.69-1.39-10.13.51-3.32,2.03-6.4,4.36-8.81,2.44-2.46,5.6-4.06,9.03-4.58.88-.13,1.77-.2,2.67-.19,1.14,0,1.14-1.78,0-1.77Z"/><path class="cls-1" d="M157.31,199.1c-4.39,0-8.77-1.34-12.15-3.97-6.02-4.68-8.55-13.34-6.15-21.07,1.17-3.78,3.47-7.04,6.63-9.43,3.33-2.44,7.45-3.75,11.54-3.73h.03c1.07,0,2.14.09,3.19.26,3.93.6,7.64,2.48,10.44,5.31,2.76,2.83,4.53,6.38,5.13,10.28,1.23,8.08-2.23,16-8.59,19.72-3.02,1.76-6.55,2.63-10.07,2.63ZM157.1,164.71c-.82,0-1.64.06-2.44.18-3.18.48-6.19,2-8.45,4.28-2.18,2.27-3.6,5.12-4.07,8.25-.51,3.25-.05,6.56,1.31,9.56,1.25,2.72,3.3,4.92,5.92,6.38,2.65,1.46,5.89,2.1,9.35,1.84,3.2-.24,6.17-1.35,8.36-3.13,4.65-3.78,6.54-10.75,4.61-16.96-.92-2.98-2.72-5.54-5.2-7.41-2.68-1.95-5.86-2.99-9.19-2.99-.04,0-.07,0-.11,0h-.08Z"/><path class="cls-1" d="M243.82,191.68h-55.89c-1.17,0-2.12-.95-2.12-2.12s.95-2.12,2.12-2.12h55.89c1.17,0,2.12.95,2.12,2.12s-.95,2.12-2.12,2.12Z"/></svg>