<?xml version="1.0" encoding="UTF-8"?><svg id="_圖層_1" xmlns="http://www.w3.org/2000/svg" viewBox="0 0 600 400"><defs><style>.cls-1{fill:#444;}.cls-2{fill:#e2e2e2;}.cls-3{fill:#d9d9d9;}.cls-4{fill:#645d5c;}.cls-5{fill:#fff;}.cls-6{fill:#b3b3b3;}.cls-7{fill:#3d8dcc;}</style></defs><g id="group"><path class="cls-5" d="M253.78,124.53c1.51-1.45,3.53-1.99,5.27-1.93,3.78.13,5.39,2.18,6.08,3.38,2.07,3.58,1.98,10.18.59,14.27-.98,2.89-2.59,7.32-6.47,10.49-1.6,1.31-3.95,2.17-6.2,1.79l-.59-.1c-.71,2.36-1.59,4.67-2.13,5.79-1.56,4.24-10.15,19.05-21.06,24.98v4.78c-.91.73-19.37,15.29-20.77,16.28h-3.25c-1.4-.99-19.86-15.55-20.77-16.28v-5.15c-4.39-2.42-8.4-5.97-12.23-10.56-5.59-6.68-8.77-13.88-10.52-19.85-2.4.62-4.99-.27-6.71-1.68-3.88-3.17-5.49-7.6-6.47-10.49-1.39-4.08-1.47-10.68.59-14.27.69-1.2,2.3-3.24,6.08-3.38,1.74-.06,3.77.48,5.27,1.93,0,0-5.5-43.82,45.26-43.82,60.14,0,48.02,43.82,48.02,43.82Z"/><path class="cls-4" d="M257.54,78.42c-2.11-3.49-4.76-6.47-8.02-9.41l-7.45-6.62c-9.66-10.76-22.49-13.73-35.14-13.73-13.27,0-24.9,3.77-35.48,11.66-2.37,1.77-7,6.07-10,10.41-6.48,6.35-11.66,20.21-11.27,33.95.05,5.57.49,11.97,2.27,18.45.76-.29,1.68-.5,2.78-.53,1.74-.06,3.77.48,5.27,1.93,0,0,1.05.74,2.09,1.46.23-3.1.33-4.83.91-8.38.97-5.89,7.08-8.61,9.68-13.86,1.5-3.03,2.39-6.57,4.95-8.73,1.93-1.62,4.5-2.17,6.98-2.43,3.84-.4,16.84.18,21.19.98,3.68.21,7.24.94,12.49,1.61,2.84.36,8.12,1.29,10.14,1.7,7.94,1.82,10.98,3.81,14.96,9.21,1.53,2.07,3.15,5.85,4.66,10.76l5.24,7.69c1.51-1.45,3.53-1.99,5.27-1.93,1.01.04,1.86.21,2.59.46,1.73-6.88,2.47-12.05,2.2-18.38-.51-12.15-2.52-20.01-6.29-26.26Z"/><path class="cls-1" d="M198.29,164.23c2.91,1.54,6.04,2.19,9.33,2.17s6.78-.71,9.49-2.83c1.13-.88,1-2.95,0-3.87-1.2-1.1-2.66-.94-3.87,0,.85-.66.27-.21.05-.07-.18.12-.37.23-.57.33-.25.13-.89.28-.12.08-.26.07-.52.2-.78.28-.71.23-1.45.38-2.18.5.41-.07.14-.02-.11,0-.21.02-.43.04-.64.05-.52.03-1.04.05-1.55.04-.46,0-.93-.02-1.39-.05-.21-.01-.42-.03-.64-.05-.1,0-.87-.15-.21-.02-.69-.13-1.37-.25-2.04-.45-.29-.09-.56-.19-.85-.28-.67-.23.49.24-.11-.04-.35-.17-.7-.34-1.04-.52-1.26-.67-3.03-.36-3.74.98-.67,1.26-.37,3.03.98,3.74h0Z"/><path class="cls-1" d="M206.07,142.45c.4,1.52.78,3.07,1.01,4.63l-.1-.73c.03.21.04.42.02.64l.1-.73c-.02.1-.04.19-.07.29l.28-.65c-.03.07-.06.12-.1.18l.43-.55c-.05.06-.09.1-.15.15l.55-.43c-.12.08-.24.14-.37.19l.65-.28c-.2.08-.4.15-.62.18l.73-.1c-.19.02-.38.02-.58,0l.73.1c-.22-.03-.43-.08-.65-.11-.36-.11-.73-.13-1.09-.05-.36.02-.7.12-1.02.32-.57.33-1.11.98-1.26,1.64-.16.7-.12,1.49.28,2.11.36.55.95,1.17,1.64,1.26.53.07,1.04.21,1.58.23.84.04,1.62-.22,2.37-.57.94-.43,1.67-1.29,1.92-2.3.21-.86.12-1.58-.02-2.44-.25-1.49-.6-2.97-.98-4.43-.17-.66-.67-1.29-1.26-1.64s-1.45-.49-2.11-.28c-1.42.46-2.3,1.88-1.91,3.37h0Z"/><path class="cls-1" d="M181.87,129.26c-.77,2.51-.27,8.28,4.49,8.78,6.28-.04,6.62-7.02,4.5-10.3-1.73-2.69-6.83-3.8-8.99,1.53Z"/><path class="cls-1" d="M232.4,129.26c.77,2.51.27,8.28-4.49,8.77-6.28-.04-6.62-7.02-4.5-10.3,1.73-2.69,6.83-3.8,8.99,1.53Z"/><path class="cls-1" d="M162.43,122.59c-3.18-2.85-7.75-3.52-11.63-1.71-2.81,1.31-4.5,3.95-5.29,6.87-1.84,6.84-.09,14.79,3.8,20.63,2.64,3.96,6.82,7.54,11.9,6.87,1.46-.19,2.74-1.12,2.74-2.74,0-1.33-1.26-2.93-2.74-2.74-3.8.5-6.37-2.56-8.06-5.6-1.47-2.65-2.56-5.7-2.8-8.73-.22-2.82-.21-6.31,1.53-8.69.11-.15.09-.12-.06.09.11-.13.23-.26.36-.38.05-.05.61-.49.35-.31.57-.4,1.16-.61,1.84-.74,1.48-.28,3.04.02,4.19,1.04,2.61,2.35,6.5-1.51,3.87-3.87h0Z"/><path class="cls-1" d="M255.71,126.46c1.09-.97,2.55-1.29,3.98-1.08.74.11,1.43.35,2.04.78-.17-.12.95.98.58.51,1.83,2.35,1.82,5.97,1.6,8.79-.24,2.96-1.29,5.94-2.7,8.55-1.68,3.1-4.28,6.29-8.15,5.78-1.47-.19-2.74,1.4-2.74,2.74,0,1.64,1.26,2.54,2.74,2.74,8.33,1.1,13.45-8.06,15.46-14.8,1.78-5.96,1.76-15.17-4.02-19.02-3.88-2.59-9.28-1.87-12.66,1.16-2.63,2.36,1.25,6.22,3.87,3.87h0Z"/><path class="cls-1" d="M250.7,148.27c-.7,3.39-2.02,6.71-3.16,9.59-.15.39.27-.55,0,0-.09.19-.18.39-.27.58-.23.48-.47.96-.72,1.43-.57,1.09-1.19,2.16-1.83,3.21-3.35,5.5-7.44,10.7-12.44,14.8-2.72,2.23-5.79,3.98-9.18,4.77s-1.98,6.07,1.45,5.28c7.14-1.66,13.08-6.84,17.75-12.26,3.87-4.49,7.47-9.54,9.93-14.96.18-.39.34-.79.51-1.19.05-.11.28-.68.12-.31s.01-.02.04-.08c.16-.35.3-.7.45-1.06.2-.48.39-.97.57-1.45.84-2.25,1.57-4.55,2.06-6.9.71-3.44-4.56-4.91-5.28-1.45h0Z"/><path class="cls-1" d="M158.16,149.55c2.13,9.36,6.52,18.12,12.79,25.39,6.06,7.04,13.88,12.63,23.23,14.02,1.46.22,2.94-.36,3.37-1.91.35-1.29-.44-3.15-1.91-3.37-8.54-1.27-15.28-6.19-20.82-12.61s-9.47-14.55-11.38-22.98c-.78-3.43-6.06-1.98-5.28,1.45h0Z"/><path class="cls-1" d="M244,60.45c-6.6-7.27-15.46-11.82-25.09-13.52-9.64-1.7-19.85-1.38-29.29,1.29-9.11,2.57-17.81,7.4-24.55,14.08-1.86,1.84-3.59,3.81-5.16,5.9-1.22,1.63-2.66,3.07-3.83,4.75-2.74,3.94-4.67,8.48-6.07,13.05-3.62,11.82-3.43,25.22-.4,37.16.87,3.41,6.15,1.97,5.28-1.45-1.32-5.19-1.86-10.48-1.96-15.83-.1-4.97.23-9.84,1.36-14.69,1.03-4.44,2.56-8.79,4.82-12.76.9-1.58,1.89-3.13,3.09-4.51,1.43-1.64,2.71-3.39,4.16-5.02,5.82-6.59,12.99-11.4,21.48-14.38s17.77-3.73,26.76-2.73c9.81,1.09,18.85,5.17,25.53,12.53,2.37,2.61,6.23-1.27,3.87-3.87h0Z"/><path class="cls-1" d="M264.42,123.16c1.18-4.84,2.07-9.77,2.18-14.76.11-4.71-.32-9.47-.99-14.14-.97-6.75-3-13.44-6.92-19.08-2.08-2.99-4.55-5.66-7.25-8.11-2.6-2.36-6.48,1.5-3.87,3.87,4.22,3.83,7.72,8.07,9.82,13.23,2.84,6.98,3.65,14.81,3.74,22.28.07,5.2-.77,10.23-2,15.26-.84,3.42,4.44,4.88,5.28,1.45h0Z"/><path class="cls-1" d="M207.01,90.93c-3.78-.68-7.68-.86-11.51-1.04-3.58-.16-7.27-.41-10.84.01-2.93.35-5.78,1.03-8.13,2.91-2.1,1.68-3.33,4.06-4.37,6.49-.91,2.14-1.79,4.22-3.33,5.99s-3.23,3.26-4.68,5.04c-1.86,2.29-3.02,4.68-3.47,7.61s-.69,6.03-.93,9.07c-.12,1.47,1.34,2.74,2.74,2.74,1.58,0,2.62-1.26,2.74-2.74.33-4.21.04-9.28,2.76-12.77s6.01-5.8,7.83-9.72c1-2.16,1.71-4.65,3.21-6.54,1.34-1.69,3.43-2.29,5.48-2.59,3.17-.46,6.51-.21,9.7-.09,2.19.08,4.37.2,6.55.37,1,.08,2,.17,3,.28.21.02,1.26.15.72.08.36.05.72.11,1.07.17,1.45.26,2.95-.39,3.37-1.91.36-1.32-.45-3.1-1.91-3.37h0Z"/><path class="cls-1" d="M228.19,99.51c1.37.32,2.73.66,4.07,1.09.53.17,1.07.35,1.59.56.11.04.91.39.36.14.21.1.43.19.64.29.9.43,1.74.95,2.56,1.51.58.39-.19-.19.22.16.17.14.33.28.5.42.39.34.77.7,1.13,1.08.38.39.75.8,1.1,1.22.16.19.32.38.47.57.06.07.49.62.21.26.68.88,1.28,1.81,1.8,2.79,1.32,2.51,2.19,5.1,3.07,7.96.44,1.41,1.91,2.31,3.37,1.91s2.35-1.95,1.91-3.37c-.97-3.16-2.08-6.33-3.62-9.27-1.14-2.18-2.73-4.19-4.44-5.96-3.65-3.77-8.46-5.49-13.46-6.65-1.44-.33-2.96.45-3.37,1.91-.38,1.38.47,3.03,1.91,3.37h0Z"/><path class="cls-1" d="M221.7,93.54c-.74-3.15-3.19-5.85-5.67-7.78-4.12-3.21-8.98-4.87-14.12-5.55-1.42-.19-2.8,1.39-2.74,2.74.07,1.64,1.21,2.54,2.74,2.74-.41-.05.47.08.57.09.32.06.65.12.97.18.53.11,1.07.24,1.59.38,1.07.29,2.12.64,3.14,1.05-.53-.21.12.05.23.11.25.11.49.23.74.35.44.22.87.45,1.29.69s.8.48,1.19.74c.2.13.4.27.6.41.13.09.63.48.09.05.64.5,1.25,1.04,1.82,1.62.24.24.47.5.7.76.12.14.24.3.37.44.11.12-.37-.53,0,0,.35.51.68,1.01.95,1.56.05.11.09.25.16.34-.36-.47-.19-.53-.1-.21.07.24.16.48.22.73.33,1.39,2,2.35,3.37,1.91,1.45-.47,2.26-1.87,1.91-3.37h0Z"/><path class="cls-1" d="M70.24,343.18c2.83,0,5.66,0,8.49,0,6.77,0,13.53,0,20.3,0,9.79,0,19.58,0,29.37,0,11.78,0,23.57,0,35.35,0,12.86,0,25.71,0,38.57,0,12.97,0,25.95,0,38.92,0,12.18,0,24.36,0,36.54,0,10.37,0,20.74,0,31.11,0,7.57,0,15.15,0,22.72,0,3.87,0,7.73,0,11.6,0,.27,0,.55,0,.82,0,3.52,0,3.53-5.47,0-5.47-2.83,0-5.67,0-8.5,0-6.77,0-13.54,0-20.31,0-9.79,0-19.59,0-29.38,0-11.79,0-23.57,0-35.36,0-12.86,0-25.71,0-38.57,0-12.97,0-25.95,0-38.92,0-12.18,0-24.35,0-36.53,0-10.37,0-20.73,0-31.1,0-7.57,0-15.14,0-22.71,0-3.86,0-7.72,0-11.59,0-.27,0-.54,0-.81,0-3.52,0-3.53,5.47,0,5.47h0Z"/><path class="cls-6" d="M298.31,228.88c-10.15-15.43-29.94-21.93-52.5-30.77-2.52-1.95-4.97-3.66-6.95-4.93-4.81,21.37-11.1,44.23-17.87,65.01-5.01,15.4-6.66,20.62-13.08,36.45h-2.07c-6.41-15.83-8.06-21.05-13.08-36.45-6.77-20.78-13.06-43.64-17.87-65.01-2.17,1.39-4.89,3.3-7.65,5.48-21.98,8.58-41.16,15.12-51.11,30.23,0,0-8.9,2.87-17.2,5.02,0,0-7.65,5.83-7.65,5.83-1.24,13.98-3.28,28.07-4.11,42.14-1.28,21.87,6.85,46.48,32,48.71h19.6v13.58c40.45,0,152.84,0,152.84,0,7.03,0,13.08-1.78,16.85-3.71,4.04-2.07,7.07-5.58,9.72-9.26,3.82-5.3,4.48-14.52,3.52-20.99-3.7-24.76-11.09-46.3-18.41-70.24-1.24-4.04-2.63-7.05-4.92-10.61"/><path class="cls-5" d="M205.84,294.63c-6.41-15.83-8.06-21.05-13.08-36.45-6.21-19.08-12.02-39.91-16.66-59.73-.5-1.85.37-4.26,1.53-5.61,2.09-2.42,4.71-5.91,6.84-8.29.91.73,19.37,15.29,20.77,16.28h3.25c1.4-.99,19.86-15.55,20.77-16.28,2.13,2.38,4.76,5.88,6.84,8.29,1.16,1.35,2.03,3.76,1.53,5.61-4.63,19.82-10.44,40.65-16.66,59.73-5.01,15.4-6.66,20.62-13.08,36.45h-2.07Z"/><path class="cls-7" d="M200.27,280.37c1.48,4.01,3.2,8.41,5.57,14.27h2.07c5.9-14.57,7.77-20.16,11.94-32.96-2.02-17.34-4.7-37.97-4.7-38.57,0-1.09.25-2.17.5-3.24.12-.48.24-.97.34-1.45.53-2.41.63-3.64,1.25-6.19l.04-.12c-2.98-4.02-6.58-8.78-8.78-11.25h-3.25c-2.18,2.45-5.74,7.15-8.7,11.15.17.47.28.78.28.78.83,1.72,1.05,3.44,1.52,4.95.58,1.87,1.17,3.78,1.2,5.74.02,1.02-2.8,20.58-5.41,38.97,2.36,7.24,3.99,12.18,6.12,17.94Z"/><path class="cls-1" d="M192.36,293.93c-11.56-20.04-22.99-40.17-33.64-60.7-.36-.69-.71-1.38-1.07-2.07-.3-.58-.95-1.42-1.06-2.06-.02-.15-.47.53.27-.29.48-.54.99-1.06,1.49-1.58,2.39-2.48,4.89-4.85,7.4-7.2,1.28-1.2.94-3.44-.55-4.3s-2.94-1.68-4.41-2.52c-.65-.37-1.31-.75-1.96-1.12-.41-.23-.82-.47-1.23-.7-.16-.09-.33-.19-.49-.28-.33-.22-.33-.18,0,.1l.37,1.38c-.01.32-.03.11.11-.07.16-.2.26-.47.4-.69.23-.38.48-.76.74-1.12.54-.77,1.15-1.49,1.77-2.19,1.61-1.81,3.38-3.48,5.2-5.07,3.32-2.89,6.86-5.53,10.56-7.92l-4.02-1.64c6.27,27.8,14.16,55.31,23.58,82.21,2.27,6.49,4.79,12.88,7.37,19.26.55,1.37,1.82,2.33,3.37,1.91,1.3-.36,2.47-1.99,1.91-3.37-10.11-24.96-18.08-50.82-24.93-76.85-2.15-8.17-4.16-16.37-6.02-24.61-.38-1.68-2.58-2.56-4.02-1.64-5.7,3.67-11.25,7.9-15.92,12.82-2.04,2.15-4.95,5.1-5.5,8.14-.5,2.76,1.98,3.91,3.98,5.05,2.12,1.21,4.25,2.43,6.37,3.64l-.55-4.3c-2.31,2.17-4.61,4.35-6.83,6.62-2.01,2.05-4.66,4.3-3.82,7.51.35,1.35,1.17,2.63,1.81,3.87.71,1.39,1.43,2.77,2.16,4.15,1.39,2.65,2.78,5.3,4.19,7.93,5.84,10.94,11.88,21.77,17.99,32.56,3.39,5.98,6.81,11.94,10.25,17.9,1.76,3.05,6.49.3,4.72-2.76h0Z"/><path class="cls-1" d="M226.11,296.7c12.24-21.22,24.48-42.51,35.53-64.38.75-1.49,1.3-2.95.83-4.63s-1.73-2.77-2.85-3.93c-2.51-2.62-5.14-5.12-7.78-7.6l-.55,4.3c2.12-1.21,4.25-2.43,6.37-3.64,1.92-1.1,4.19-2.09,4.03-4.69-.1-1.64-1.33-3.32-2.28-4.61-1.01-1.37-2.1-2.66-3.27-3.89-4.67-4.92-10.23-9.15-15.92-12.82-1.44-.93-3.64-.04-4.02,1.64-6.27,27.8-14.16,55.31-23.58,82.21-2.27,6.49-4.79,12.88-7.37,19.26-.55,1.37.6,3.01,1.91,3.37,1.56.43,2.81-.54,3.37-1.91,10.11-24.96,18.08-50.82,24.93-76.85,2.15-8.17,4.16-16.37,6.02-24.61l-4.02,1.64c3.7,2.38,7.24,5.02,10.56,7.92,1.77,1.55,3.49,3.17,5.07,4.92.63.7,1.25,1.42,1.8,2.19.26.37.52.74.76,1.13.14.22.26.47.41.69.11.16.2.64.18.21l.37-1.38c.22-.42.19-.18-.24.04s-.82.47-1.23.7c-.74.42-1.47.84-2.21,1.26-1.47.84-2.94,1.68-4.41,2.52s-1.84,3.09-.55,4.3c2.18,2.05,4.35,4.1,6.45,6.23.45.45.89.91,1.33,1.37.37.39,1.33,1.09,1.48,1.58.04.14,0-.41-.09-.11-.24.71-.72,1.4-1.06,2.06-2.61,5.07-5.28,10.12-7.98,15.14-5.54,10.3-11.24,20.51-17.01,30.67-3.22,5.67-6.46,11.32-9.72,16.96-1.76,3.06,2.96,5.81,4.72,2.76h0Z"/><path class="cls-1" d="M214.45,218.48c-4.81,0-9.62-.1-14.44-.1-1.43,0-2.8,1.26-2.74,2.74s1.2,2.74,2.74,2.74c4.81,0,9.62.1,14.44.1,1.43,0,2.8-1.26,2.74-2.74s-1.2-2.74-2.74-2.74h0Z"/><path class="cls-1" d="M214.6,211.48c-.45,1.89-.75,3.8-1.14,5.69s-1.11,3.97-1.03,5.97c.05,1.31.3,2.63.46,3.93.84,6.81,1.7,13.62,2.53,20.43.58,4.74,1.15,9.48,1.71,14.23.17,1.47,1.13,2.74,2.74,2.74,1.35,0,2.91-1.26,2.74-2.74-.94-8.06-1.93-16.11-2.93-24.16-.58-4.68-1.37-9.38-1.74-14.08-.1-1.33.3-2.59.59-3.88.5-2.22.83-4.47,1.36-6.68.81-3.42-4.46-4.88-5.28-1.45h0Z"/><path class="cls-1" d="M196.91,262.25c1.43-10.11,2.89-20.21,4.29-30.32.36-2.63.82-5.27,1.04-7.91.14-1.66-.22-3.37-.64-4.98-.68-2.57-1.32-5.23-2.41-7.66-.61-1.35-2.56-1.67-3.74-.98-1.39.81-1.59,2.39-.98,3.74.49,1.09.7,2.3,1.01,3.45s.7,2.27.98,3.42c.27,1.09.41,2.13.29,3.24-.3,2.73-.58,4.46-.97,7.3-1.35,9.75-2.76,19.49-4.14,29.24-.21,1.46.36,2.94,1.91,3.37,1.28.35,3.16-.44,3.37-1.91h0Z"/><path class="cls-1" d="M182.54,182.62c-1.29,1.46-2.51,2.98-3.74,4.5s-2.71,3.11-3.87,4.78c-1.82,2.62-2.33,6.17-.69,8.96,2.7,4.63,5.87,9.07,9.27,13.21,2.03,2.47,4.23,4.91,6.93,6.67,1.34.88,2.9.15,3.74-.98,4.27-5.7,8.28-11.65,13-16.99,1.25-1.41.93-3.23-.55-4.3-.16-.11-.32-.24-.47-.35-.19-.14-1.12-.86-.42-.32-.82-.63-1.63-1.27-2.45-1.91-2.27-1.77-4.53-3.55-6.79-5.32-3.36-2.64-6.75-5.27-10.08-7.95-1.15-.93-2.75-1.12-3.87,0-.96.96-1.16,2.94,0,3.87,3.41,2.75,6.87,5.43,10.32,8.14,3.65,2.87,7.23,5.87,11,8.57l-.55-4.3c-5.02,5.69-9.31,12.03-13.85,18.1l3.74-.98c-1.02-.67-2-1.59-3.1-2.74-1.2-1.24-2.31-2.56-3.39-3.91-2.02-2.54-3.88-5.22-5.66-7.93-.63-.97-1.25-1.94-1.85-2.93-.18-.3-.4-.6-.54-.92-.13-.29.04-.02.06.09-.04-.3-.04-.61,0-.91.29-1.87,1.93-3.27,3.06-4.67,1.52-1.88,3.01-3.79,4.62-5.6,2.33-2.63-1.53-6.51-3.87-3.87Z"/><path class="cls-1" d="M227.34,186.49c1.6,1.81,3.1,3.72,4.62,5.6,1.13,1.4,2.77,2.81,3.06,4.67.05.3.05.6.02.9,0-.01.18-.39.04-.07s-.36.63-.54.92c-.59.99-1.22,1.96-1.85,2.93-1.77,2.72-3.63,5.4-5.66,7.93-1.08,1.35-2.19,2.67-3.39,3.91-1.11,1.15-2.09,2.07-3.1,2.74l3.74.98c-4.54-6.07-8.83-12.41-13.85-18.1l-.55,4.3c3.77-2.7,7.36-5.71,11-8.57,3.44-2.71,6.91-5.39,10.32-8.14,1.15-.93.97-2.9,0-3.87-1.14-1.14-2.72-.93-3.87,0-3.33,2.69-6.72,5.31-10.08,7.95-2.26,1.78-4.52,3.55-6.79,5.32-.82.64-1.63,1.27-2.45,1.91.7-.54-.23.18-.42.32-.16.12-.31.24-.47.35-1.49,1.06-1.8,2.89-.55,4.3,4.72,5.34,8.73,11.3,13,16.99.85,1.13,2.39,1.87,3.74.98,4.98-3.27,8.67-8.63,12.02-13.45,1.35-1.94,2.67-3.92,3.89-5.95,1.59-2.64,1.59-5.44.28-8.26-.89-1.89-2.52-3.44-3.82-5.05-1.47-1.82-2.92-3.66-4.47-5.42-2.34-2.64-6.2,1.24-3.87,3.87Z"/><path class="cls-1" d="M118.5,230.26c7.8-11.73,21.53-17.86,34.14-22.97,4.41-1.79,8.85-3.49,13.29-5.21,1.38-.53,2.33-1.84,1.91-3.37-.36-1.31-1.98-2.45-3.37-1.91-14.7,5.7-30.64,10.94-42.69,21.52-3.06,2.69-5.75,5.78-8.01,9.17-1.96,2.94,2.78,5.68,4.72,2.76h0Z"/><path class="cls-1" d="M300.67,227.5c-8.55-12.85-22.92-19.57-36.76-25.22-4.62-1.89-9.28-3.67-13.94-5.47-1.38-.53-3,.59-3.37,1.91-.43,1.55.53,2.83,1.91,3.37,7.52,2.92,15.1,5.74,22.41,9.15,6.26,2.92,12.48,6.28,17.72,10.84,2.77,2.41,5.26,5.13,7.3,8.19s6.68.18,4.72-2.76h0Z"/><path class="cls-1" d="M296.01,230.73c2.33,3.65,3.86,7.4,5.12,11.52,1.39,4.54,2.81,9.08,4.22,13.62,2.77,8.93,5.48,17.88,7.84,26.93,2.41,9.24,4.61,18.65,5.87,28.12.92,6.9.18,14.45-4.15,20.11-2.57,3.36-5.63,6.27-9.6,7.86-4.35,1.74-9.03,2.5-13.7,2.53-3.52.02-3.53,5.49,0,5.47,8.75-.06,18.02-2.3,24.33-8.71,2.95-2.99,5.56-6.44,7.01-10.4,1.42-3.86,1.9-8.13,1.88-12.22-.02-4.57-.92-9.11-1.74-13.59-.89-4.87-1.93-9.72-3.09-14.53-2.33-9.67-5.13-19.22-8.05-28.73-1.67-5.46-3.38-10.9-5.06-16.36-1.57-5.08-3.28-9.88-6.16-14.39-1.89-2.96-6.63-.22-4.72,2.76h0Z"/><path class="cls-5" d="M130.28,194.56c.29-.52.57-1.06.87-1.61,1.53-2.83,3.03-5.55,4.55-6.2.86-.37,3.28-.36,4.03.2,1.04.77,1.49,2.62,1.38,3.89-.27,3.09-1.09,6.6-2.22,10.77-1.45,5.34-2.6,10.32-5.03,15.31-1.98,4.06-5.04,6.67-8.52,9.28-.03.86-.05,1.66-.05,1.66-.05,1.5-.46,4.53-.84,6.51-8.91,1.14-22.95,1.97-29.09,2.3,0-2.03-.13-3.81-.21-5.2v-.03c-.26-1.79-6.18-14.49-9.97-21.34-3.19-6.82-6.46-12.65-9.84-19.38-.98-1.96-2.06-3.74-2.55-5.64-.5-1.9-.61-3.26.51-4.87,1.13-1.61,3.13-1.74,4.87-.81,1.6.85,2.31,2.17,3.21,3.75,2.7,4.75,5.58,9.05,8.45,13.63-.32-.81-.53-1.34-.53-1.34l-3.11-7.87c-1.04-2.62-6.48-15.93-7.36-18.2-.73-1.88-1.48-4.53-.65-6.52.39-.94,1.18-1.74,2.09-2.11.69-.29,2.07-.2,2.7-.07,2.41.53,3.27,2.59,4.88,5.14,0,0,.2.32.4.64l-.76-2.04c-.97-2.59-2.09-6.53-2.03-7.57.12-2.01,1.6-4.51,3.82-4.91,2.51-.46,4.26,1.33,5.07,2.73,1.99,3.44,9.62,20.1,13.46,29.14,1.79-2.69,3.08-3.78,5.09-5.84,2.17-2.22,5.32-4.01,8.43-4.03,2.6-.01,4.76,1.61,7.02,2.92,2,1.17,5.69,2.84,6.01,4.48.42,2.16-1.31,5.42-4.55,5.31-1.43-.05-4.46-1.23-5.86-1.55-1.82-.42-4.4.95-5.63,3.08-1.23,2.14-1.22,4.03-1.12,6.49.07,1.81.61,4.21,1.91,5.46,2.21,2.14,5.61,1.61,7.24,0,1.74-1.72,2.83-3.53,3.94-5.56Z"/><path class="cls-1" d="M109.98,182.02c-3.15-7.37-6.45-14.68-9.89-21.92-1.1-2.32-2.12-4.77-3.48-6.95-2.57-4.11-8.31-5.65-11.76-1.6-1.65,1.93-2.4,4.35-1.98,6.85.38,2.29,1.15,4.56,1.96,6.74.51,1.39,1.85,2.33,3.37,1.91,1.33-.37,2.42-1.97,1.91-3.37-.64-1.74-1.21-3.51-1.65-5.31-.09-.38-.18-.77-.26-1.15-.11-.53-.09.16-.03-.22.07-.5.25-1.16.64-1.68,1.56-2.04,3.12.61,3.81,1.94,2.87,5.52,5.39,11.23,7.95,16.89,1.59,3.53,3.16,7.07,4.68,10.63.58,1.36,2.58,1.66,3.74.98,1.41-.82,1.56-2.38.98-3.74h0Z"/><path class="cls-1" d="M99.48,186.77c-2.02-5.58-4.2-11.1-6.53-16.56-.84-1.96-1.66-3.95-2.76-5.78-1.9-3.17-3.8-6.24-7.83-6.58-4.45-.38-7.55,3.29-7.27,7.61.16,2.51,1.15,4.8,2.07,7.1,1.88,4.67,3.79,9.32,5.68,13.99,1.29,3.2,2.55,6.41,3.81,9.62.54,1.37,1.83,2.33,3.37,1.91,1.31-.36,2.46-1.98,1.91-3.37-2.58-6.54-5.21-13.05-7.85-19.56-.74-1.82-1.48-3.63-2.2-5.45-.55-1.36-2.51-5.3-.76-6.33.55-.33,1.4-.08,1.79.16,1.07.66,1.69,2.24,2.32,3.26,1.03,1.67,1.82,3.46,2.61,5.26,2.32,5.31,4.41,10.73,6.38,16.17.5,1.39,1.86,2.32,3.37,1.91,1.34-.37,2.42-1.97,1.91-3.37h0Z"/><path class="cls-1" d="M92.63,196.13c-1.82-2.92-3.7-5.81-5.53-8.73-1.71-2.73-3.11-5.83-5.14-8.33-1.84-2.25-5.05-3.63-7.92-2.67-3.02,1.02-4.65,4.29-4.3,7.34.37,3.31,2.11,6.17,3.58,9.09s3.08,5.95,4.62,8.92c2.62,5.03,5.15,10.1,7.7,15.16,1.13,2.24,2.23,4.5,3.29,6.77.47,1,.93,1.99,1.38,3,.2.45.41.91.61,1.36.1.24.21.47.31.71.03.08.35.82.17.39.26.63.52,1.26.75,1.9.08.22.14.45.22.66.39.96-.09-1.01.04.1.32,2.77,1.83,5.19,4.39,6.41,2.32,1.11,4.74.69,7.19.5,3.35-.26,6.7-.52,10.05-.78,2.66-.21,5.34-.37,8-.62s4.85-1.35,6.32-3.57c.99-1.5,1.27-3.37,1.69-5.09.84-3.42-4.43-4.88-5.28-1.45-.44,1.8-.55,4.32-2.8,4.64-1.95.28-3.97.31-5.93.46-5.08.39-10.17.84-15.26,1.18-.94.06-1.78-.03-2.42-.82s-.55-1.96-.88-2.92c-1.17-3.38-2.79-6.66-4.32-9.88-4.35-9.17-9.12-18.15-13.77-27.16-1.45-2.82-3.37-5.73-4.11-8.83-.16-.68-.34-1.97.49-2.34.54-.24,1.44.45,1.78.79.86.85,1.38,2.12,1.99,3.15.91,1.57,1.86,3.13,2.83,4.67,1.83,2.92,3.71,5.8,5.53,8.73s6.59.24,4.72-2.76h0Z"/><path class="cls-1" d="M124.51,230.18c4.28-3.14,8.67-6.31,11.29-11.07,2.9-5.27,4.25-11.29,5.8-17.05.75-2.78,1.47-5.58,1.9-8.42.38-2.52.63-5.02-.74-7.32s-3.78-2.75-6.17-2.52c-2.82.27-4.48,2.17-5.92,4.46s-2.62,4.93-4.13,7.28c-1.03,1.6-2.28,3.61-4.33,3.24-1.7-.31-2.13-2.26-2.26-3.75-.18-2.13-.28-4.8,1.44-6.37,1.56-1.42,2.48-.77,4.37-.18,2.13.66,4.34,1.28,6.52.48,4.39-1.6,6.74-7.8,2.83-11.14-1.96-1.68-4.39-2.73-6.59-4.06-2.85-1.72-5.65-2.93-9.05-2.4-5.94.91-10.74,6.22-13.99,10.94-.84,1.22-.23,3.04.98,3.74,1.36.79,2.9.24,3.74-.98,1.24-1.8,2.74-3.31,4.28-4.85s3.48-3.04,5.77-3.46,4.06.88,5.89,1.98c1.66,1,3.55,1.78,5.09,2.97.42.33.4.33.57.56-.07-.09-.16-.28-.15-.4,0,.07-.06.5.04.13-.19.73-.26,1.09-.72,1.51-.38.34-.78.45-1.44.38.34.04-.56-.15-.69-.19-.55-.14-1.1-.31-1.64-.48-2.01-.63-3.88-1.26-6-.62-2.34.7-4.38,2.46-5.5,4.63-2.08,4.04-1.98,10.66.97,14.29,3.18,3.91,9.05,3.4,12.25-.14s4.73-8.67,7.88-12.12c-.12.13-.06.01.26,0,.3-.02.82-.02.99,0-.27-.04.4.08.39.1l.13.04c-.28,0-.46-.1-.55-.29.08-.07.36,1.11.36,1.07.2,1.92-.54,4.23-.97,6.11-1.37,5.95-2.82,12.2-5.25,17.81-1.05,2.41-2.37,4.53-4.24,6.38s-4.04,3.42-6.18,4.99c-1.19.87-1.78,2.37-.98,3.74.69,1.17,2.54,1.86,3.74.98h0Z"/><path class="cls-1" d="M88.55,239.73c-.87,9.75-2.11,19.46-3.07,29.2-.76,7.72-1.57,15.52-.93,23.28,1,12.02,4.97,24.78,14.39,32.89,5.73,4.94,12.74,7.51,20.23,8.22,1.47.14,2.74-1.36,2.74-2.74,0-1.59-1.26-2.6-2.74-2.74-5.62-.53-11.24-2.51-15.59-5.98-4.32-3.44-7.41-7.95-9.6-13.01-5.16-11.9-4.43-24.97-3.25-37.68.98-10.49,2.34-20.95,3.28-31.45.13-1.47-1.35-2.74-2.74-2.74-1.59,0-2.6,1.26-2.74,2.74h0Z"/><g id="pc"><path class="cls-5" d="M207.14,250.72c-34.67.25-69.17.45-81.42.49-1.95,0-3.52,1.59-3.51,3.54.07,19.9,1.03,88.78,1.76,114.09.06,1.93,1.65,3.45,3.59,3.42,11.07-.17,45.36-.07,79.58.05,34.22-.12,68.51-.22,79.58-.05,1.93.03,3.53-1.49,3.59-3.42.73-25.32,1.69-94.19,1.76-114.09,0-1.95-1.56-3.53-3.51-3.54-12.25-.04-46.75-.24-81.42-.49Z"/><path class="cls-1" d="M125.72,248.48c-2.2.13-4.28,1.14-5.4,3.11-.76,1.34-.85,2.78-.84,4.28,0,1.9.02,3.79.04,5.69.04,5.15.1,10.31.16,15.46.15,13.25.34,26.5.54,39.75s.42,25.66.69,38.49c.06,2.59.11,5.18.18,7.77.06,2.28-.2,4.89.32,7.11.74,3.15,3.53,4.88,6.63,4.86.71,0,1.43-.01,2.14-.02,5.9-.04,11.79-.05,17.69-.06,9.39-.02,18.79-.03,28.18-.03,11.03,0,22.07-.01,33.1-.01s21.95,0,32.92.01c9.06,0,18.12.02,27.19.04,5.34.01,10.69.02,16.03.06,1.17,0,2.31.06,3.44-.3,1.99-.64,3.59-2.34,4.11-4.36.32-1.24.23-2.62.27-3.89.13-5.05.24-10.1.35-15.15.27-13.2.49-26.41.69-39.61.19-12.94.37-25.88.51-38.82.05-4.72.1-9.44.13-14.16.02-2.25.37-4.89-.74-6.93-1.31-2.39-3.71-3.27-6.29-3.27-5.02-.01-10.03-.01-15.05-.02-8.86,0-17.72,0-26.57,0-10.93,0-21.86,0-32.8,0s-22.5,0-33.75,0c-9.77,0-19.55,0-29.32,0-6.63,0-13.27,0-19.9.01-1.54,0-3.09,0-4.63,0-3.52.01-3.53,5.48,0,5.47,4.31-.01,8.62-.01,12.93-.02,8.2,0,16.41,0,24.61-.01,10.46,0,20.92,0,31.37,0,11.07,0,22.15,0,33.22,0,10.05,0,20.1,0,30.14,0,7.38,0,14.77,0,22.15.01,2.18,0,4.36,0,6.54,0,.58,0,1.29-.11,1.87,0,1.32.26.77,3.03.76,4.11-.07,10.47-.2,20.95-.33,31.42-.17,13.4-.37,26.8-.6,40.2-.19,11.49-.4,22.98-.69,34.47-.03,1.06-.05,2.12-.08,3.18-.02.69.21,1.79-.5,2.13-.47.22-1.41.05-1.94.05-2.07-.02-4.13-.03-6.2-.03-7.23-.03-14.46-.04-21.69-.05-9.96-.01-19.91-.02-29.87-.03-10.99,0-21.99,0-32.98,0-10.35,0-20.69,0-31.04.02-8.01,0-16.02.02-24.04.04-2.6,0-5.21.02-7.81.03-.86,0-1.72,0-2.58.02-.55,0-1.56.17-1.95-.16-.57-.48-.33-1.78-.35-2.47-.03-1.08-.06-2.15-.08-3.23-.06-2.45-.12-4.91-.17-7.36-.13-5.86-.24-11.72-.35-17.58-.24-13.39-.45-26.78-.63-40.18-.16-11.56-.31-23.12-.41-34.68-.02-1.97-.03-3.93-.05-5.9,0-.93-.55-3.94.76-4.01,3.5-.2,3.52-5.67,0-5.47Z"/><path class="cls-1" d="M138.78,360.37c16.72-.1,33.44-.02,50.16.04,20.26.06,40.51-.03,60.77-.06,8-.01,16-.02,23.99.03,3.52.02,3.53-5.45,0-5.47-16.34-.1-32.69-.01-49.03.04-20.46.06-40.92-.03-61.38-.06-8.17-.01-16.35-.02-24.52.03-3.52.02-3.53,5.49,0,5.47h0Z"/><path class="cls-1" d="M196.77,301c0,2.14,0,4.28,0,6.43,0,2.42-.33,5.07,1.55,6.93s4.32,1.51,6.66,1.51c2.11,0,4.22,0,6.33,0,1.24,0,2.44-.05,3.55-.67,1.2-.67,2.19-1.91,2.49-3.26.25-1.14.17-2.36.17-3.53s0-2.26,0-3.38c0-1.03,0-2.06,0-3.09,0-1.29-.07-2.54-.78-3.67-.81-1.27-2.14-2.17-3.63-2.37-.98-.13-1.98-.08-2.97-.08-2.35,0-4.71,0-7.06,0-1.37,0-2.72.04-3.91.84-1.5,1.01-2.3,2.56-2.38,4.36-.06,1.43,1.3,2.8,2.74,2.74,1.54-.07,2.67-1.2,2.74-2.74.03-.7-.16.55.04-.09l-.11.29c.16-.25.14-.23-.08.07.18-.11.3-.14-.1.04.57-.26-.56,0,.08-.05-.77.07.28.02.47.02.42,0,.85,0,1.27,0,1.75,0,3.5,0,5.26,0,.82,0,1.64,0,2.45,0,.23,0,.78-.09.99,0l-.32-.03c.29.09.26.08-.09-.05.56.23-.39-.23.07.06l-.18-.24c.15.26.14.23,0-.12.2.62.06-.59.04.09,0,.35,0,.7,0,1.05,0,.87,0,1.74,0,2.61,0,1.8,0,3.59-.01,5.39,0,.08.05.6,0,.65l.06-.31c-.02.13-.06.27-.11.4.12-.11.08-.53,0-.12l.18-.24c-.22.2-.19.19.1-.04-.63.16.43-.07.02.02s.69.03,0,0c-.4-.01-.79,0-1.19,0-1.72,0-3.44,0-5.17,0-.84,0-1.69,0-2.53,0-.34,0-.68,0-1.03,0-.14,0-.47.06-.59,0,.35.05.42.05.22,0-.19-.06-.13-.03.19.08-.62-.26.47.31-.07-.06.21.3.24.32.08.07l.11.29-.06-.19c-.07-.3-.06-.27.01.11-.08-.07,0-.75,0-.87,0-.97,0-1.93,0-2.9,0-1.97,0-3.95,0-5.92,0-1.43-1.26-2.8-2.74-2.74s-2.73,1.2-2.74,2.74Z"/></g><g id="document"><path class="cls-5" d="M355.17,262.15c0,.83,0,25.71,0,36.2,3.24,0,10.36,0,19.72,0h137.9c0-1.38,0-2.15,0-2.15,0-11,0-23.17,0-34.05-60.44,0-154.37,0-157.63,0Z"/><path class="cls-5" d="M355.78,220.69v-11.95c3.46,0,130.6,0,157.62,0v11.95c1.96,0,3.23,0,3.23,0,0,0,0,4.74,0,10.87-28.7,0-93.64,0-140.35,0-6.61,0-13.48,0-17.27,0v-10.87h-3.23Z"/><path class="cls-5" d="M522.36,318.79c0,15.29,0,35.96,0,51.26h-157.62c0-15.89,0-37.16,0-53.05,1.59,0,4.01,0,10.16,0"/><path class="cls-2" d="M519.62,318.79c0,17.09,0,34.17,0,51.26l2.74-2.74h-151.18c-2.03,0-4.14-.16-6.16,0-.09,0-.18,0-.27,0l2.74,2.74c0-17.68,0-35.37,0-53.05l-2.74,2.74c3.39,0,6.77,0,10.16,0s3.53-5.47,0-5.47-6.77,0-10.16,0c-1.48,0-2.74,1.25-2.74,2.74,0,17.68,0,35.37,0,53.05,0,1.48,1.25,2.74,2.74,2.74h138.21c6.37,0,12.78.21,19.14,0,.09,0,.18,0,.27,0,1.48,0,2.74-1.25,2.74-2.74,0-17.09,0-34.17,0-51.26,0-3.52-5.47-3.53-5.47,0h0Z"/><path class="cls-2" d="M376.57,346.25c6.02,0,12.03,0,18.05,0,9.9,0,19.79,0,29.69,0h34.07c10.21,0,20.42,0,30.63,0,6.65,0,13.29,0,19.94,0h1.35c3.52,0,3.53-5.47,0-5.47-6.02,0-12.03,0-18.05,0h-29.69c-11.36,0-22.71,0-34.07,0-10.21,0-20.42,0-30.63,0-6.65,0-13.29,0-19.94,0h-1.35c-3.52,0-3.53,5.47,0,5.47h0Z"/><path class="cls-2" d="M376.57,333.35c6.02,0,12.03,0,18.05,0h29.69c11.36,0,22.71,0,34.07,0,10.21,0,20.42,0,30.63,0,6.65,0,13.29,0,19.94,0h1.35c3.52,0,3.53-5.47,0-5.47-6.02,0-12.03,0-18.05,0-9.9,0-19.79,0-29.69,0-11.36,0-22.71,0-34.07,0-10.21,0-20.42,0-30.63,0-6.65,0-13.29,0-19.94,0h-1.35c-3.52,0-3.53,5.47,0,5.47h0Z"/><path class="cls-2" d="M376.57,359.04c5.52,0,11.04,0,16.56,0h28.6c10.92,0,21.83,0,32.75,0,9.86,0,19.71,0,29.57,0,6.16,0,12.33,0,18.49,0h1.19c3.52,0,3.53-5.47,0-5.47-5.52,0-11.04,0-16.56,0h-28.6c-10.92,0-21.83,0-32.75,0-9.86,0-19.71,0-29.57,0-6.16,0-12.33,0-18.49,0h-1.19c-3.52,0-3.53,5.47,0,5.47h0Z"/><path class="cls-2" d="M374.9,316.99v-18.64c2.39,0,154.39,0,156.54,0,0,.48,0,12.74,0,18.64h-156.54Z"/><path class="cls-2" d="M377.63,316.99v-18.64l-2.74,2.74c5.43,0,10.87,0,16.3,0,12.39,0,24.78,0,37.17,0,14.83,0,29.66,0,44.49,0,12.91,0,25.82,0,38.74,0,4.31,0,8.63,0,12.94,0,2.16,0,4.35.12,6.5,0,.13,0,.27,0,.4,0l-2.74-2.74c0,6.21,0,12.43,0,18.64l2.74-2.74h-140.98c-5.1,0-10.25-.19-15.35,0-.07,0-.15,0-.22,0-3.52,0-3.53,5.47,0,5.47h156.54c1.48,0,2.74-1.25,2.74-2.74,0-6.21,0-12.43,0-18.64,0-1.48-1.25-2.74-2.74-2.74-5.4,0-10.79,0-16.19,0-12.37,0-24.74,0-37.11,0-14.83,0-29.66,0-44.49,0-12.93,0-25.86,0-38.79,0-6.51,0-13.04-.15-19.55,0-.14,0-.28,0-.42,0-1.48,0-2.74,1.25-2.74,2.74v18.64c0,3.52,5.47,3.53,5.47,0Z"/><path class="cls-2" d="M510.06,263.59c0,10.87,0,21.75,0,32.62,0,3.52,5.47,3.53,5.47,0,0-10.87,0-21.75,0-32.62,0-3.52-5.47-3.53-5.47,0h0Z"/><path class="cls-2" d="M368.2,277.07c5.61,0,11.22,0,16.83,0,9.94,0,19.88,0,29.82,0,11.44,0,22.88,0,34.32,0,10.28,0,20.57,0,30.85,0,6.3,0,12.59,0,18.89,0h1.1c3.52,0,3.53-5.47,0-5.47-5.61,0-11.22,0-16.83,0-9.94,0-19.88,0-29.82,0-11.44,0-22.88,0-34.32,0-10.28,0-20.57,0-30.85,0-6.3,0-12.59,0-18.89,0h-1.1c-3.52,0-3.53,5.47,0,5.47h0Z"/><path class="cls-2" d="M368.2,288.9c5.61,0,11.22,0,16.83,0h29.82c11.44,0,22.88,0,34.32,0h30.85c6.3,0,12.59,0,18.89,0h1.1c3.52,0,3.53-5.47,0-5.47-5.61,0-11.22,0-16.83,0-9.94,0-19.88,0-29.82,0-11.44,0-22.88,0-34.32,0-10.28,0-20.57,0-30.85,0-6.3,0-12.59,0-18.89,0h-1.1c-3.52,0-3.53,5.47,0,5.47h0Z"/><path class="cls-2" d="M374.9,259.42c-6.57,0-13.15,0-19.72,0-1.47,0-2.75,1.25-2.74,2.74.08,9.18,0,18.36,0,27.54,0,2.89,0,5.78,0,8.67,0,1.48,1.25,2.74,2.74,2.74,6.57,0,13.14,0,19.72,0,3.52,0,3.53-5.47,0-5.47-6.57,0-13.14,0-19.72,0l2.74,2.74c0-10.84,0-21.69,0-32.53,0-1.22,0-2.45,0-3.67l-2.74,2.74c6.57,0,13.15,0,19.72,0,3.52,0,3.53-5.47,0-5.47h0Z"/><path class="cls-2" d="M363.72,188.9c61.63,0,154.99,0,154.99,0v19.84c-62.04,0-154.99,0-154.99,0,0-1.66,0-10.99,0-19.84Z"/><path class="cls-2" d="M510.66,208.74v11.95c0,1.43,1.26,2.8,2.74,2.74s2.74-1.2,2.74-2.74v-11.95c0-1.43-1.26-2.8-2.74-2.74s-2.74,1.2-2.74,2.74h0Z"/><path class="cls-2" d="M490.27,217.95h-134.5l2.74,2.74v-11.95l-2.74,2.74c5.3,0,10.6,0,15.89,0,3.52,0,3.53-5.47,0-5.47-5.3,0-10.6,0-15.89,0-1.48,0-2.74,1.25-2.74,2.74v11.95c0,1.48,1.25,2.74,2.74,2.74h134.5c3.52,0,3.53-5.47,0-5.47h0Z"/><path class="cls-2" d="M356.27,220.69v10.87c0,1.48,1.25,2.74,2.74,2.74,5.76,0,11.51,0,17.27,0,1.43,0,2.8-1.26,2.74-2.74s-1.2-2.74-2.74-2.74c-5.76,0-11.51,0-17.27,0l2.74,2.74v-10.87c0-1.43-1.26-2.8-2.74-2.74s-2.74,1.2-2.74,2.74h0Z"/><path class="cls-2" d="M448.27,191.64c22.02,0,44.05,0,66.07,0,1.46,0,2.91,0,4.37,0l-2.74-2.74v19.84l2.74-2.74c-26.5,0-53.01,0-79.51,0-21.12,0-42.24,0-63.37,0-4.04,0-8.08,0-12.11,0l2.74,2.74c0-6.61,0-13.23,0-19.84l-2.74,2.74c11.72,0,23.43,0,35.15,0,3.52,0,3.53-5.47,0-5.47-11.72,0-23.43,0-35.15,0-1.48,0-2.74,1.25-2.74,2.74,0,6.61,0,13.23,0,19.84,0,1.48,1.25,2.74,2.74,2.74,11.73,0,23.46,0,35.2,0,25.27,0,50.54,0,75.8,0,14.66,0,29.33,0,43.99,0,1.48,0,2.74-1.25,2.74-2.74v-19.84c0-1.48-1.25-2.74-2.74-2.74-15.37,0-30.74,0-46.12,0-8.11,0-16.22,0-24.33,0-3.52,0-3.53,5.47,0,5.47h0Z"/><path class="cls-2" d="M398.87,191.64c16.47,0,32.93,0,49.4,0,3.52,0,3.53-5.47,0-5.47-16.47,0-32.93,0-49.4,0-3.52,0-3.53,5.47,0,5.47h0Z"/><path class="cls-2" d="M376.27,231.56c61.63,0,154.99,0,154.99,0v30.59c-62.04,0-154.99,0-154.99,0,0-1.66,0-21.74,0-30.59Z"/><path class="cls-2" d="M376.27,234.29c26.41,0,52.81,0,79.22,0,21.2,0,42.4,0,63.6,0,4.06,0,8.11,0,12.17,0l-2.74-2.74v30.59l2.74-2.74c-26.5,0-53.01,0-79.51,0-21.12,0-42.24,0-63.37,0-4.04,0-8.08,0-12.11,0l2.74,2.74c0-10.2,0-20.4,0-30.59,0-3.52-5.47-3.53-5.47,0,0,10.2,0,20.4,0,30.59,0,1.48,1.25,2.74,2.74,2.74,11.73,0,23.46,0,35.2,0,25.27,0,50.54,0,75.8,0,14.66,0,29.33,0,43.99,0,1.48,0,2.74-1.25,2.74-2.74v-30.59c0-1.48-1.25-2.74-2.74-2.74-11.74,0-23.48,0-35.22,0-25.31,0-50.61,0-75.92,0-14.62,0-29.23,0-43.85,0-3.52,0-3.53,5.47,0,5.47Z"/><path class="cls-5" d="M400.94,235.93v21.41c0,3.52,5.47,3.53,5.47,0v-.82c0-3.52-5.47-3.53-5.47,0v.82c0,3.52,5.47,3.53,5.47,0v-21.41c0-3.52-5.47-3.53-5.47,0h0Z"/><path class="cls-5" d="M389.2,236.11v21.04c0,3.52,5.47,3.53,5.47,0v-21.04c0-3.52-5.47-3.53-5.47,0h0Z"/><path class="cls-5" d="M519.25,243.88v5.95c0,1.97-1.6,3.57-3.57,3.57h-43.51c-1.97,0-3.57-1.59-3.57-3.56,0-1.83,0-4.07,0-5.96s1.59-3.56,3.56-3.56c7.9,0,25.49,0,43.51,0,1.97,0,3.57,1.6,3.57,3.57Z"/><path class="cls-2" d="M504.56,223.42h12.06l-2.74-2.74v9.44c0,1.43,1.26,2.8,2.74,2.74s2.74-1.2,2.74-2.74v-9.44c0-1.48-1.25-2.74-2.74-2.74h-12.06c-1.43,0-2.8,1.26-2.74,2.74s1.2,2.74,2.74,2.74h0Z"/></g><g id="cloud"><path class="cls-5" d="M485.79,61.06c-13.18-18.86-35.11-31.34-61.95-31.34-44.62,0-75.49,34.59-75.49,75.04v.74c.31,41.58,27.32,71.09,66.09,75.2,3.12,6.24,5.68,11.02,9.41,17.54,3.53-6.48,6.41-11.48,9.4-17.51,23.32-2.33,41.78-13.38,53.15-30.39,8.37-12.39,12.95-27.95,12.95-45.59,0-16.16-4.89-31.31-13.56-43.7Z"/><path class="cls-3" d="M396.43,78.1c-2.15,2.75-3.37,6.23-3.37,9.93,0,.78.06,1.54.15,2.28-9.29.35-15.65,7.69-15.65,16.24,0,9.81,6.83,16.56,16.36,16.56h56.29c12.68,0,20.95-8.73,20.95-21.21,0-9.57-6.18-17.87-15.57-20.18-.24-12.13-9.55-22.25-22.85-22.25-9.67,0-17.21,5.36-20.71,12.91-.95-.16-1.93-.26-2.95-.26-5.38,0-9.82,2.37-12.64,5.98Z"/><path class="cls-1" d="M450.2,125.85c8.71-.06,17.13-4.19,21.07-12.23,3.95-8.08,3.54-18.45-1.9-25.76-3.24-4.36-7.78-7.42-13.05-8.78l2.01,2.64c-.24-8.62-4.57-16.75-12-21.29-7.94-4.84-18.59-4.93-26.64-.31-4.35,2.49-7.87,6.35-10.02,10.87l3.09-1.26c-5.92-.94-11.84.37-16.37,4.41-4.52,4.03-6.56,10.21-5.91,16.16l2.74-2.74c-5.1.25-10.04,2.26-13.49,6.11-3.29,3.69-5.04,8.53-4.89,13.47s1.9,9.76,5.4,13.28,8.11,5.19,12.9,5.39c2.75.11,5.53.02,8.28.02,3.52,0,3.53-5.47,0-5.47-5.21,0-10.9.72-15.48-2.28-6.14-4.03-7.27-13.24-3.34-19.23,2.35-3.58,6.39-5.61,10.62-5.82,1.35-.07,2.9-1.2,2.74-2.74-.49-4.5.65-8.87,4.02-12.03,3-2.81,7.32-3.91,11.34-3.27,1.12.18,2.54-.1,3.09-1.26,3.22-6.79,9.69-11.2,17.24-11.53,7.03-.3,13.98,2.7,17.89,8.69,2.11,3.24,3.22,6.94,3.33,10.8.03,1.19.83,2.33,2.01,2.64,7.17,1.84,12.5,7.76,13.43,15.14.82,6.61-1.55,13.93-7.06,17.69-3.27,2.23-7.08,3.16-11.03,3.19-3.52.03-3.53,5.5,0,5.47h0Z"/><path class="cls-7" d="M424.78,110.8c-4.06,4.84-13,15.49-16.73,19.94-.55.65-.09,1.64.76,1.64,2.6,0,6.9,0,8.83,0,.55,0,.99.45.99,1v18.97c0,.55.45,1,1,1h12.06c.55,0,1-.45,1-1v-18.97c0-.55.45-1,1-1h8.58c.85,0,1.31-.99.77-1.64-5.57-6.64-11.15-13.29-16.72-19.93-.4-.48-1.13-.48-1.53,0Z"/><path class="cls-1" d="M422.85,108.87c-3.97,4.74-7.95,9.47-11.92,14.21-.94,1.12-1.89,2.25-2.83,3.37-.82.98-1.85,1.96-2.49,3.06-1.18,2.01-.14,4.81,2.14,5.45,1.61.45,3.64.15,5.3.15.83,0,1.65,0,2.48,0,.36,0,.72,0,1.08,0,.18,0,.46.07.62,0,.72-.3-1.61-1.26-1.33-1.72-.11.18,0,.79,0,1v17.38c0,2.36,1.35,4.2,3.84,4.32,1.64.08,3.3,0,4.94,0h6.22c2.41,0,4.39-1.19,4.53-3.82.18-3.54,0-7.13,0-10.68v-6.14c0-.54.09-1.18,0-1.72-.01-.08.04-.25,0-.32.36.58-2.67,1.48-1.4,1.71.84.16,1.86,0,2.71,0h3.39c.68,0,1.38.04,2.07,0,1.94-.1,3.66-1.41,3.77-3.46.13-2.31-1.99-4.04-3.36-5.67-1.51-1.81-3.03-3.61-4.54-5.42-3.09-3.68-6.18-7.37-9.27-11.05-1.66-1.98-3.9-2.35-5.94-.65-1.14.95-.98,2.89,0,3.87,1.12,1.12,2.73.95,3.87,0l.27-.23-1.21.7h-.48c-.4-.23-.8-.47-1.21-.7,1.62,1.35,2.91,3.38,4.27,4.99s2.79,3.32,4.18,4.98,2.79,3.32,4.18,4.98c.73.87,1.45,1.73,2.18,2.6.3.36.61.72.91,1.08.18.22.36.43.55.65.45.62.49.57.12-.15l.37-1.38c.85-1.81,1.93-.52,1.22-.63-.18-.03-.4,0-.59,0h-2.01c-1.48,0-2.97,0-4.45,0s-2.95.01-4.08,1.21c-.87.92-.99,2.09-.99,3.28v16.42c0,.37-.2,1.45,0,1.77-.14-.22,2-1.56,1.66-1.71-.09-.04-.23.01-.32,0-.47-.07-1.01,0-1.48,0h-8.79c-.38,0-.8-.05-1.18,0-1.08.16,1.35,2.57,1.53,1.6.13-.69,0-1.52,0-2.21v-8.98c0-2.49.12-5.02,0-7.51-.13-2.7-2.09-3.87-4.6-3.87-1.31,0-2.63,0-3.94,0-.71,0-1.42,0-2.13,0-.27,0-.53,0-.8,0h-.38c-.76-.06-.53.15.69.64l.37,1.38c.03.27-.87,1.2-.21.55.12-.12.23-.27.34-.41.28-.33.56-.67.84-1,.68-.81,1.36-1.62,2.04-2.44,1.54-1.84,3.08-3.67,4.62-5.51,2.83-3.37,5.66-6.75,8.49-10.12.95-1.13,1.11-2.76,0-3.87-.98-.98-2.91-1.14-3.87,0Z"/><path class="cls-1" d="M488.15,59.68c-6.21-8.83-14.14-16.32-23.44-21.83-9.83-5.82-20.88-9.24-32.21-10.42-21.04-2.19-42.53,3.64-58.96,17.09-15.2,12.44-24.77,30.7-27.27,50.08-2.55,19.77,1.85,41.14,13.33,57.58,11.08,15.85,28.14,26.45,47.07,30.11,2.57.5,5.16.86,7.76,1.15l-2.36-1.36c2.98,5.93,6.12,11.77,9.41,17.54,1,1.75,3.74,1.81,4.72,0,3.17-5.81,6.44-11.58,9.4-17.51l-2.36,1.36c19.91-2.04,38.95-10.66,51.64-26.49,13.77-17.18,19.3-40.36,16.59-62.08-1.58-12.62-6.05-24.76-13.32-35.23-.84-1.21-2.4-1.77-3.74-.98-1.2.7-1.83,2.52-.98,3.74,13.86,19.95,16.6,45.83,9.21,68.79-6.44,20.02-21.61,35.98-41.55,42.87-5.8,2-11.76,3.18-17.85,3.91-2.38.29-3,2.64-3.97,4.52-.79,1.53-1.6,3.05-2.42,4.56-1.77,3.27-3.59,6.52-5.37,9.79h4.72c-1.68-2.94-3.33-5.89-4.93-8.88-.75-1.4-1.49-2.8-2.22-4.21s-1.38-3.08-2.26-4.45c-.98-1.52-2.74-1.37-4.33-1.59-1.26-.17-2.53-.38-3.78-.61-2.46-.46-4.9-1.03-7.3-1.71-8.99-2.57-17.56-6.85-24.8-12.8-15.09-12.41-23.61-30.84-25.2-50.15-1.6-19.5,3.62-39.28,16.29-54.43,12.83-15.36,31.65-24.36,51.57-25.44,11.51-.62,23.09,1.12,33.77,5.5,9.82,4.03,18.62,10.4,25.65,18.33,1.7,1.92,3.28,3.92,4.75,6.02.85,1.21,2.39,1.77,3.74.98,1.19-.7,1.84-2.53.98-3.74Z"/></g></g></svg>