<?xml version="1.0" encoding="UTF-8"?><svg id="_圖層_1" xmlns="http://www.w3.org/2000/svg" viewBox="0 0 600 400"><defs><style>.cls-1,.cls-2,.cls-3,.cls-4{fill:#444;}.cls-5{fill:#5199d1;}.cls-2{stroke-width:2.47px;}.cls-2,.cls-3,.cls-4{stroke:#444;}.cls-2,.cls-4{stroke-miterlimit:10;}.cls-6{fill:#645d5c;}.cls-7{fill:#fff;}.cls-3{stroke-linecap:round;stroke-linejoin:round;}.cls-3,.cls-4{stroke-width:2.3px;}.cls-8{fill:#b3b3b3;}.cls-9{fill:#45b873;}.cls-10{fill:#3d8dcc;}.cls-11{fill:#ececec;}</style></defs><path class="cls-9" d="M495.33,126.71c-3.61-28.18-41.32-38.84-63.96-26-34.04,19.24-19.7,59.81,15.36,64.46l.47.09c1.11.22,1.4.52,1.48.64.14.22.07.66.01.9-.48,2.02-1.08,3.98-.69,6.24,1.15,6.05,7.51,3.07,10.72.97,4.07-2.39,7.9-5.08,10.78-7.16,13.64-9.5,28.03-21.32,25.82-40.13Z"/><path class="cls-7" d="M437.99,139.46h-7.21c-1.09,0-1.98-.9-1.98-1.99v-15.13c0-2.59,3.84-2.6,4.01,0v13.11h5.17c2.6.17,2.61,4.01,0,4.01Z"/><path class="cls-7" d="M445.52,137.42c0,2.6-3.84,2.61-4.01,0v-15.13c.17-2.6,4.01-2.61,4.01,0v15.13Z"/><path class="cls-7" d="M463.34,137.42c.06,1.85-2.5,2.7-3.55,1.16l-7.08-9.78v8.62c-.17,2.6-3.84,2.61-4.01,0v-14.7c0-1.87,2.51-2.7,3.58-1.16l7.12,9.78v-9.06c0-2.6,3.88-2.61,3.95,0,0,0,0,15.13,0,15.13Z"/><path class="cls-7" d="M477.72,139.13h-9.76c-1.09,0-1.97-.91-1.97-2,0-3.77,0-11.34,0-15.11,0-1.09.88-1.95,1.97-1.95h9.46c2.6,0,2.6,3.84,0,3.84h-7.49v3.68h6.07c2.6,0,2.6,3.85,0,3.85h-6.07v3.68h7.79c2.6,0,2.61,3.84,0,4.01Z"/><g id="group"><path class="cls-7" d="M358.09,121.34c1.52-1.46,3.56-2.01,5.32-1.95,3.81.13,5.43,2.2,6.13,3.41,2.08,3.61,1.99,10.27.6,14.39-.99,2.92-2.61,7.38-6.52,10.58-1.61,1.32-3.98,2.19-6.25,1.8,0,0-.15-.03-.43-.07-.74,2.16-1.67,4.08-1.98,5.03-1.52,4.11-9.64,18.16-20.06,24.4v2.95c-.93.75-19.92,15.73-21.36,16.75h-3.35c-1.44-1.02-20.43-15.99-21.36-16.75v-2.84c-4.29-2.6-8.27-6.19-11.85-10.47-5.34-6.39-8.48-13.26-10.28-19.07-2.37.55-4.91-.34-6.6-1.73-3.91-3.2-5.53-7.66-6.52-10.58-1.4-4.12-1.49-10.77.6-14.39.7-1.21,2.32-3.27,6.13-3.41,1.75-.06,3.8.49,5.32,1.95,0,0-8.18-41.66,44.53-41.66s47.94,41.66,47.94,41.66Z"/><path class="cls-8" d="M281.75,203.6c-.97-3.99-1.9-7.96-2.79-11.88-2.6,1.67-6,4.08-9.31,6.79-13.24,4.07-23.63,8.11-35.55,15.68-4.65,2.95-8.59,7.01-11.61,11.67-3.66,5.64-6.43,13.26-7.99,19.85-1.8,7.61-2.63,11.84-4.32,21.98-2.9,17.57-4.7,31.27-6.2,55.57-.49,7.91.28,16.4,3.24,23.72,2.97,7.32,10.42,14.23,17.83,16.51,6.15,1.89,11.37,1.4,16.4-.56h129.16c.34-6.79,1.19-21.28,2.2-37.53.83,1.3,1.41,2.19,1.41,2.19,7.09,11.3,21.54,16.23,33.56,13.77,8.64-1.77,18.53-7.97,21.98-20.12,4.29-15.1,7.69-38.51,9.12-51.79.05-.49-.29-.91-.78-.97-4.66-.54-9.62-1.16-14.68-1.85-8.1-13.5-29.26-48.79-29.26-48.79-5.54-6.73-11.46-10.76-17.08-13.14-5.59-2.36-16.12-5.42-22.19-6.69,0,0-.7-.14-1.98-.41-2.94-2.34-5.87-4.4-8.17-5.87-4.95,21.98-11.42,45.49-18.38,66.86-5.42,16.65-7.02,21.73-14.52,40.09-7.49-18.36-9.09-23.44-14.51-40.09-5.72-17.56-11.11-36.57-15.59-54.98Z"/><path class="cls-7" d="M295.65,253.32c-5.68-17.94-10.97-37.13-15.28-55.51l-.06-1.33c-.72-1.94.21-4.62,1.47-6.08,2.14-2.48,4.85-6.08,7.04-8.53.93.75,19.92,15.73,21.36,16.75h3.35c1.44-1.02,20.43-15.99,21.36-16.75,2.19,2.45,4.89,6.04,7.04,8.53,1.26,1.46,2.19,4.15,1.47,6.08l.12.57c-4.77,20.42-10.75,41.88-17.15,61.53-5.42,16.65-7.02,21.74-14.52,40.09-7.49-18.36-9.09-23.44-14.51-40.09-.57-1.74-1.13-3.49-1.69-5.26Z"/><path class="cls-10" d="M302.36,236.55c1.16-8.23,1.97-14.12,1.96-14.68-.03-2.01-.64-3.98-1.24-5.9-.48-1.56-.71-3.32-1.57-5.09,0,0-.14-.3-.33-.74,3.06-4.12,6.75-9,9-11.53h3.35c2.26,2.54,5.96,7.44,9.03,11.57-.03.08-.04.13-.04.13-.64,2.62-.74,3.89-1.29,6.37-.1.5-.22,1-.34,1.49-.26,1.1-.51,2.21-.51,3.33,0,.63,2.83,22.42,4.92,40.4-4.59,14.1-6.46,19.69-13.44,36.77-6.84-16.78-8.77-22.47-13.19-36.03,1.29-9.12,2.65-18.58,3.7-26.09Z"/><path class="cls-1" d="M319.64,216.16c-4.95,0-9.9-.05-14.85-.05-1.24,0-2.43,1.09-2.37,2.37s1.04,2.37,2.37,2.37c4.95,0,9.9.05,14.85.05,1.24,0,2.43-1.09,2.37-2.37-.06-1.29-1.04-2.37-2.37-2.37h0Z"/><path class="cls-1" d="M320.23,209.68c-.45,1.9-.75,3.83-1.15,5.74-.42,1.99-1.15,4.08-1.07,6.13.05,1.36.32,2.74.48,4.08.86,6.94,1.73,13.88,2.58,20.82.6,4.93,1.2,9.85,1.77,14.78.15,1.27.98,2.37,2.37,2.37,1.17,0,2.52-1.09,2.37-2.37-.97-8.31-1.99-16.61-3.02-24.9-.6-4.81-1.41-9.65-1.79-14.49-.11-1.42.36-2.79.66-4.16.5-2.24.83-4.51,1.37-6.74.71-2.97-3.86-4.23-4.57-1.26h0Z"/><path class="cls-1" d="M301.18,261.65c1.19-8.42,2.4-16.83,3.58-25.25.43-3.05.86-6.09,1.27-9.14.23-1.69.54-3.4.65-5.1.11-1.75-.35-3.59-.83-5.26-.69-2.42-1.24-4.92-2.28-7.22-.53-1.17-2.22-1.45-3.24-.85-1.2.7-1.38,2.07-.85,3.24.83,1.82,1.18,3.94,1.74,5.86.39,1.33.8,2.73.73,4.13-.03.51-.11,1.02-.17,1.53-.05.38-.1.77-.15,1.15-.03.24-.06.48-.1.73-.05.35-.07.55-.07.53-.89,6.63-1.85,13.26-2.79,19.89-.69,4.84-1.38,9.67-2.06,14.51-.18,1.27.31,2.55,1.66,2.92,1.11.31,2.74-.38,2.92-1.66h0Z"/><path class="cls-1" d="M287.14,180.19c-1.36,1.54-2.64,3.14-3.93,4.74-1.27,1.58-2.73,3.09-3.87,4.77-1.77,2.6-2.25,6.03-.64,8.78,2.78,4.72,6,9.26,9.47,13.48,2.05,2.49,4.27,4.96,6.99,6.74,1.16.76,2.51.13,3.24-.85,4.41-5.89,8.56-12.05,13.43-17.56,1.08-1.22.81-2.8-.48-3.72-.29-.21-.57-.43-.86-.65-.11-.09-.23-.18-.34-.26,0,0,.35.27-.03-.02-.33-.26-.66-.51-.99-.77-1.67-1.3-3.34-2.61-5.01-3.92-3.59-2.82-7.18-5.64-10.77-8.47-.96-.76-1.93-1.51-2.88-2.28s-2.38-.97-3.35,0c-.83.83-1,2.55,0,3.35,6.04,4.87,12.17,9.62,18.29,14.39,1.18.92,2.34,1.86,3.55,2.73l-.48-3.72c-5.14,5.82-9.52,12.31-14.18,18.52l3.24-.85c-.8-.53-1.4-1.03-2.3-1.9-.97-.93-1.87-1.92-2.75-2.93-1.85-2.15-3.55-4.42-5.18-6.74-1.33-1.9-2.62-3.84-3.85-5.81-.35-.56-.72-1.12-1.02-1.7-.03-.06-.08-.13-.1-.19.19.49.06-.17.05-.33-.03-.69.2-1.42.49-2.04.78-1.61,2.27-2.98,3.38-4.36,1.37-1.71,2.73-3.42,4.19-5.06,2.02-2.28-1.32-5.64-3.35-3.35Z"/><path class="cls-1" d="M333.21,183.54c2.42,2.73,4.87,5.6,7.04,8.53.37.5.64,1.06.82,1.64.1.31.17.62.2.94.02.21-.04.92,0,.78.06-.23-.12.23-.19.34-.17.29-.34.58-.51.87-2.57,4.24-5.42,8.38-8.59,12.2-.97,1.17-1.98,2.31-3.05,3.39-.49.5-1,.98-1.53,1.43-.63.55-.55.48-1.25.94l3.24.85c-4.65-6.21-9.03-12.7-14.18-18.52l-.48,3.72c2.7-1.94,5.28-4.08,7.9-6.13,3.67-2.88,7.33-5.76,10.99-8.65.99-.78,1.98-1.55,2.95-2.34s.84-2.52,0-3.35c-.99-.99-2.35-.81-3.35,0-5.96,4.81-12.02,9.5-18.06,14.21-.38.3-.77.6-1.15.89-.17.13-.33.26-.5.39-.46.36.34-.26-.07.05-.36.28-.72.56-1.1.83-1.29.92-1.56,2.5-.48,3.72,4.88,5.52,9.02,11.68,13.43,17.56.74.98,2.07,1.62,3.24.85,5.05-3.3,8.79-8.76,12.18-13.63,1.39-1.99,2.74-4.02,3.99-6.1.39-.64.81-1.29,1.03-2.02.62-2.01.15-4.21-.71-6.07s-2.57-3.51-3.89-5.15c-1.5-1.87-2.99-3.75-4.58-5.55-2.03-2.29-5.37,1.08-3.35,3.35Z"/><path class="cls-1" d="M372.99,362.93c.64-12.65,1.44-25.3,2.23-37.95,1-16.13,2.03-32.25,3.14-48.37.42-6.01.83-12.02,1.33-18.03.11-1.28-1.17-2.37-2.37-2.37-1.37,0-2.26,1.09-2.37,2.37-1.08,12.72-1.85,25.47-2.68,38.2-1.05,16.1-2.06,32.19-3.01,48.3-.35,5.95-.71,11.89-1.01,17.84-.15,3.05,4.59,3.04,4.74,0h0Z"/><path class="cls-1" d="M296.55,295.57c-11.86-20.57-23.59-41.23-34.53-62.3-.41-.8-.83-1.59-1.24-2.39-.32-.63-.81-1.31-1.02-1.98-.15-.49-.05-.4.44-.93.58-.62,1.16-1.23,1.75-1.84,2.37-2.43,4.83-4.77,7.3-7.09,1.11-1.04.81-2.99-.48-3.72-1.57-.9-3.14-1.79-4.71-2.69-.71-.41-1.43-.82-2.14-1.22-.43-.24-.86-.49-1.29-.73l-.43-.24c-.35-.22-.32-.19.1.09l.32,1.2c-.14.3-.16.35-.06.15.06-.12.12-.23.18-.35.11-.2.22-.4.33-.59.24-.41.5-.81.77-1.2.58-.83,1.22-1.61,1.89-2.37,1.65-1.87,3.46-3.59,5.33-5.23,3.48-3.05,7.2-5.83,11.09-8.33l-3.48-1.42c6.46,28.64,14.58,56.98,24.3,84.69,2.32,6.62,4.9,13.16,7.53,19.66.48,1.19,1.58,2.02,2.92,1.66,1.13-.31,2.14-1.72,1.66-2.92-10.4-25.69-18.61-52.32-25.66-79.11-2.2-8.38-4.26-16.79-6.17-25.24-.33-1.46-2.23-2.22-3.48-1.42-5.8,3.73-11.45,8.04-16.22,13.05-1.2,1.25-2.32,2.58-3.35,3.97-.87,1.18-1.91,2.6-2.24,4.05-.62,2.73,2.07,3.88,4,4.98,2.14,1.22,4.29,2.45,6.43,3.67l-.48-3.72c-2.31,2.16-4.6,4.34-6.82,6.59-2.18,2.21-5.12,4.63-3.84,8.08,1.04,2.8,2.75,5.48,4.13,8.12s2.84,5.4,4.29,8.09c5.95,11.12,12.09,22.14,18.31,33.12,3.47,6.11,6.96,12.2,10.47,18.29,1.52,2.64,5.63.26,4.1-2.39h0Z"/><path class="cls-1" d="M331.26,297.97c12.46-21.6,24.78-43.3,36.18-65.49.84-1.64,1.71-3.24,1.18-5.14-.48-1.72-1.98-2.99-3.19-4.24-2.47-2.55-5.04-5-7.63-7.42l-.48,3.72c2.14-1.22,4.29-2.45,6.43-3.67,1.93-1.1,4.62-2.24,4-4.98-.33-1.45-1.37-2.88-2.24-4.05-1.03-1.4-2.15-2.72-3.35-3.97-4.77-5-10.42-9.31-16.22-13.05-1.25-.8-3.16-.04-3.48,1.42-6.46,28.64-14.58,56.98-24.3,84.69-2.32,6.62-4.9,13.16-7.53,19.66-.48,1.19.52,2.61,1.66,2.92,1.36.37,2.43-.46,2.92-1.66,10.4-25.69,18.61-52.32,25.66-79.11,2.2-8.38,4.26-16.79,6.17-25.24l-3.48,1.42c3.89,2.5,7.61,5.28,11.09,8.33,1.83,1.6,3.6,3.29,5.22,5.1.68.76,1.33,1.54,1.91,2.37.28.39.54.79.79,1.21.14.23.27.47.4.71l.12.23c.15.32.15.31,0-.03l.32-1.2c.38-.25.45-.31.22-.16-.18.11-.36.22-.55.32-.36.21-.71.41-1.07.61-.79.45-1.57.9-2.36,1.35-1.57.9-3.14,1.79-4.71,2.69-1.29.74-1.59,2.68-.48,3.72,2.19,2.06,4.38,4.13,6.49,6.26.49.49.97.99,1.46,1.49.37.39,1.41,1.18,1.58,1.68.08.24.06.21-.13.62-.33.74-.75,1.46-1.12,2.18-2.65,5.14-5.35,10.25-8.09,15.34-5.69,10.57-11.53,21.05-17.46,31.48-3.32,5.84-6.66,11.66-10.01,17.48-1.53,2.65,2.57,5.04,4.1,2.39h0Z"/><path class="cls-1" d="M241.45,365.3h129.17c3.05,0,3.06-4.74,0-4.74h-129.17c-3.05,0-3.06,4.74,0,4.74h0Z"/><path class="cls-1" d="M235.46,258.58c1.37,10.72,2.74,21.44,4.08,32.17.16,1.27.98,2.37,2.37,2.37,1.16,0,2.53-1.09,2.37-2.37-1.34-10.72-2.72-21.45-4.08-32.17-.16-1.27-.97-2.37-2.37-2.37-1.16,0-2.53,1.09-2.37,2.37h0Z"/><path class="cls-1" d="M265.4,197.36c-7.9,2.54-15.67,5.51-23.05,9.33-3.81,1.98-7.66,4.09-11.15,6.6s-6.31,5.33-8.83,8.64c-4.92,6.44-7.96,14.36-9.91,22.18-1.63,6.53-2.89,13.14-4.02,19.77-2.36,13.87-4.3,27.8-5.53,41.82-.36,4.11-.67,8.23-.95,12.35-.3,4.37-.61,8.73-.38,13.11.45,8.32,2.31,16.87,7.51,23.57,4.86,6.26,11.86,10.92,19.79,12.04,7.77,1.09,14.9-1.64,21.38-5.74,1.73-1.09,3.41-2.25,5.07-3.44,1.04-.74,1.54-2.07.85-3.24-.6-1.03-2.19-1.6-3.24-.85-5.6,3.97-11.82,8.33-18.91,8.77s-14-2.82-19.01-7.94c-11.55-11.8-8.86-30.26-7.64-45.2,1.07-13.15,2.73-26.21,4.86-39.23,1.07-6.59,2.21-13.17,3.68-19.68,1.62-7.19,3.6-14.31,7.22-20.79,1.84-3.31,4.12-6.32,6.84-8.96,2.87-2.78,6.2-4.85,9.64-6.85,6.78-3.95,13.91-7.14,21.3-9.75,1.91-.68,3.83-1.32,5.76-1.94,2.89-.93,1.66-5.51-1.26-4.57h0Z"/><path class="cls-6" d="M256.51,86.93c-2.08,10.89-1.62,23.53.46,33.24.86-.42,1.95-.72,3.33-.77,2.46-.09,5.51,1.03,6.85,4.19.21-4.35.78-8.86,4.17-12.32,1.8-1.84,4.36-3.33,5.44-5.48.91-1.82,1.06-3.78,2.01-5.58.63-1.19,1.69-2.53,2.96-3.39,1.73-1.16,3.42-1.76,5.61-2.34,2.86-.75,16.82-1.74,20.58-1.92,0,0,10.46-2.12,16.13-2.12,6.97,0,11.85,1.4,11.85,1.4,4.87,1.48,8.57,4.45,11.63,8.82,2.94,4.19,4.14,8.36,5.52,14.33l5.04,6.34c1.52-1.46,3.56-2.01,5.32-1.95,1.02.04,1.88.21,2.61.47,3.16-14.06,3.73-30.37-2.5-44.15-.74-1.63-3.9-10.05-11.13-15.82-5.85-4.66-8.72-5.64-12.77-5.59l-8-3.18c-2.38-2.57-4.46-3.74-7.9-4.94-12.68-4.41-27.29-2.66-38.83,3.25-11.54,5.9-21.15,16.43-25.8,28.33-1.1,2.82-1.95,5.91-2.57,9.17Z"/><path class="cls-1" d="M335.27,94.14c4.42,1.38,7.95,4.34,10.51,8.15,2.71,4.03,3.9,8.66,4.98,13.34.69,2.97,5.26,1.71,4.57-1.26-1.22-5.28-2.68-10.57-5.86-15.05-3.25-4.59-7.53-8.07-12.94-9.75-2.92-.91-4.17,3.67-1.26,4.57h0Z"/><path class="cls-1" d="M339.61,56.67c1.82-.01,2.83.08,4.58.74,1.79.68,3.86,2.12,5.54,3.39,3.85,2.91,6.87,6.57,9.21,10.79,4.3,7.78,6.58,16.51,6.95,25.37.27,6.33-.29,12.67-1.46,18.89-.24,1.26.35,2.56,1.66,2.92,1.16.32,2.68-.39,2.92-1.66,2.24-11.99,2.6-24.66-1.07-36.41-2.67-8.54-7.13-17.16-14.25-22.78-4.23-3.34-8.54-6.02-14.07-5.99-3.05.02-3.06,4.76,0,4.74h0Z"/><path class="cls-1" d="M258.9,117.74c-1.48-8.03-1.76-16.35-.93-24.47.8-7.86,2.95-15.41,7.07-22.19,8.47-13.93,23.32-23.59,39.66-24.84,4.81-.37,9.66-.08,14.36,1.05,4.12,1,7.92,2.37,10.88,5.51,2.1,2.23,5.45-1.13,3.35-3.35-2.92-3.1-6.51-4.84-10.54-6.07-4.47-1.36-9.19-2.01-13.85-2.04-9.23-.05-18.49,2.32-26.57,6.76-7.64,4.2-14.21,10.25-19.25,17.35-4.99,7.03-8.03,15.06-9.31,23.56-1.49,9.93-1.26,20.12.56,29.99.23,1.26,1.76,1.97,2.92,1.66,1.32-.36,1.89-1.65,1.66-2.92h0Z"/><path class="cls-1" d="M307.92,90.19c-6.46.31-12.99.74-19.4,1.67-3.75.54-7.83,2-10.31,4.99-1.79,2.16-2.3,4.55-3.24,7.12-.74,2.02-2.67,3.23-4.23,4.59-4.52,3.94-5.69,9.42-5.97,15.17-.15,3.05,4.59,3.04,4.74,0,.21-4.26.86-8.43,4.16-11.44,1.67-1.52,3.53-2.8,4.79-4.72,1.3-1.98,1.36-4.46,2.52-6.48,1.73-3,5.28-4.11,8.51-4.62.13-.02.26-.04.39-.06.36-.05-.39.05,0,0,.35-.04.69-.09,1.04-.13.79-.09,1.58-.18,2.37-.25,1.69-.17,3.37-.31,5.06-.45,3.18-.26,6.37-.5,9.56-.65s3.06-4.89,0-4.74h0Z"/><path class="cls-1" d="M307.48,86.05c1.54-.14,3.09-.24,4.64-.12.16.01.33.03.49.04.45.04-.55-.1.23.03.33.06.66.12.99.19.78.18,1.55.41,2.3.7-.22-.08.11.04.16.07.16.07.31.15.47.23.34.17.68.36,1.01.56s.63.41.94.62c.08.05.3.23.1.07.12.1.25.2.37.3.5.43.98.89,1.41,1.38.09.1.17.21.26.3-.12-.14-.17-.25-.03-.04.16.23.31.46.44.7.63,1.11,2.15,1.49,3.24.85s1.48-2.13.85-3.24c-1.53-2.7-4.33-4.84-7.15-6.04-3.44-1.47-7.02-1.68-10.71-1.35-1.23.11-2.43,1.01-2.37,2.37.05,1.19,1.05,2.49,2.37,2.37h0Z"/><path class="cls-7" d="M296.57,268.25c-3.43,2.01-17.04,10.13-26,15.56-.44-2.34-1.02-5.44-1.48-7.93-5.73,2.95-9.18,5.17-13.36,8.88-1.67,1.48-3.02,4.09-3.74,6.21-1.55,4.54-2.93,11.06-2.05,16.98l.1.68c2.98,6.44,8.15,13.3,13.71,17.71,6.39.12,12.37-.6,15.53-1.17,3.65-.66,6.92-2.54,9.97-4.65,7.13-4.93,13.35-10.59,18.73-17.68.56-.73.86-1.64.98-2.55s-.11-1.91-.78-2.53c0,0-.77-.72-1.94-1.81.76-.59,1.29-1.03,1.51-1.25,1.11-1.06,1.76-1.79,2.35-3.2.3-.72.23-1.68.05-2.46-.25-1.08-1.09-3.08-3.62-2.69,0,0-.74.11-1.77.27,1.99-1.46,3.46-2.55,3.98-2.97.23-.19.47-.39.72-.6,1.36-1.2,2.79-2.79,3.5-4.31.84-1.79.4-3.63-.65-5.03-1.36-1.81-3.75-2.42-6.9-1.43.57-1.69-.46-3.19-1.21-4.02-1.97-2.18-5.6-1.17-7.14-.28-.13.07-.29.17-.49.28Z"/><path class="cls-1" d="M252.22,307.32c-.46-3.32-.14-6.79.52-10.07.61-3.01,1.4-6.13,3.01-8.77,1.45-2.38,4-4.14,6.27-5.72,2.66-1.85,5.5-3.41,8.37-4.89,2.71-1.4.32-5.49-2.39-4.1-3.14,1.62-6.24,3.33-9.1,5.41s-5.68,4.19-7.44,7.25c-1.75,3.03-2.71,6.56-3.37,9.97-.78,4.05-1,8.09-.44,12.17.18,1.27,1.8,1.96,2.92,1.66,1.37-.38,1.83-1.64,1.66-2.92h0Z"/><rect class="cls-11" x="269.04" y="231.22" width="46.82" height="84.47" rx="5.1" ry="5.1" transform="translate(-45.27 58.39) rotate(-10.59)"/><path class="cls-1" d="M317.59,309.32c-8.18,1.53-16.35,3.06-24.53,4.58-3.68.69-7.35,1.43-11.04,2.06-1.71.29-3.09-.6-3.46-2.34-.1-.46-.17-.92-.26-1.38-1.44-7.7-2.88-15.39-4.32-23.09-2.02-10.79-4.04-21.59-6.05-32.38-.73-3.9-1.46-7.8-2.19-11.7-.28-1.48-.72-3.02-.83-4.52-.15-1.98,1.43-2.78,3.08-3.09,1.46-.27,2.92-.55,4.38-.82,5.16-.97,10.33-1.93,15.49-2.9,4.5-.84,9.01-1.68,13.51-2.53.84-.16,1.82-.48,2.69-.35,1.5.23,2.12,1.49,2.37,2.82,1.29,6.73,2.52,13.48,3.78,20.22,2.03,10.87,4.06,21.74,6.1,32.62.81,4.33,1.62,8.66,2.43,12.99.4,2.16.91,4.33,1.22,6.51.24,1.67-.73,2.93-2.37,3.3-2.98.66-1.72,5.24,1.26,4.57,4.12-.91,6.41-4.86,5.72-8.9-.1-.58-.22-1.16-.32-1.74-.61-3.27-1.22-6.54-1.84-9.82-2.02-10.79-4.04-21.59-6.05-32.38-1.65-8.82-3.3-17.64-4.95-26.47-.14-.78-.28-1.55-.43-2.33-.54-2.74-2.47-4.98-5.15-5.82-1.73-.55-3.4-.23-5.11.09l-5.45,1.02c-9.52,1.78-19.05,3.56-28.57,5.34-2.61.49-4.84,1.97-5.91,4.48-.72,1.68-.66,3.38-.34,5.12.49,2.62.98,5.24,1.47,7.86,1.95,10.43,3.9,20.86,5.85,31.29,1.79,9.55,3.57,19.1,5.36,28.66.34,1.81.49,3.84,1.15,5.58,1.38,3.65,5.01,5.36,8.74,4.71,1.19-.21,2.37-.44,3.56-.67,9.96-1.86,19.93-3.73,29.89-5.59l2.38-.45c1.26-.24,1.98-1.76,1.66-2.92-.36-1.32-1.65-1.89-2.92-1.66Z"/><path class="cls-7" d="M266.92,287.46l-.06-1.38c8.7-5.33,27.52-16.56,30.2-18.11,1.54-.89,5.17-1.89,7.14.28.75.83,1.77,2.32,1.22,4,.41-.11.66-.17.66-.17,2.83-.7,4.97-.06,6.23,1.62,1.05,1.39,1.5,3.24.65,5.03-.84,1.79-2.67,3.67-4.22,4.91-.52.42-1.99,1.51-3.98,2.97,1.03-.16,1.77-.27,1.77-.27,2.53-.39,3.37,1.61,3.62,2.69.18.79.26,1.74-.05,2.46-.59,1.41-1.25,2.14-2.35,3.2-.22.22-.76.65-1.51,1.24,1.16,1.08,1.94,1.81,1.94,1.81.67.62.9,1.63.78,2.53-.12.91-.43,1.83-.98,2.56-5.39,7.08-11.61,12.75-18.74,17.68-3.04,2.1-6.31,3.98-9.97,4.64-2.28.42-7.25.54-10.67.11l-1.69-37.82Z"/><path class="cls-1" d="M274.13,246.48c2.01-.38,4.02-.75,6.03-1.13.56-.1,1.14-.62,1.42-1.09.3-.51.42-1.26.24-1.83s-.54-1.13-1.09-1.42c-.59-.31-1.17-.36-1.83-.24-2.01.38-4.02.75-6.03,1.13-.56.1-1.14.62-1.42,1.09-.3.51-.42,1.26-.24,1.83s.54,1.13,1.09,1.42c.59.31,1.17.36,1.83.24h0Z"/><path class="cls-1" d="M268.05,288.12c9.39-5.75,18.83-11.4,28.31-17,1.45-.85,2.57-1.66,4.11-1.8.51-.05,1.06-.06,1.52.18.53.27.78.7.9.92.2.37.36.54.31.9s-.61.98-1.06,1.36c-.24.2-.49.4-.74.6-.13.1-.26.2-.39.3-.49.39.06-.04-.25.19-.9.69-1.81,1.37-2.72,2.05-2.22,1.65-4.45,3.28-6.69,4.9-4.83,3.49-9.67,6.99-14.62,10.31-2.52,1.69-.15,5.8,2.39,4.1,4.73-3.17,9.36-6.51,13.98-9.84,4.16-3,8.47-5.92,12.38-9.24,3.1-2.63,3.08-6.78.26-9.59-2.65-2.64-6.93-2.19-9.96-.5-4,2.23-7.9,4.68-11.83,7.03-6.12,3.66-12.23,7.32-18.31,11.04-2.6,1.59-.22,5.7,2.39,4.1h0Z"/><path class="cls-1" d="M306.7,274.37c1.67-.38,3.48-.25,4.18,1.57.77,2-1.63,4.1-2.92,5.28-.3.28-.63.53-.94.8-.35.31.17-.13.13-.1-.29.21-.57.43-.86.65-.87.65-1.74,1.29-2.61,1.93-5.07,3.72-10.16,7.41-15.27,11.08-2,1.44-4,2.88-6.02,4.29-1.05.73-1.53,2.08-.85,3.24.61,1.04,2.19,1.59,3.24.85,5-3.48,9.91-7.09,14.84-10.67,2.61-1.9,5.22-3.79,7.81-5.71,2.61-1.93,5.21-3.85,7-6.63,1.89-2.94,1.67-6.52-.65-9.16-2.12-2.41-5.4-2.66-8.34-1.99s-1.72,5.25,1.26,4.57h0Z"/><path class="cls-1" d="M306.53,288.72c.29-.03.6-.07.77-.03.08.02.18.08.19.09-.17-.13.1.12.1.13-.21-.31-.02.01.02.07.02.02.19.34.07.1-.11-.23.05.13.06.18.32,1.2.04,1.99-.81,2.91-.96,1.05-2.09,1.9-3.22,2.77-.21.16.06-.05.09-.07-.11.09-.22.17-.33.26-.17.13-.35.27-.52.4-.44.34-.88.67-1.32,1.01-.99.75-1.97,1.49-2.96,2.23-2.02,1.52-4.04,3.03-6.07,4.54-1.83,1.37-3.67,2.73-5.5,4.1-1.02.77-1.55,2.05-.85,3.24.59,1.01,2.21,1.62,3.24.85,4.18-3.13,8.38-6.24,12.55-9.38,1.97-1.48,3.94-2.97,5.87-4.49,1.82-1.43,3.46-3.01,4.35-5.2,1.58-3.88-1.32-8.94-5.74-8.44-1.27.14-2.37.99-2.37,2.37,0,1.17,1.09,2.51,2.37,2.37h0Z"/><path class="cls-1" d="M306.51,299.43c.92,1-1.53,3.44-2.06,4.08-1.33,1.62-2.73,3.18-4.2,4.69-2.98,3.07-6.22,5.9-9.66,8.45-3.43,2.54-7.08,5.16-11.32,6.1-3.11.69-7.22.56-10.67.15-1.27-.15-2.37,1.2-2.37,2.37,0,1.41,1.09,2.22,2.37,2.37,3.27.39,6.67.41,9.94,0,3.87-.48,7.41-2.13,10.66-4.25,6.54-4.26,12.58-9.47,17.65-15.4,1.44-1.68,3.2-3.46,4-5.56.84-2.2.64-4.59-.99-6.37-2.07-2.25-5.42,1.11-3.35,3.35h0Z"/><path class="cls-1" d="M245.96,304.6c1.69,5.6,4.73,10.74,8.29,15.34,3.52,4.54,7.78,8.82,12.93,11.47,2.71,1.39,5.11-2.7,2.39-4.1-4.62-2.37-8.44-6.19-11.6-10.25-3.19-4.09-5.94-8.74-7.45-13.73-.88-2.91-5.46-1.67-4.57,1.26h0Z"/><path class="cls-7" d="M430.05,274.73c.29-3.79.43-7.58.98-10.23,2.6-1.12,4.72-2.97,6.83-5.24.88-.94,2.44-3.14,3.18-4.77,2.65-6.27,4.53-13.17,4.4-18.06.21-.46.37-.96.47-1.51.46-2.7.88-5.4,1.24-8.1.27-2.06.49-4.26-.36-6.16-.93-2.07-3.19-3.48-5.47-3.41-1.55.05-3.03.78-4.08,1.9-.07-2.12-1.72-4.09-3.79-4.65-2.24-.6-4.76.35-6.24,2.15,0,0-.14.17-.28.34-.31-.76-.62-1.51-.62-1.51-.51-1.24-2.47-2.93-4.62-3.19-2.15-.26-4.41.99-5.32,2.96,0,0-.31.32-.76.77,1.77-9.81,3.73-23.8,4.37-30.12.24-2.48-1.24-5.33-4.41-5.75-4.26-.56-6.15,2.01-6.75,5.37-1.88,10.56-4.26,22.97-5.91,35.03-2.62.92-4.71,2.72-5.13,5.57-.49,3.32-1.09,6.62-1.42,9.96-.37,3.76-.55,7.58.22,11.28.77,3.7,2.59,7.29,5.59,9.57.69.52,1.32.95,1.94,1.32-.26,3.4-.84,7.73-1.57,11.38l27.5,5.1Z"/><path class="cls-1" d="M443.02,238.47c-.22,2.77-.87,5.49-1.66,8.15-.82,2.77-1.7,5.73-3.2,8.22-2.47,4.09-6.37,7.55-11.18,8.36-1.26.21-1.97,1.77-1.66,2.92.37,1.34,1.65,1.87,2.92,1.66,5.85-.99,10.73-5.32,13.82-10.23,1.75-2.78,2.8-6.12,3.75-9.24.98-3.2,1.69-6.49,1.95-9.83.1-1.28-1.16-2.37-2.37-2.37-1.37,0-2.27,1.09-2.37,2.37h0Z"/><path class="cls-1" d="M405.21,221.18c.95-6.89,2.1-13.76,3.31-20.61.57-3.19,1.15-6.38,1.72-9.57.27-1.48.53-2.96.8-4.44.19-1.06.36-1.99.9-2.86.34-.56.78-.92,1.42-1.12.9-.27,2.09-.24,2.94.25,1.62.95,1.36,2.69,1.18,4.29-.5,4.54-1.13,9.07-1.79,13.58-.84,5.76-1.74,11.51-2.84,17.23-.24,1.26.35,2.56,1.66,2.92,1.16.32,2.68-.39,2.92-1.66,2.07-10.79,3.7-21.73,4.86-32.66.28-2.64-.49-5.34-2.59-7.08-2.41-1.99-6.03-2.3-8.83-.97-2.37,1.13-3.75,3.6-4.27,6.09-.71,3.38-1.23,6.81-1.84,10.2-1.51,8.36-2.97,16.72-4.12,25.13-.17,1.27.31,2.55,1.66,2.92,1.11.3,2.74-.38,2.92-1.66h0Z"/><path class="cls-1" d="M404.84,270.26c.74-3.72,1.26-7.5,1.6-11.29.11-1.24-1.17-2.43-2.37-2.37-1.38.06-2.25,1.04-2.37,2.37-.07.84-.16,1.68-.26,2.52-.05.44-.1.88-.16,1.32,0,.07-.1.79-.06.45s-.05.39-.06.45c-.25,1.77-.54,3.53-.89,5.28-.24,1.21.35,2.62,1.66,2.92,1.18.27,2.66-.36,2.92-1.66h0Z"/><path class="cls-1" d="M409.12,258.1c-2.28-1.02-4.63-2.1-6.44-3.87-1.77-1.73-2.89-3.99-3.53-6.37-1.61-5.97-.41-12.53.53-18.51.34-2.18.35-4.41,2.35-5.75,2.14-1.43,5.08-1.72,7.55-2.27.68-.15,1.36-.31,2.05-.46.08-.02,1.35-.2.58-.14.34-.03.67-.05,1-.04.15,0,.3.01.45.02.37.02-.06-.05.45.06,1.37.31,2.82,1.03,3.09,2.69.37,2.26-2.49,3.51-4.17,4.43-2.34,1.28-4.79,2.35-7.22,3.45-1.17.53-1.45,2.22-.85,3.24.7,1.2,2.07,1.38,3.24.85,2.53-1.15,5.08-2.27,7.52-3.62,2.68-1.48,5.43-3.3,6.08-6.52,1.16-5.7-4.37-9.79-9.6-9.31-1.39.13-2.76.52-4.12.83-1.77.4-3.58.76-5.31,1.29-2.73.84-5.35,2.53-6.57,5.2-.73,1.59-.86,3.31-1.13,5.02-.31,1.94-.61,3.89-.85,5.84-.47,3.74-.77,7.57-.31,11.33.48,3.86,1.7,7.55,4.14,10.64,2.25,2.86,5.42,4.6,8.68,6.06,1.17.52,2.55.34,3.24-.85.59-1.01.32-2.72-.85-3.24h0Z"/><path class="cls-1" d="M416.99,245.11c-.15.55-.33,1.1-.55,1.63l.24-.57c-.31.72-.69,1.39-1.16,2.01l.37-.48c-.36.46-.76.89-1.2,1.28s-.69,1.11-.69,1.68.26,1.28.69,1.68,1.05.72,1.68.69,1.19-.26,1.68-.69c1.77-1.57,2.92-3.7,3.53-5.97.16-.6.07-1.29-.24-1.83-.29-.49-.85-.96-1.42-1.09-.61-.14-1.29-.11-1.83.24s-.93.81-1.09,1.42h0Z"/><path class="cls-1" d="M428.67,264.24c-.63,3.46-.73,6.99-.99,10.49-.09,1.24,1.16,2.43,2.37,2.37,1.36-.06,2.27-1.04,2.37-2.37.13-1.74.23-3.47.37-5.21.06-.78.13-1.56.21-2.34.02-.16.04-.33.06-.49.01-.11.03-.21.04-.32-.05.37-.06.42-.02.16.05-.34.11-.69.17-1.03.22-1.22-.33-2.62-1.66-2.92-1.16-.26-2.68.35-2.92,1.66h0Z"/><path class="cls-1" d="M418.43,216.44c1.14-2.25,3.99-2.3,5.47-.42.08.1.14.22.21.33.2.32-.06-.12-.05-.12-.24-.02.52.18,0-.03-.1-.04-.01-.24,0,.09.03.48.07.95.08,1.43.03,1.21,0,2.43-.06,3.64-.13,2.81-.37,5.61-.71,8.4-.12,1.03-.15,2.15-.48,3.26-.18.61-.96,1.01-1.59,1.08-1,.11-2.15-.29-2.67-1-.76-1.02-.59-2.55-.42-3.99.15-1.27-1.2-2.37-2.37-2.37-1.41,0-2.22,1.09-2.37,2.37-.25,2.05-.16,4.2.86,6.05.95,1.72,2.74,2.99,4.63,3.46s4.09.26,5.78-.79,2.62-2.75,2.94-4.75c.58-3.72.95-7.49,1.13-11.25.08-1.55.14-3.1.06-4.65-.08-1.75-.4-3.13-1.61-4.47-3.6-3.99-10.41-3.65-12.93,1.35-1.37,2.72,2.72,5.12,4.1,2.39h0Z"/><path class="cls-1" d="M438.93,220.82c1.62-1.64,4.27-1.61,5.54.48.72,1.19.61,2.71.49,4.03-.16,1.78-.46,3.56-.73,5.32-.23,1.49-.33,3.5-.91,4.76-.23.5-.38.7-.76.99.32-.24-.67.28-.27.13-.07.03-.72.14-.39.11-.55.06-.97-.05-1.57-.25-.42-.14.06.08-.34-.14-.05-.03-.58-.42-.26-.14-.11-.1-.21-.2-.31-.31.12.17.13.18.04.05-.05-.08-.34-.72-.21-.36-.22-.61-.24-.96-.27-1.51-.07-1.28-1.04-2.37-2.37-2.37-1.23,0-2.44,1.09-2.37,2.37.16,3.17,1.48,5.78,4.58,6.91,3.12,1.14,6.49.24,8.32-2.6.98-1.53,1.18-3.35,1.46-5.1.34-2.13.66-4.26.93-6.39.47-3.61.28-7.5-2.77-9.98-3.39-2.76-8.11-2.46-11.18.64-2.15,2.17,1.2,5.53,3.35,3.35h0Z"/><path class="cls-1" d="M423.27,233.5c.21,3.36,2.45,6.01,5.75,6.8,3.55.86,7.27-.54,9.07-3.8.83-1.5.83-3.35.98-5.02.17-1.95.27-3.9.35-5.86.15-3.75.98-8.03-1.67-11.11-3.23-3.74-9.1-3.1-12.2.45-.84.97-.95,2.4,0,3.35.86.86,2.51.97,3.35,0,.9-1.03,2.17-1.82,3.59-1.62,1.15.16,2.23,1.15,2.38,2.32.21,1.61-.09,3.47-.15,5.09-.06,1.84-.14,3.68-.26,5.51-.06.91-.13,1.83-.22,2.74-.04.4-.08.8-.13,1.19-.02.18-.2.87.05.22-.33.85-.93,1.48-1.7,1.83-1.15.52-2.74.22-3.7-.56.21.17-.24-.27-.28-.31.22.25-.23-.39-.28-.48.21.41-.1-.33-.13-.43-.03-.13-.06-.26-.08-.39.04.31.05.34.03.07-.19-3.03-4.94-3.05-4.74,0h0Z"/><path class="cls-8" d="M409.57,264.62c-3.57-.56-7.09-1.14-10.5-1.76-.47-.08-.91.21-1.02.67-1.31,5.83-2.98,14.58-4.42,22.47,0,0,29.83,4.46,42.16,6.3,1.38-8.56,2.45-16.77,3.1-22.85.05-.49-.29-.91-.78-.97-8.89-1.04-18.87-2.35-28.54-3.86Z"/><path class="cls-1" d="M395.92,286.63c.74-4.08,1.5-8.15,2.3-12.22.37-1.89.75-3.79,1.14-5.67.32-1.56.5-3.34,1.08-4.83l-.61,1.05c-1.04.14-1.28.24-.74.31.22.04.43.08.65.12.44.08.87.15,1.31.23.73.13,1.47.25,2.2.38,1.64.27,3.28.54,4.92.8,3.4.54,6.8,1.04,10.2,1.52s6.71.93,10.07,1.36c1.6.21,3.2.41,4.81.6.78.1,1.57.19,2.35.28.42.05.84.1,1.26.15l.42.05c.62.1.56.05-.18-.16l-.61-1.05c-.06-.17.03.05,0,.18-.04.17-.04.38-.06.56-.04.38-.09.77-.13,1.15-.1.92-.21,1.83-.32,2.75-.23,1.9-.47,3.79-.72,5.68-.54,4.01-1.14,8.02-1.78,12.02-1.36,8.43-2.91,16.86-5.02,25.14-1,3.91-2.14,7.64-4.4,11.03-1.93,2.9-4.54,5.37-7.48,7.23-5.72,3.62-12.59,4.99-19.32,4.04-8.4-1.19-16.37-5.7-20.97-12.93-1.63-2.57-5.74-.19-4.1,2.39,6.62,10.4,19.12,16.25,31.34,15.5,11.42-.69,22.28-7.45,26.94-18.08,2.53-5.76,3.67-12.22,4.92-18.35,1.34-6.59,2.47-13.22,3.46-19.87.88-5.88,1.67-11.78,2.32-17.7.2-1.83-.46-3.61-2.43-4.09-1.75-.43-3.71-.45-5.5-.67-3.79-.46-7.57-.95-11.35-1.47s-7.72-1.1-11.57-1.7c-1.94-.3-3.88-.62-5.82-.94-1.82-.31-3.87-.97-5.72-.93-2.09.05-2.9,1.81-3.28,3.57-.35,1.59-.68,3.19-1.01,4.79-.73,3.61-1.43,7.23-2.11,10.84-.36,1.9-.7,3.79-1.05,5.69-.23,1.26.34,2.56,1.66,2.92,1.15.32,2.69-.39,2.92-1.66h0Z"/><path class="cls-1" d="M354.27,200.29c6.87,1.44,13.73,3.43,20.28,5.92,7.13,2.72,13.08,7.44,17.94,13.29.82.99,2.51.85,3.35,0,.98-.98.82-2.37,0-3.35-5.26-6.33-11.78-11.29-19.46-14.29-6.72-2.63-13.8-4.66-20.86-6.15-2.98-.63-4.25,3.95-1.26,4.57h0Z"/><path class="cls-1" d="M355.5,145.63c-.26,1.97-1.07,3.92-1.82,5.74-.29.72-.61,1.42-.89,2.15-.07.18-.13.36-.19.53-.22.62.12-.24-.04.1-.93,2.01-1.99,3.94-3.15,5.82-3.37,5.45-7.46,10.62-12.47,14.65-2.7,2.17-5.74,3.89-9.1,4.67-2.97.69-1.71,5.26,1.26,4.57,7.08-1.64,12.98-6.81,17.6-12.19,3.82-4.44,7.37-9.43,9.8-14.79,1.63-3.58,3.22-7.35,3.74-11.26.17-1.27-1.21-2.37-2.37-2.37-1.42,0-2.2,1.1-2.37,2.37h0Z"/><path class="cls-1" d="M263.32,146.07c3.32,14.31,12.29,28.18,25.22,35.56,3.5,1.99,7.33,3.44,11.32,4.03,1.27.19,2.55-.32,2.92-1.66.31-1.12-.38-2.73-1.66-2.92-13.94-2.07-24.73-14.42-30.13-26.73-1.34-3.06-2.35-6.29-3.11-9.54-.69-2.97-5.26-1.71-4.57,1.26h0Z"/><path class="cls-1" d="M267.29,119.66c-3.11-2.82-7.67-3.41-11.45-1.58-2.78,1.35-4.38,4.11-5.07,7.03-1.61,6.8.11,14.54,4.03,20.28,2.85,4.17,6.92,7.18,12.17,6.46,1.27-.17,1.96-1.8,1.66-2.92-.38-1.37-1.64-1.83-2.92-1.66-3.68.5-6.51-3.45-8.01-6.26-1.44-2.71-2.49-5.77-2.71-8.83-.12-1.7-.12-3.46.21-5.14.15-.75.32-1.54.61-2.25.13-.32.3-.64.49-.94.05-.09.5-.71.16-.28.75-.94,1.56-1.47,2.91-1.72,1.62-.3,3.32.04,4.56,1.16,2.26,2.04,5.62-1.3,3.35-3.35h0Z"/><path class="cls-1" d="M359.77,123.01c1.24-1.12,2.94-1.45,4.56-1.16,1.35.25,2.18.79,2.91,1.72-.33-.42.11.2.16.28.18.3.35.61.49.94.29.71.47,1.5.61,2.25.32,1.68.33,3.44.21,5.14-.22,3.07-1.27,6.13-2.71,8.83-1.49,2.81-4.33,6.76-8.01,6.26-1.27-.17-2.55.31-2.92,1.66-.3,1.11.38,2.74,1.66,2.92,8.58,1.17,13.56-7.26,15.78-14.33,1.11-3.53,1.24-7.42.68-11.05-.48-3.07-1.75-6.02-4.36-7.83-3.76-2.6-9.11-1.98-12.42,1.02-2.27,2.05,1.09,5.4,3.35,3.35h0Z"/><path class="cls-1" d="M303.24,160c2.84,1.5,5.89,2.13,9.1,2.11s6.57-.67,9.18-2.71c1.01-.79.83-2.53,0-3.35-1-1-2.34-.79-3.35,0,.72-.56.16-.13-.02-.01s-.37.23-.56.33c-.1.05-.2.1-.3.15-.39.2.09-.05.1-.03,0,.04-.71.26-.78.28-.71.23-1.44.39-2.17.5.35-.05-.06,0-.2.02-.21.02-.43.04-.64.05-.51.03-1.03.05-1.54.04-.46,0-.92-.02-1.38-.05-.21-.01-.42-.03-.63-.05-.03,0-.79-.11-.3-.03-.69-.11-1.36-.25-2.03-.45-.28-.08-.56-.19-.84-.28-.61-.21.35.18-.2-.08-.35-.16-.69-.33-1.03-.51-1.13-.6-2.58-.29-3.24.85-.63,1.07-.29,2.64.85,3.24h0Z"/><path class="cls-1" d="M311.13,138.57c.4,1.51.78,3.05,1,4.6l-.08-.63c.03.21.04.42.02.63l.08-.63c-.01.1-.04.19-.07.29l.24-.57c-.03.07-.06.12-.1.18l.37-.48c-.05.06-.09.1-.15.15l.48-.37c-.12.07-.24.13-.36.19l.57-.24c-.2.08-.4.14-.61.18l.63-.08c-.19.02-.38.02-.58,0l.63.08c-.22-.03-.43-.08-.65-.11-.32-.1-.63-.11-.95-.04-.32.01-.61.11-.88.28-.49.29-.96.85-1.09,1.42-.14.61-.11,1.29.24,1.83.31.48.82,1.01,1.42,1.09.5.07.98.19,1.48.21.77.03,1.49-.2,2.18-.52.85-.39,1.52-1.16,1.75-2.08.19-.78.11-1.46-.02-2.24-.25-1.48-.59-2.95-.97-4.4-.31-1.2-1.71-2.05-2.92-1.66s-1.99,1.63-1.66,2.92h0Z"/><path class="cls-1" d="M286.86,125.56c-.77,2.49-.27,8.21,4.44,8.69,6.23-.04,6.56-6.95,4.46-10.2-1.72-2.66-6.76-3.77-8.91,1.51Z"/><path class="cls-1" d="M336.84,125.56c.77,2.49.27,8.21-4.44,8.69-6.23-.04-6.56-6.95-4.46-10.2,1.72-2.66,6.76-3.77,8.91,1.51Z"/></g><path class="cls-5" d="M171.21,61.72c-32.94,0-55.71,25.51-55.71,55.37,0,33.4,23.26,56.41,55.71,56.41s55.71-23.22,55.71-56.41c0-30.06-22.89-55.37-55.71-55.37Z"/><path class="cls-2" d="M171.21,60.38c-12.4.03-24.72,3.7-34.68,11.2-9.33,7.03-16.23,16.9-19.72,28.04-3.64,11.62-3.49,24.53-.02,36.18,3.21,10.8,9.59,20.52,18.53,27.43,9.21,7.12,20.56,10.85,32.12,11.5s24.01-1.61,34.31-7.58c9.44-5.47,16.9-13.93,21.28-23.91,4.79-10.9,6.31-23.39,4.55-35.15-1.74-11.56-7.08-22.52-15.25-30.9-8.43-8.65-19.67-14.27-31.6-16.08-3.15-.48-6.33-.72-9.51-.73-1.72,0-1.72,2.67,0,2.67,11.9.03,23.58,3.55,33.16,10.69,8.91,6.64,15.48,16.2,18.74,26.79s3.25,23.13.14,34.2c-2.83,10.09-8.49,19.23-16.65,25.86-8.5,6.91-19.27,10.56-30.12,11.37s-23.04-1.07-33.09-6.62c-9.3-5.13-16.67-13.13-21.17-22.73-4.87-10.37-6.49-22.61-4.76-33.91,1.69-11.06,6.69-21.5,14.5-29.54,8.06-8.3,18.71-13.61,30.12-15.41,3.02-.48,6.09-.68,9.15-.69,1.72,0,1.72-2.68,0-2.67Z"/><path class="cls-7" d="M171.21,75.36c-24.9,0-42.11,19.28-42.11,41.85,0,25.25,17.58,42.63,42.11,42.63s42.11-17.55,42.11-42.63c0-22.72-17.3-41.85-42.11-41.85Z"/><path class="cls-4" d="M171.21,74.12c-9.48.03-18.88,2.84-26.47,8.6-7.04,5.34-12.25,12.82-14.89,21.25-5.31,16.98-.18,37.3,14.11,48.33,6.97,5.38,15.56,8.21,24.31,8.71s18.38-1.23,26.24-5.82c7.14-4.17,12.78-10.6,16.09-18.16,3.62-8.28,4.77-17.72,3.43-26.64-1.32-8.83-5.43-17.21-11.69-23.59-6.37-6.49-14.83-10.73-23.81-12.1-2.43-.37-4.88-.56-7.33-.57-1.6,0-1.61,2.49,0,2.49,8.96.03,17.74,2.67,24.96,8.05,6.69,4.99,11.63,12.21,14.07,20.17,4.79,15.64.49,34.58-12.44,45.09-6.4,5.21-14.54,7.94-22.71,8.54s-17.26-.82-24.8-4.99c-7-3.87-12.53-9.89-15.92-17.12-3.66-7.8-4.87-17.04-3.54-25.55s5.08-16.16,10.97-22.19c6.02-6.16,13.94-10.1,22.43-11.47,2.31-.37,4.65-.52,6.99-.53,1.6,0,1.61-2.5,0-2.49Z"/><path class="cls-3" d="M171.23,118.86c4.79,0,9.59,0,14.38,0,1.6,0,1.61-2.49,0-2.49-4.79,0-9.59,0-14.38,0-1.6,0-1.61,2.49,0,2.49h0Z"/><path class="cls-3" d="M169.99,95.81c0,7.26-.01,14.52,0,21.78,0,1.6,2.5,1.61,2.49,0-.01-7.26,0-14.52,0-21.78,0-1.6-2.49-1.61-2.49,0h0Z"/><path class="cls-3" d="M169.93,83.49c0,.75,0,1.5,0,2.25,0,.32.14.66.37.88s.57.38.88.37.66-.12.88-.37.37-.54.37-.88c0-.75,0-1.5,0-2.25,0-.32-.14-.66-.37-.88s-.57-.38-.88-.37-.66.12-.88.37-.37.54-.37.88h0Z"/><path class="cls-3" d="M169.93,149.47c0,.75,0,1.5,0,2.25,0,.32.14.66.37.88s.57.38.88.37.66-.12.88-.37.37-.54.37-.88c0-.75,0-1.5,0-2.25,0-.32-.14-.66-.37-.88s-.57-.38-.88-.37-.66.12-.88.37-.37.54-.37.88h0Z"/><path class="cls-3" d="M205.29,116.35c-.75,0-1.5,0-2.25,0-.32,0-.66.14-.88.37s-.38.57-.37.88.12.66.37.88.54.37.88.37c.75,0,1.5,0,2.25,0,.32,0,.66-.14.88-.37s.38-.57.37-.88-.12-.66-.37-.88-.54-.37-.88-.37h0Z"/><path class="cls-3" d="M139.31,116.35c-.75,0-1.5,0-2.25,0-.32,0-.66.14-.88.37s-.38.57-.37.88.12.66.37.88.54.37.88.37c.75,0,1.5,0,2.25,0,.32,0,.66-.14.88-.37s.38-.57.37-.88-.12-.66-.37-.88-.54-.37-.88-.37h0Z"/><path class="cls-3" d="M153.04,88.69c.38.65.76,1.3,1.13,1.95.16.27.44.49.75.57s.7.05.96-.13.5-.43.57-.75.05-.66-.13-.96c-.38-.65-.76-1.3-1.13-1.95-.16-.27-.44-.49-.75-.57s-.7-.05-.96.13-.5.43-.57.75-.05.66.13.96h0Z"/><path class="cls-3" d="M186.03,145.83c.38.65.76,1.3,1.13,1.95.16.27.44.49.75.57s.7.05.96-.13.5-.43.57-.75.05-.66-.13-.96c-.38-.65-.76-1.3-1.13-1.95-.16-.27-.44-.49-.75-.57s-.7-.05-.96.13-.5.43-.57.75-.05.66.13.96h0Z"/><path class="cls-3" d="M200.09,99.47c-.65.38-1.3.76-1.95,1.13-.27.16-.49.44-.57.75s-.05.7.13.96.43.5.75.57.66.05.96-.13c.65-.38,1.3-.76,1.95-1.13.27-.16.49-.44.57-.75s.05-.7-.13-.96-.43-.5-.75-.57-.66-.05-.96.13h0Z"/><path class="cls-3" d="M142.95,132.46c-.65.38-1.3.76-1.95,1.13-.27.16-.49.44-.57.75s-.05.7.13.96.43.5.75.57.66.05.96-.13c.65-.38,1.3-.76,1.95-1.13.27-.16.49-.44.57-.75s.05-.7-.13-.96-.43-.5-.75-.57-.66-.05-.96.13h0Z"/><path class="cls-3" d="M187.16,87.43c-.38.65-.76,1.3-1.13,1.95-.16.28-.21.65-.13.96.08.29.3.6.57.75.29.15.64.23.96.13s.58-.29.75-.57c.38-.65.76-1.3,1.13-1.95.16-.28.21-.65.13-.96-.08-.29-.3-.6-.57-.75-.29-.15-.64-.23-.96-.13s-.58.29-.75.57h0Z"/><path class="cls-3" d="M154.17,144.57c-.38.65-.76,1.3-1.13,1.95-.16.28-.21.65-.13.96.08.29.3.6.57.75.29.15.64.23.96.13s.58-.29.75-.57c.38-.65.76-1.3,1.13-1.95.16-.28.21-.65.13-.96-.08-.29-.3-.6-.57-.75-.29-.15-.64-.23-.96-.13s-.58.29-.75.57h0Z"/><path class="cls-3" d="M141,101.62c.65.38,1.3.76,1.95,1.13.28.16.65.21.96.13.29-.08.6-.3.75-.57.15-.29.23-.64.13-.96s-.29-.58-.57-.75c-.65-.38-1.3-.76-1.95-1.13-.28-.16-.65-.21-.96-.13-.29.08-.6.3-.75.57-.15.29-.23.64-.13.96s.29.58.57.75h0Z"/><path class="cls-3" d="M198.14,134.61c.65.38,1.3.76,1.95,1.13.28.16.65.21.96.13.29-.08.6-.3.75-.57.15-.29.23-.64.13-.96s-.29-.58-.57-.75c-.65-.38-1.3-.76-1.95-1.13-.28-.16-.65-.21-.96-.13-.29.08-.6.3-.75.57-.15.29-.23.64-.13.96s.29.58.57.75h0Z"/><path class="cls-1" d="M147.62,324.67c5.79,0,11.58-.02,17.37-.03,9.15-.01,18.3-.03,27.45-.04,2.32,0,4.64,0,6.96-.01,3.55,0,3.56-5.52,0-5.52-5.98,0-11.97.02-17.95.03-9.1.01-18.19.03-27.29.04-2.18,0-4.36,0-6.54.01-3.55,0-3.56,5.52,0,5.52h0Z"/><path class="cls-1" d="M429.2,324.67c4.59,0,9.17-.02,13.76-.03,7.25-.01,14.5-.03,21.75-.04,1.84,0,3.68,0,5.51-.01,2.81,0,2.82-5.52,0-5.52-4.74,0-9.48.02-14.22.03-7.21.01-14.41.03-21.62.04-1.73,0-3.45,0-5.18.01-2.81,0-2.82,5.52,0,5.52h0Z"/></svg>