<?xml version="1.0" encoding="UTF-8"?><svg id="_圖層_1" xmlns="http://www.w3.org/2000/svg" viewBox="0 0 600 400"><defs><style>.cls-1{fill:#444;}.cls-2{fill:#e2e2e2;}.cls-3{fill:#d9d9d9;}.cls-4{fill:#4d4544;}.cls-5{fill:#a0a0a0;}.cls-6{fill:#fff;}.cls-7{fill:#3d8dcc;}</style></defs><g id="group"><path class="cls-6" d="M217.47,278.3c2.78-2.38,13.81-8.45,16.84-10.44,15.68-10.28,23.97-16.98,31.77-25.58l41.72-70.83c3.59-2.83,8.67-9.31,12.78-15.52,1.74-2.64,3.27-5.6,3.35-8.77.08-3.17-1.9-6.61-5.03-7.11-2.23-.35-4.99-.09-6.88,1.13-1.49.97-2.87,1.83-4.23,2.85v-5.84c3.85-2.99,9.32-9.96,13.75-16.66,1.87-2.83,3.5-5.99,3.59-9.38.08-3.39-2.03-7.06-5.38-7.6-2.38-.38-5.33-.11-7.35,1.21-1.62,1.05-3.12,1.99-4.6,3.11v-5.21c4.19-3.21,10.21-10.86,15.07-18.21,2.03-3.08,3.81-6.52,3.9-10.21.09-3.69-2.21-7.69-5.84-8.26-2.59-.42-5.8-.12-8,1.31-1.81,1.18-3.48,2.22-5.12,3.48l-118.03,25.38c-1.38-1.39-3.06-2.31-5-2.18-2.45.16-4.5,2.05-5.62,4.24s-1.49,4.66-1.98,7.06c-1.49,7.26-3.43,15.6-7.05,22.24-.38.71-.79,1.39-1.21,2.06-.99,1.48-2.53,4.71-2.66,6.28-.89,10.23-3.12,29.73-7.08,39.39-2.51,6.11-1.69,28.54-.27,47.31.2,2.6.48,5.24.06,7.81-.77,4.77-3.79,8.81-6.54,12.79l65.06,34.15Z"/><path class="cls-3" d="M154.14,245.16c1.72-2.48,3.51-4.94,4.83-7.65,1.43-2.93,2.21-5.98,2.19-9.26-.02-3.08-.39-6.18-.6-9.25s-.39-6.06-.54-9.1c-.29-5.75-.5-11.51-.47-17.27,0-2.42.06-4.84.19-7.26.06-1.01.13-2.02.23-3.02.1-1.06.15-1.48.3-2.35.23-1.38.61-2.65,1.11-3.95.77-2.01,1.37-4.08,1.9-6.16,1.27-4.95,2.14-10,2.88-15.06.72-4.9,1.31-9.83,1.79-14.76.09-.97.19-1.94.27-2.91,0-.11.01-.22.03-.32,0,.05-.05.29,0,.04.05-.23.11-.46.18-.69.15-.51.34-1.02.55-1.51,1.07-2.51,2.71-4.71,3.88-7.18,2.64-5.55,4.25-11.53,5.56-17.51.65-2.95.99-6.08,2.07-8.91.76-2,2.55-4.35,4.96-4.12,1.15.11,2.11.82,2.91,1.6,1.85,1.8,4.68-1.03,2.83-2.83-2.16-2.1-5.12-3.39-8.14-2.48s-5,3.34-6.14,6.08c-1.22,2.93-1.6,6.17-2.27,9.25-.66,3.03-1.39,6.05-2.28,9.02s-1.9,5.78-3.25,8.51c-1.25,2.53-2.87,4.82-3.96,7.44-.86,2.09-.98,4.18-1.19,6.4-.23,2.39-.49,4.77-.77,7.16-1.16,9.66-2.52,19.58-6,28.71-1.27,3.33-1.35,7.22-1.51,10.73-.24,5.43-.14,10.87.04,16.29.21,6.21.57,12.42,1.01,18.61.23,3.18.8,6.55.23,9.72-.54,2.98-2.02,5.63-3.66,8.14-.84,1.29-1.74,2.55-2.61,3.82-.62.89-.16,2.22.72,2.74.99.58,2.12.17,2.74-.72h0Z"/><path class="cls-3" d="M218.89,279.72c.1-.08.2-.17.3-.25-.42.34,0,0,.07-.05.24-.17.47-.34.71-.5.63-.44,1.28-.86,1.93-1.27,1.58-1,3.18-1.96,4.78-2.91,2.81-1.66,5.67-3.25,8.42-5,8.04-5.14,15.96-10.7,23.17-16.98,3.25-2.83,6.32-5.86,9.22-9.05,1.73-1.9-1.09-4.74-2.83-2.83-11.1,12.22-24.94,21.52-39.08,29.87-3.22,1.9-6.66,3.73-9.53,6.15-.83.7-.72,2.11,0,2.83.82.82,2,.7,2.83,0h0Z"/><path class="cls-3" d="M308.81,73.51c1.71-1.3,3.52-2.55,5.38-3.64,1.41-.82,3.09-1.07,4.7-1.05,1.44.02,2.8.22,3.87,1.26s1.64,2.32,1.9,3.71c.67,3.6-1.36,7.3-3.23,10.21-2.22,3.45-4.63,6.81-7.2,10.01-2.36,2.94-4.85,5.92-7.84,8.24-.85.66-.7,2.13,0,2.83.84.84,1.97.66,2.83,0,2.99-2.32,5.49-5.3,7.84-8.24,2.96-3.69,5.83-7.54,8.31-11.58,2.29-3.74,4.08-8.23,3.13-12.67-.85-3.94-3.81-7.14-7.87-7.64-2.28-.28-4.71-.11-6.86.72-2.5.97-4.84,2.77-6.97,4.38-.86.65-1.31,1.73-.72,2.74.5.85,1.87,1.37,2.74.72h0Z"/><path class="cls-3" d="M308.81,110.61c1.48-1.1,3.03-2.14,4.6-3.11,1.3-.81,2.8-1.09,4.32-1.09,1.23,0,2.44.12,3.41.93s1.6,2.1,1.87,3.37c.69,3.21-1.13,6.6-2.79,9.21-2.03,3.19-4.25,6.28-6.61,9.23-2.17,2.72-4.47,5.47-7.22,7.64-.85.67-.7,2.13,0,2.83.84.84,1.98.67,2.83,0,2.8-2.2,5.13-5.01,7.34-7.78,2.71-3.4,5.36-6.94,7.6-10.67,2.09-3.48,3.69-7.71,2.65-11.8-.95-3.74-3.79-6.48-7.65-6.88-2.07-.22-4.26,0-6.2.79-2.21.89-4.26,2.47-6.16,3.89-.87.64-1.31,1.73-.72,2.74.5.85,1.87,1.37,2.74.72h0Z"/><path class="cls-3" d="M308.81,145.76c1.36-1.01,2.78-1.96,4.23-2.85,1.25-.77,2.67-1.02,4.12-1,1.14.01,2.21.14,3.08.95.88.82,1.42,1.97,1.62,3.15.51,2.93-1.11,5.94-2.62,8.32-1.86,2.94-3.93,5.79-6.1,8.52-2.04,2.56-4.19,5.14-6.76,7.19-.84.68-.7,2.13,0,2.83.83.83,1.98.68,2.83,0,2.61-2.09,4.8-4.72,6.87-7.33,2.51-3.17,5-6.46,7.07-9.94,1.93-3.24,3.39-7.13,2.5-10.93-.82-3.49-3.45-6.23-7.06-6.66-1.99-.24-4.12-.07-5.99.67-2.08.83-4.03,2.29-5.82,3.63-.87.64-1.31,1.73-.72,2.74.5.85,1.87,1.37,2.74.72h0Z"/><path class="cls-6" d="M209.52,6.56h78.67c10.83,0,19.62,8.79,19.62,19.62v196.48c0,10.83-8.79,19.62-19.62,19.62h-78.67c-10.83,0-19.62-8.79-19.62-19.62V26.18c0-10.83,8.79-19.62,19.62-19.62Z"/><path class="cls-1" d="M285.6,6.56s-2.08.69-2.08,2.72c0,.8,0,1.81,0,3.08,0,4.41-3.57,7.99-7.98,7.99-7.6.01-19,.03-26.69.04-7.7-.02-19.09-.03-26.7-.04-4.41,0-7.98-3.58-7.98-7.99,0-1.26,0-2.27,0-3.08,0-1.97-1.89-2.68-1.89-2.72"/><path class="cls-1" d="M284.59,4.84c-.73.56-1.5.87-2.1,1.64-1,1.29-.97,2.76-.97,4.32,0,1.42.07,2.78-.55,4.1-.52,1.1-1.36,2.02-2.4,2.63-1.13.66-2.29.82-3.57.82-1.56,0-3.13,0-4.69,0-3.43,0-6.87,0-10.3.02-6.36,0-12.72.02-19.07,0-3.47,0-6.94-.01-10.41-.02-1.62,0-3.24,0-4.85,0-1.44,0-2.98.15-4.4-.06-2.7-.4-4.93-2.76-5.08-5.5-.09-1.73.3-3.68-.38-5.32-.29-.7-.73-1.31-1.3-1.81-.25-.22-.52-.42-.8-.59-.2-.13-.69-.48,0,.08-.84-.68-2.01-.82-2.83,0-.71.71-.84,2.14,0,2.83.28.23.57.4.87.58.23.14-.24-.22,0-.01.1.09.2.17.28.27.06.07.13.18.17.43.21,1.46-.11,3.03.1,4.52.44,3.14,2.44,6.04,5.3,7.47,2.91,1.45,6.17,1.11,9.32,1.11,3.54,0,7.07.01,10.61.02,6.64.01,13.28.01,19.92,0,3.58,0,7.16-.01,10.73-.02,1.64,0,3.28,0,4.92,0s3.15.08,4.69-.26c3.52-.77,6.43-3.62,7.38-7.08.5-1.81.28-3.64.36-5.48.01-.26.01-.41.08-.55,0-.01.39-.38.19-.23.25-.18.58-.27.82-.45.86-.66,1.31-1.72.72-2.74-.49-.84-1.87-1.38-2.74-.72h0Z"/><path class="cls-1" d="M288.19,240.28h-66.8c-3.71,0-7.43,0-11.14,0-2.21,0-4.35-.24-6.46-.96-4.42-1.5-8.05-4.82-10.12-8.98-1.47-2.97-1.76-6.13-1.76-9.36,0-2.48,0-4.95,0-7.43,0-4.14,0-8.28,0-12.42v-35.65c0-7.09,0-14.18,0-21.27,0-7.39,0-14.79,0-22.18,0-7.36,0-14.71,0-22.07v-55.34c0-3.81,0-7.61,0-11.42v-6.2c0-5.09,1.65-9.85,5.36-13.46,3.28-3.19,7.69-4.95,12.26-4.98.7,0,1.41,0,2.11,0,4.52,0,9.04,0,13.57,0,6.91,0,13.83,0,20.74,0,7.19,0,14.38,0,21.57,0,5.35,0,10.71,0,16.06,0,3.66,0,7.23-.18,10.75,1.09,6.96,2.52,11.47,9.39,11.48,16.7,0,1.54,0,3.09,0,4.63v188.57c0,1.22.03,2.45,0,3.67-.28,9.42-8.26,16.96-17.61,17.03-2.57.02-2.58,4.02,0,4,10.85-.08,20.09-8.27,21.45-19.03.22-1.78.17-3.58.17-5.37V30.52c0-1.42,0-2.83,0-4.25-.04-9.06-5.7-17.17-14.16-20.37-3.89-1.47-7.91-1.33-11.97-1.33h-16.16c-7.26,0-14.52,0-21.78,0-6.96,0-13.92,0-20.87,0-4.49,0-8.99,0-13.48,0-.81,0-1.63-.02-2.45,0-5.28.15-10.35,2.26-14.21,5.86-4.57,4.27-6.83,10.2-6.83,16.39v194.49c0,4.31.74,8.48,2.96,12.26,4.04,6.89,11.42,10.71,19.3,10.71h11.07c6.66,0,13.31,0,19.97,0h46.99c2.58,0,2.58-4,0-4Z"/><path class="cls-4" d="M236.64,15.74c5.15,0,10.3,0,15.45,0,2.58,0,2.58-4,0-4-5.15,0-10.3,0-15.45,0-2.58,0-2.58,4,0,4h0Z"/><path class="cls-4" d="M261.06,16.08c3,0,3.01-4.67,0-4.67s-3.01,4.67,0,4.67h0Z"/><path class="cls-3" d="M205.84,95.29h-1.67c-.92,0-1.66-.76-1.66-1.68,0-.92.75-1.66,1.67-1.66h1.66c.92,0,1.67.75,1.67,1.67,0,.92-.75,1.67-1.67,1.67Z"/><path class="cls-3" d="M215.76,95.29h-3.31c-.92,0-1.67-.75-1.67-1.67s.75-1.67,1.67-1.67h3.31c.92,0,1.67.75,1.67,1.67s-.75,1.67-1.67,1.67ZM235.62,95.29h-3.31c-.92,0-1.67-.75-1.67-1.67s.75-1.67,1.67-1.67h3.31c.92,0,1.67.75,1.67,1.67s-.75,1.67-1.67,1.67ZM225.69,95.29h-3.31c-.92,0-1.67-.75-1.67-1.67s.75-1.67,1.67-1.67h3.31c.92,0,1.67.75,1.67,1.67s-.75,1.67-1.67,1.67ZM242.24,95.29c-.92,0-1.67-.75-1.67-1.67s.75-1.67,1.67-1.67h3.31s0,0,0,0c.92,0,1.67.75,1.67,1.67s-.75,1.67-1.67,1.67h-3.31ZM252.17,95.29c-.92,0-1.67-.75-1.67-1.67s.75-1.67,1.67-1.67h3.31s0,0,0,0c.92,0,1.67.75,1.67,1.67s-.75,1.67-1.67,1.67h-3.31ZM262.11,95.29c-.92,0-1.67-.75-1.67-1.67s.75-1.67,1.67-1.67h3.31s0,0,0,0c.92,0,1.67.75,1.67,1.67s-.75,1.67-1.67,1.67h-3.31ZM272.04,95.29c-.92,0-1.67-.75-1.67-1.67s.75-1.67,1.67-1.67h3.31s0,0,0,0c.92,0,1.67.75,1.67,1.67s-.75,1.67-1.67,1.67h-3.31ZM281.97,95.29c-.92,0-1.67-.75-1.67-1.67s.75-1.67,1.67-1.67h3.31s0,0,0,0c.92,0,1.67.75,1.67,1.67s-.75,1.67-1.67,1.67h-3.31Z"/><path class="cls-3" d="M291.86,95.28c-.92,0-1.67-.75-1.67-1.67s.75-1.67,1.67-1.67h1.67c.92,0,1.67.75,1.67,1.67s-.75,1.67-1.67,1.67h-1.67Z"/><path class="cls-3" d="M205.84,168.07h-1.67c-.92,0-1.67-.75-1.66-1.68,0-.92.75-1.66,1.67-1.66h1.67c.92,0,1.67.75,1.67,1.67,0,.92-.75,1.67-1.67,1.67Z"/><path class="cls-3" d="M235.62,168.07h-3.31c-.92,0-1.67-.75-1.67-1.67s.75-1.67,1.67-1.67h3.31c.92,0,1.67.75,1.67,1.67s-.75,1.67-1.67,1.67ZM225.69,168.07h-3.31c-.92,0-1.67-.75-1.67-1.67s.75-1.67,1.67-1.67h3.31c.92,0,1.67.75,1.67,1.67s-.75,1.67-1.67,1.67ZM242.24,168.07c-.92,0-1.67-.75-1.67-1.67s.75-1.67,1.67-1.67h3.31s0,0,0,0c.92,0,1.67.75,1.67,1.67s-.75,1.67-1.67,1.67h-3.31ZM215.76,168.07h-3.31c-.92,0-1.67-.75-1.67-1.67s.75-1.67,1.67-1.67h3.31c.92,0,1.67.75,1.67,1.67s-.75,1.67-1.67,1.67ZM252.17,168.07c-.92,0-1.67-.75-1.67-1.67s.75-1.67,1.67-1.67h3.31s0,0,0,0c.92,0,1.67.75,1.67,1.67s-.75,1.67-1.67,1.67h-3.31ZM262.11,168.07c-.92,0-1.67-.75-1.67-1.67s.75-1.67,1.67-1.67h3.31s0,0,0,0c.92,0,1.67.75,1.67,1.67s-.75,1.67-1.67,1.67h-3.31ZM272.04,168.07c-.92,0-1.67-.75-1.67-1.67s.75-1.67,1.67-1.67h3.31s0,0,0,0c.92,0,1.67.75,1.67,1.67s-.75,1.67-1.67,1.67h-3.31ZM281.97,168.07c-.92,0-1.67-.75-1.67-1.67s.75-1.67,1.67-1.67h3.31s0,0,0,0c.92,0,1.67.75,1.67,1.67s-.75,1.67-1.67,1.67h-3.31Z"/><path class="cls-3" d="M291.86,168.07c-.92,0-1.67-.75-1.67-1.67s.75-1.67,1.67-1.67h1.67c.92,0,1.67.75,1.67,1.67s-.75,1.67-1.67,1.67h-1.66s0,0,0,0Z"/><path class="cls-2" d="M201.93,32.8c.07,11.1.35,37.57.41,49.39,0,1.97,1.72,3.55,3.83,3.56,11.14.02,36.83.08,48.63.09,2.13,0,3.84-1.61,3.84-3.59-.04-12.46-.25-38.75-.3-49.55,0-1.97-1.72-3.56-3.84-3.56-11.08.01-37.4.05-48.73.06-2.13,0-3.84,1.61-3.83,3.6Z"/><path class="cls-2" d="M201.89,105.06c.07,11.1.35,37.57.41,49.39,0,1.97,1.72,3.55,3.83,3.56,11.14.02,36.83.08,48.63.09,2.13,0,3.84-1.61,3.84-3.59-.04-12.46-.25-38.75-.3-49.55,0-1.97-1.72-3.56-3.84-3.56-11.08.01-37.4.05-48.73.06-2.13,0-3.84,1.61-3.83,3.6Z"/><path class="cls-3" d="M266.07,110.31c8.6.03,17.2,0,25.8,0,2.58,0,2.58-4,0-4-8.6,0-17.2.03-25.8,0-2.58,0-2.58,3.99,0,4h0Z"/><path class="cls-3" d="M266.07,120.74c4.9,0,9.8-.11,14.69-.11,2.58,0,2.58-4,0-4-4.9,0-9.8.11-14.69.11-2.58,0-2.58,4,0,4h0Z"/><path class="cls-7" d="M266.07,182.95c8.6.03,17.2,0,25.8,0,2.58,0,2.58-4,0-4-8.6,0-17.2.03-25.8,0-2.58,0-2.58,3.99,0,4h0Z"/><path class="cls-7" d="M266.07,193.37c4.9,0,9.8-.11,14.69-.11,2.58,0,2.58-4,0-4-4.9,0-9.8.11-14.69.11-2.58,0-2.58,4,0,4h0Z"/><path class="cls-3" d="M266.07,37.3c8.6.03,17.2,0,25.8,0,2.58,0,2.58-4,0-4-8.6,0-17.2.03-25.8,0-2.58,0-2.58,3.99,0,4h0Z"/><path class="cls-3" d="M266.07,47.72c5.06,0,10.12-.11,15.19-.11,2.58,0,2.58-4,0-4-5.06,0-10.12.11-15.19.11-2.58,0-2.58,4,0,4h0Z"/><path class="cls-2" d="M201.93,178.99c.07,11.1.35,37.57.41,49.39,0,1.97,1.72,3.55,3.83,3.56,11.14.02,36.83.08,48.63.09,2.13,0,3.84-1.61,3.84-3.59-.04-12.46-.25-38.75-.3-49.55,0-1.97-1.72-3.56-3.84-3.56-11.08.01-37.4.05-48.73.06-2.13,0-3.84,1.61-3.83,3.6Z"/><path class="cls-3" d="M266.25,155.08c6.1.08,12.2,0,18.3,0,1.08,0,2-.92,2-2v-18.21c0-1.08-.92-2-2-2-6.1,0-12.2.08-18.3,0-1.08-.01-2,.93-2,2v18.21c0,2.58,4,2.58,4,0v-18.21l-2,2c6.1.08,12.2,0,18.3,0l-2-2v18.21l2-2c-6.1,0-12.2.08-18.3,0-2.58-.03-2.58,3.97,0,4Z"/><path class="cls-3" d="M266.07,82.82c6.3.08,12.6,0,18.9,0,1.08,0,2-.92,2-2v-18.81c0-1.08-.92-2-2-2-6.3,0-12.6.08-18.9,0-1.08-.01-2,.93-2,2v18.81c0,2.58,4,2.58,4,0v-18.81l-2,2c6.3.08,12.6,0,18.9,0l-2-2v18.81l2-2c-6.3,0-12.6.08-18.9,0-2.58-.03-2.58,3.97,0,4Z"/><path class="cls-7" d="M284.28,208.81c-7.71,0-14.98.01-18.03-.01v18.21c3.06.02,11.17.02,18.9.01-2.04-5.61-2.84-13.21-.86-18.21Z"/><path class="cls-7" d="M284.28,206.81c-6.01,0-12.02.03-18.03-.01-1.08,0-2,.92-2,2v18.21c0,1.09.92,1.99,2,2,6.3.05,12.6.02,18.9.01,1.22,0,2.37-1.29,1.93-2.53-1.89-5.29-2.93-11.76-.86-17.15.39-1.01-.43-2.2-1.4-2.46-1.13-.31-2.07.38-2.46,1.4-1.13,2.96-1.35,6.27-1.14,9.41.22,3.36.88,6.7,2.01,9.87.64-.84,1.29-1.69,1.93-2.53-6.3,0-12.6.04-18.9-.01.67.67,1.33,1.33,2,2v-18.21c-.67.67-1.33,1.33-2,2,6.01.05,12.02.02,18.03.01,2.58,0,2.58-4,0-4Z"/><path class="cls-6" d="M267.77,219.63c1.05,1.05,2.07,2.12,3.12,3.16.77.77,2.06.76,2.83,0,2.16-2.12,4.3-4.25,6.41-6.41.73-.75.8-2.09,0-2.83s-2.05-.8-2.83,0c-2.11,2.16-4.25,4.3-6.41,6.41h2.83c-1.05-1.05-2.07-2.12-3.12-3.16-.74-.74-2.1-.8-2.83,0s-.79,2.04,0,2.83h0Z"/><path class="cls-5" d="M247.85,77.4c0-6.62-4.21-12.82-11.34-13.03,1.16-.31,6.36-5.44,6.36-11.68,0-4.43-3.68-11.76-12.89-11.76-9.21,0-12.89,7.33-12.89,11.76,0,6.25,5.2,11.38,6.36,11.68-4.84-.11-10.73,6.41-10.73,13.03h35.14Z"/><path class="cls-5" d="M212.68,149.66h0c0-6.62,5.89-13.14,10.73-13.03-1.16-.31-6.36-5.44-6.36-11.68,0-4.43,3.68-11.76,12.89-11.76,9.21,0,12.89,7.33,12.89,11.76,0,6.25-5.2,11.38-6.36,11.68,7.13.21,11.34,6.41,11.34,13.03h-35.14Z"/><path class="cls-5" d="M212.72,223.59c0-6.62,5.89-13.14,10.73-13.03-1.16-.31-6.36-5.44-6.36-11.68,0-4.43,3.68-11.76,12.89-11.76,9.21,0,12.89,7.33,12.89,11.76,0,6.25-5.2,11.38-6.36,11.68,7.13.21,11.34,6.41,11.34,13.03h-35.14Z"/><g id="right_x5F_hand"><path class="cls-6" d="M390.58,392.93c-14.03-16.23-28.58-16.52-43.99-24.21-14.16-7.07-21.07-21.75-26.96-36.45-2.43-6.07-4.91-12.35-4.71-18.88s5.09-15.98,10.91-20.75l.43-.36c-10.56-19.59-17.67-35.67-28.37-58.77-1.91-4.12-5.07-11.46-5.41-15.95-.59-7.72,2.66-10.94,7.41-11.39,1.42-.13,8.02.85,12.47,8.25,10.79,17.96,19.92,33.97,27.94,47.39-1.36-10.81,8.48-10.34,13.25-9.05,4.1,1.11,6.87,3.78,9.32,7.25,2.16,3.06,4.21,6.04,6.27,9.09-.71-7.5,2.41-11.03,8-12.15,2.99-.6,7.39.12,9.73,2.85,1.37,1.6,2.67,3.13,3.92,4.63,3.58-3.88,9.81-4.21,14.67-2.17,4.81,2.02,8.55,5.91,12.03,9.8,9.35,10.46,18.05,22.16,21.19,35.83,4.11,17.86-.67,42.32,9.91,57.29l-58.01,27.77Z"/><path class="cls-1" d="M336.63,319.53c-.99-8.42-3.34-16.76-6.78-24.51-1.57-3.54-3.56-6.89-5.35-10.32-1.91-3.67-3.78-7.36-5.62-11.07-3.7-7.49-7.24-15.06-10.75-22.65-1.94-4.2-3.87-8.4-5.81-12.59-1.71-3.7-3.49-7.36-5.01-11.15-1.31-3.28-2.73-6.92-2.89-10.36-.08-1.63,0-3.27.5-4.84.36-1.11.87-1.95,1.82-2.71.28-.23-.37.24.14-.1.11-.07.22-.14.33-.21.16-.1.66-.35.64-.34.32-.14,1.16-.37,1.71-.47.32-.06-.02-.03.38-.05.13,0,.26,0,.4,0s.28.02.41.03c.41.02-.39-.07-.11-.02.11.02.22.03.34.06,2.48.5,4.56,1.54,6.54,3.36,1.5,1.38,2.59,2.99,3.64,4.72,1.3,2.16,2.59,4.33,3.88,6.49,2.46,4.13,4.9,8.28,7.33,12.43,4.35,7.42,8.68,14.87,13.06,22.28,6.73,11.39,13.46,22.94,21.51,33.47.82,1.07,1.65,2.13,2.5,3.18.68.84,2.12.71,2.83,0,.83-.83.68-1.99,0-2.83-7.94-9.76-14.77-21.36-21.33-32.4-4.41-7.42-8.75-14.89-13.11-22.34-2.42-4.13-4.84-8.26-7.28-12.38-1.3-2.19-2.6-4.38-3.9-6.57-1.25-2.09-2.41-4.29-3.89-6.23-3.23-4.24-8.84-8.14-14.43-7.04-2.84.56-5.37,2.38-6.6,5.03-1.58,3.37-1.57,7.36-.8,10.95.82,3.83,2.35,7.52,3.9,11.1,1.76,4.07,3.69,8.08,5.55,12.11,3.73,8.09,7.45,16.19,11.29,24.23,3.69,7.73,7.52,15.39,11.55,22.95,1.73,3.25,3.39,6.45,4.68,9.91,1.52,4.07,2.75,8.25,3.68,12.5.46,2.1.84,4.22,1.09,6.35.13,1.07.83,2,2,2,.98,0,2.13-.92,2-2h0Z"/><path class="cls-1" d="M342.25,258.47c.15-.75.33-1.37.68-1.96.26-.44.74-.96,1.02-1.16.54-.4,1.08-.64,1.5-.77.27-.09.55-.17.83-.23.18-.04.35-.07.53-.11.29-.06.24-.04.33-.05,2.78-.31,5.45.01,8.02,1.31,3.57,1.8,5.73,5.16,7.94,8.34,2.5,3.6,4.96,7.24,7.42,10.88,3.06,4.52,6.13,9.03,9.26,13.5.62.88,1.75,1.3,2.74.72.88-.51,1.34-1.85.72-2.74-5.77-8.25-11.31-16.67-17.07-24.94-2.59-3.72-5.27-7.55-9.54-9.48-3-1.36-6.53-1.97-9.81-1.56-4.14.51-7.58,2.92-8.42,7.19-.21,1.06.3,2.16,1.4,2.46.98.27,2.25-.33,2.46-1.4h0Z"/><path class="cls-1" d="M371.14,265.15c.45-2.59,1.67-4.53,4.1-5.57,2.44-1.05,5.32-1.17,7.84-.09,1.43.62,2.33,1.67,3.32,2.83,1.18,1.38,2.35,2.77,3.51,4.16,2.22,2.67,4.39,5.38,6.49,8.14,2.67,3.51,5.23,7.1,7.72,10.74,1.45,2.11,4.92.11,3.46-2.02-4.68-6.83-9.65-13.45-14.95-19.82-2.48-2.98-4.74-6.44-8.49-7.89-3.17-1.23-6.81-1.15-9.96.09-3.71,1.45-6.21,4.42-6.9,8.37-.19,1.06.29,2.16,1.4,2.46.97.27,2.27-.33,2.46-1.4h0Z"/><path class="cls-1" d="M392.3,265.72c2.63-2.67,6.64-3.19,10.17-2.34,4.26,1.02,7.74,3.94,10.74,7.01,6.31,6.45,12.16,13.69,16.74,21.48,4.35,7.4,7.08,15.36,8,23.9.9,8.31.79,16.7,1.49,25.03.73,8.79,2.26,18,7.43,25.39.62.88,1.75,1.29,2.74.72.88-.51,1.34-1.85.72-2.74-4.58-6.55-6.09-14.61-6.8-22.42-.78-8.59-.64-17.24-1.55-25.82-.45-4.27-1.17-8.51-2.47-12.61-1.43-4.53-3.45-8.89-5.83-13-2.41-4.16-5.21-8.08-8.18-11.85-2.97-3.76-6.09-7.46-9.45-10.89-3.57-3.64-7.85-7.06-12.95-8.14-4.8-1.01-10.08-.12-13.62,3.47-1.81,1.84,1.02,4.67,2.83,2.83h0Z"/><path class="cls-1" d="M391.99,391.52c-3.36-3.86-7.17-7.29-11.43-10.13-3.6-2.4-7.48-4.28-11.47-5.92-7.74-3.18-16.02-5.29-23.33-9.46s-13.04-11.36-17.19-18.93c-2.16-3.94-4.01-8.04-5.73-12.19-2-4.83-4.1-9.71-5.24-14.83-.58-2.61-.93-5.39-.58-8.05.27-2.04.94-4.15,1.74-6.07,1.87-4.48,4.72-8.76,8.48-11.88.83-.69.71-2.12,0-2.83-.82-.82-2-.69-2.83,0-3.53,2.93-6.3,6.87-8.31,10.97-1.95,3.97-3.32,8.26-3.18,12.73.18,5.73,2.12,11.18,4.21,16.45,1.76,4.44,3.58,8.87,5.65,13.17,3.94,8.19,9,16.1,16.25,21.74,7.14,5.55,15.98,8.17,24.36,11.26,4.49,1.65,8.91,3.5,13.03,5.96,4.84,2.9,9.05,6.6,12.75,10.84,1.69,1.95,4.51-.89,2.83-2.83h0Z"/></g></g></svg>