<svg width="157" height="21" viewBox="0 0 157 21" fill="none" xmlns="http://www.w3.org/2000/svg">
<path d="M8.43514 15.2153C9.44798 14.1507 14.6106 8.72805 14.6134 8.72508C14.7204 8.60778 14.923 8.38506 14.923 8.38506C15.0243 8.25884 15.0985 8.10739 15.1313 7.9396C15.1441 7.87576 15.1498 7.80894 15.1498 7.74064C15.1498 7.57136 15.1099 7.41249 15.0385 7.27291C14.9487 7.09622 14.796 6.94773 14.642 6.86013C14.4879 6.77252 14.2967 6.67155 14.2967 6.67155C14.291 6.66858 13.8588 6.4414 13.2497 6.12216L6.89734 12.7327C6.54641 13.0994 6.07994 13.3014 5.58351 13.3014C5.28822 13.3014 4.99578 13.2212 4.7333 13.0786C4.61917 13.0252 4.42945 12.9257 4.07709 12.7431L3.58209 12.4847C3.54214 12.5263 3.51789 12.5515 3.51361 12.556C3.36525 12.7148 3.30534 12.7728 3.15983 12.9554C3.00577 13.1484 2.94443 13.3474 2.943 13.5864C2.94157 13.9235 3.12845 14.2665 3.39236 14.4343C3.57067 14.5471 3.64485 14.5932 3.75755 14.6555C3.76468 14.6585 6.58493 16.1315 8.0243 16.8828L8.22544 16.6734C7.99577 16.2874 7.90875 15.7677 8.43514 15.2123V15.2153Z" fill="white"/>
<path d="M21.7903 10.5438L17.5806 8.3477C17.3909 8.24228 17.174 8.1814 16.9444 8.1814C16.5777 8.1814 16.2454 8.33434 16.0014 8.58082L8.22541 16.6747L8.02427 16.884L7.29388 17.6443C6.95437 17.9977 6.48362 18.2145 5.96579 18.2145C5.64767 18.2145 5.34525 18.1343 5.08276 17.9873L6.33526 18.6406C6.33526 18.6406 10.5635 20.8426 10.5592 20.8411C10.7461 20.9421 10.9572 21 11.1812 21C11.5564 21 11.8944 20.8411 12.1398 20.5843L20.7988 11.5728C21.0028 11.3486 21.2653 11.1719 21.5677 11.0679C22.0585 10.8972 22.5706 10.9491 23 11.1733L21.7889 10.5423L21.7903 10.5438Z" fill="white"/>
<path d="M13.6476 1.03939L11.9643 0.161847C11.7731 0.0564239 11.5592 0 11.3438 0C11 0 10.6733 0.13809 10.4265 0.389028L1.71897 9.45248C1.61911 9.55642 1.50356 9.65145 1.37375 9.7346C1.27104 9.80142 1.1612 9.85784 1.04707 9.90239C0.825961 9.98999 0.597716 10.0345 0.366618 10.0345C0.305277 10.0345 0.241084 10.0316 0.169757 10.0227H0.159771L0.144079 10.0197C0.097004 10.0138 0.0499285 10.0063 0 9.99593L0.753208 10.3879L0.800283 10.4132L0.825961 10.4265L0.883022 10.4562L3.96718 12.0628L4.25676 12.2143L4.96718 12.584L4.97574 12.5885C5.16546 12.6909 5.36946 12.7429 5.58201 12.7429C5.93436 12.7429 6.26674 12.5989 6.51496 12.339L12.7517 5.84878L15.1754 3.32752C15.3865 3.09589 15.6576 2.91771 15.9586 2.81377C16.0114 2.79595 16.067 2.77962 16.1312 2.76328C16.144 2.76031 16.1569 2.75735 16.1683 2.75586L16.1854 2.75289C16.2253 2.74398 16.2653 2.73656 16.3067 2.73062C16.3266 2.72765 16.348 2.72468 16.368 2.72319C16.4079 2.71874 16.4479 2.71577 16.4878 2.71429H16.5049C16.5178 2.71429 16.5292 2.7128 16.542 2.71132H16.5506C16.5506 2.71132 16.5592 2.71132 16.5649 2.71132C16.5748 2.71132 16.5848 2.71132 16.5948 2.7128C16.602 2.7128 16.6077 2.7128 16.6148 2.7128C16.669 2.71428 16.7132 2.71725 16.7546 2.72171C16.7803 2.72468 16.8059 2.72765 16.8302 2.7321C16.863 2.73656 16.8958 2.7425 16.9286 2.74992L16.1726 2.35644L13.6462 1.03939H13.6476Z" fill="white"/>
<path d="M27.008 16.5V6.07H28.912V10.62H33.35V6.07H35.268V16.5H33.35V12.3H28.912V16.5H27.008ZM38.0456 19.58C37.8402 19.58 37.6396 19.5613 37.4436 19.524C37.2476 19.496 37.0702 19.44 36.9116 19.356V17.83C37.0329 17.858 37.1776 17.886 37.3456 17.914C37.5229 17.942 37.6862 17.956 37.8356 17.956C38.2556 17.956 38.5589 17.858 38.7456 17.662C38.9416 17.4753 39.1142 17.2233 39.2636 16.906L39.7676 15.73L39.7396 17.27L36.4216 8.884H38.3956L40.7196 15.072H40.0196L42.3296 8.884H44.3176L40.9996 17.27C40.8036 17.7553 40.5656 18.1707 40.2856 18.516C40.0056 18.8613 39.6789 19.1227 39.3056 19.3C38.9416 19.4867 38.5216 19.58 38.0456 19.58ZM47.2427 16.5L44.6247 8.884H46.5567L48.4747 14.666L47.8027 14.652L49.8467 8.884H51.4707L53.5007 14.652L52.8287 14.666L54.7467 8.884H56.6787L54.0607 16.5H52.4227L50.3507 10.466H50.9667L48.8667 16.5H47.2427ZM61.1594 16.668C60.3754 16.668 59.6894 16.4907 59.1014 16.136C58.5134 15.7813 58.056 15.3007 57.7294 14.694C57.4027 14.0873 57.2394 13.4153 57.2394 12.678C57.2394 11.9127 57.4027 11.236 57.7294 10.648C58.0654 10.0507 58.518 9.57933 59.0874 9.234C59.666 8.88867 60.31 8.716 61.0194 8.716C61.6167 8.716 62.1394 8.814 62.5874 9.01C63.0447 9.206 63.432 9.47667 63.7494 9.822C64.0667 10.1673 64.3094 10.564 64.4774 11.012C64.6454 11.4507 64.7294 11.9267 64.7294 12.44C64.7294 12.5707 64.72 12.706 64.7014 12.846C64.692 12.986 64.6687 13.1073 64.6314 13.21H58.7514V11.81H63.5954L62.7274 12.468C62.8114 12.0387 62.788 11.656 62.6574 11.32C62.536 10.984 62.3307 10.718 62.0414 10.522C61.7614 10.326 61.4207 10.228 61.0194 10.228C60.6367 10.228 60.296 10.326 59.9974 10.522C59.6987 10.7087 59.47 10.9887 59.3114 11.362C59.162 11.726 59.106 12.1693 59.1434 12.692C59.106 13.1587 59.1667 13.574 59.3254 13.938C59.4934 14.2927 59.736 14.568 60.0534 14.764C60.38 14.96 60.7534 15.058 61.1734 15.058C61.5934 15.058 61.948 14.9693 62.2374 14.792C62.536 14.6147 62.7694 14.3767 62.9374 14.078L64.4214 14.806C64.272 15.17 64.0387 15.492 63.7214 15.772C63.404 16.052 63.026 16.2713 62.5874 16.43C62.158 16.5887 61.682 16.668 61.1594 16.668ZM70.2776 16.668C69.727 16.668 69.2183 16.5607 68.7516 16.346C68.2943 16.122 67.9303 15.8047 67.6596 15.394L67.8416 15.03V16.5H66.1196V5.902H67.9536V10.396L67.6736 10.018C67.935 9.60733 68.2896 9.29 68.7376 9.066C69.1856 8.83267 69.7036 8.716 70.2916 8.716C71.0103 8.716 71.659 8.89333 72.2376 9.248C72.8163 9.60267 73.2736 10.0787 73.6096 10.676C73.955 11.2733 74.1276 11.9453 74.1276 12.692C74.1276 13.4293 73.9596 14.1013 73.6236 14.708C73.2876 15.3147 72.8303 15.7953 72.2516 16.15C71.673 16.4953 71.015 16.668 70.2776 16.668ZM70.0676 14.988C70.4876 14.988 70.861 14.89 71.1876 14.694C71.5143 14.498 71.7663 14.2273 71.9436 13.882C72.1303 13.5367 72.2236 13.14 72.2236 12.692C72.2236 12.244 72.1303 11.852 71.9436 11.516C71.7663 11.1707 71.5143 10.9 71.1876 10.704C70.861 10.4987 70.4876 10.396 70.0676 10.396C69.6663 10.396 69.3023 10.494 68.9756 10.69C68.6583 10.886 68.4063 11.1613 68.2196 11.516C68.0423 11.8613 67.9536 12.2533 67.9536 12.692C67.9536 13.14 68.0423 13.5367 68.2196 13.882C68.4063 14.2273 68.6583 14.498 68.9756 14.694C69.3023 14.89 69.6663 14.988 70.0676 14.988ZM80.0162 16.5V7.75H77.3142V6.07H84.5942V7.75H81.9342V16.5H80.0162ZM88.2297 16.668C87.4457 16.668 86.7597 16.4907 86.1717 16.136C85.5837 15.7813 85.1263 15.3007 84.7997 14.694C84.473 14.0873 84.3097 13.4153 84.3097 12.678C84.3097 11.9127 84.473 11.236 84.7997 10.648C85.1357 10.0507 85.5883 9.57933 86.1577 9.234C86.7363 8.88867 87.3803 8.716 88.0897 8.716C88.687 8.716 89.2097 8.814 89.6577 9.01C90.115 9.206 90.5023 9.47667 90.8197 9.822C91.137 10.1673 91.3797 10.564 91.5477 11.012C91.7157 11.4507 91.7997 11.9267 91.7997 12.44C91.7997 12.5707 91.7903 12.706 91.7717 12.846C91.7623 12.986 91.739 13.1073 91.7017 13.21H85.8217V11.81H90.6657L89.7977 12.468C89.8817 12.0387 89.8583 11.656 89.7277 11.32C89.6063 10.984 89.401 10.718 89.1117 10.522C88.8317 10.326 88.491 10.228 88.0897 10.228C87.707 10.228 87.3663 10.326 87.0677 10.522C86.769 10.7087 86.5403 10.9887 86.3817 11.362C86.2323 11.726 86.1763 12.1693 86.2137 12.692C86.1763 13.1587 86.237 13.574 86.3957 13.938C86.5637 14.2927 86.8063 14.568 87.1237 14.764C87.4503 14.96 87.8237 15.058 88.2437 15.058C88.6637 15.058 89.0183 14.9693 89.3077 14.792C89.6063 14.6147 89.8397 14.3767 90.0077 14.078L91.4917 14.806C91.3423 15.17 91.109 15.492 90.7917 15.772C90.4743 16.052 90.0963 16.2713 89.6577 16.43C89.2283 16.5887 88.7523 16.668 88.2297 16.668ZM96.8579 16.668C96.1019 16.668 95.4206 16.4953 94.8139 16.15C94.2166 15.7953 93.7453 15.3193 93.3999 14.722C93.0546 14.1153 92.8819 13.434 92.8819 12.678C92.8819 11.922 93.0546 11.2453 93.3999 10.648C93.7453 10.0507 94.2166 9.57933 94.8139 9.234C95.4206 8.88867 96.1019 8.716 96.8579 8.716C97.3993 8.716 97.9033 8.814 98.3699 9.01C98.8366 9.19667 99.2379 9.458 99.5739 9.794C99.9193 10.1207 100.167 10.5127 100.316 10.97L98.7059 11.67C98.5659 11.2873 98.3279 10.9793 97.9919 10.746C97.6653 10.5127 97.2873 10.396 96.8579 10.396C96.4566 10.396 96.0973 10.494 95.7799 10.69C95.4719 10.886 95.2293 11.1567 95.0519 11.502C94.8746 11.8473 94.7859 12.244 94.7859 12.692C94.7859 13.14 94.8746 13.5367 95.0519 13.882C95.2293 14.2273 95.4719 14.498 95.7799 14.694C96.0973 14.89 96.4566 14.988 96.8579 14.988C97.2966 14.988 97.6793 14.8713 98.0059 14.638C98.3326 14.4047 98.5659 14.092 98.7059 13.7L100.316 14.428C100.167 14.8573 99.9239 15.2447 99.5879 15.59C99.2519 15.926 98.8506 16.192 98.3839 16.388C97.9173 16.5747 97.4086 16.668 96.8579 16.668ZM101.708 16.5V5.902H103.542V10.382L103.29 10.116C103.467 9.65867 103.756 9.31333 104.158 9.08C104.568 8.83733 105.044 8.716 105.586 8.716C106.146 8.716 106.64 8.83733 107.07 9.08C107.508 9.32267 107.849 9.66333 108.092 10.102C108.334 10.5313 108.456 11.0307 108.456 11.6V16.5H106.622V12.034C106.622 11.698 106.556 11.4087 106.426 11.166C106.295 10.9233 106.113 10.7367 105.88 10.606C105.656 10.466 105.39 10.396 105.082 10.396C104.783 10.396 104.517 10.466 104.284 10.606C104.05 10.7367 103.868 10.9233 103.738 11.166C103.607 11.4087 103.542 11.698 103.542 12.034V16.5H101.708ZM110.006 16.5V8.884H111.728V10.382L111.588 10.116C111.766 9.65867 112.055 9.31333 112.456 9.08C112.867 8.83733 113.343 8.716 113.884 8.716C114.444 8.716 114.939 8.83733 115.368 9.08C115.807 9.32267 116.148 9.66333 116.39 10.102C116.633 10.5313 116.754 11.0307 116.754 11.6V16.5H114.92V12.034C114.92 11.698 114.855 11.4087 114.724 11.166C114.594 10.9233 114.412 10.7367 114.178 10.606C113.954 10.466 113.688 10.396 113.38 10.396C113.082 10.396 112.816 10.466 112.582 10.606C112.349 10.7367 112.167 10.9233 112.036 11.166C111.906 11.4087 111.84 11.698 111.84 12.034V16.5H110.006ZM122.029 16.668C121.283 16.668 120.601 16.4953 119.985 16.15C119.379 15.8047 118.893 15.3333 118.529 14.736C118.175 14.1387 117.997 13.4573 117.997 12.692C117.997 11.9267 118.175 11.2453 118.529 10.648C118.893 10.0507 119.379 9.57933 119.985 9.234C120.592 8.88867 121.273 8.716 122.029 8.716C122.776 8.716 123.453 8.88867 124.059 9.234C124.666 9.57933 125.147 10.0507 125.501 10.648C125.865 11.236 126.047 11.9173 126.047 12.692C126.047 13.4573 125.865 14.1387 125.501 14.736C125.137 15.3333 124.652 15.8047 124.045 16.15C123.439 16.4953 122.767 16.668 122.029 16.668ZM122.029 14.988C122.44 14.988 122.799 14.89 123.107 14.694C123.425 14.498 123.672 14.2273 123.849 13.882C124.036 13.5273 124.129 13.1307 124.129 12.692C124.129 12.244 124.036 11.852 123.849 11.516C123.672 11.1707 123.425 10.9 123.107 10.704C122.799 10.4987 122.44 10.396 122.029 10.396C121.609 10.396 121.241 10.4987 120.923 10.704C120.606 10.9 120.354 11.1707 120.167 11.516C119.99 11.852 119.901 12.244 119.901 12.692C119.901 13.1307 119.99 13.5273 120.167 13.882C120.354 14.2273 120.606 14.498 120.923 14.694C121.241 14.89 121.609 14.988 122.029 14.988ZM127.438 16.5V5.902H129.272V16.5H127.438ZM134.689 16.668C133.943 16.668 133.261 16.4953 132.645 16.15C132.039 15.8047 131.553 15.3333 131.189 14.736C130.835 14.1387 130.657 13.4573 130.657 12.692C130.657 11.9267 130.835 11.2453 131.189 10.648C131.553 10.0507 132.039 9.57933 132.645 9.234C133.252 8.88867 133.933 8.716 134.689 8.716C135.436 8.716 136.113 8.88867 136.719 9.234C137.326 9.57933 137.807 10.0507 138.161 10.648C138.525 11.236 138.707 11.9173 138.707 12.692C138.707 13.4573 138.525 14.1387 138.161 14.736C137.797 15.3333 137.312 15.8047 136.705 16.15C136.099 16.4953 135.427 16.668 134.689 16.668ZM134.689 14.988C135.1 14.988 135.459 14.89 135.767 14.694C136.085 14.498 136.332 14.2273 136.509 13.882C136.696 13.5273 136.789 13.1307 136.789 12.692C136.789 12.244 136.696 11.852 136.509 11.516C136.332 11.1707 136.085 10.9 135.767 10.704C135.459 10.4987 135.1 10.396 134.689 10.396C134.269 10.396 133.901 10.4987 133.583 10.704C133.266 10.9 133.014 11.1707 132.827 11.516C132.65 11.852 132.561 12.244 132.561 12.692C132.561 13.1307 132.65 13.5273 132.827 13.882C133.014 14.2273 133.266 14.498 133.583 14.694C133.901 14.89 134.269 14.988 134.689 14.988ZM143.794 19.58C143.225 19.58 142.697 19.4867 142.212 19.3C141.727 19.1133 141.307 18.852 140.952 18.516C140.607 18.1893 140.355 17.802 140.196 17.354L141.904 16.71C142.016 17.0647 142.235 17.3493 142.562 17.564C142.898 17.788 143.309 17.9 143.794 17.9C144.167 17.9 144.494 17.83 144.774 17.69C145.063 17.55 145.287 17.3447 145.446 17.074C145.605 16.8127 145.684 16.4953 145.684 16.122V14.386L146.034 14.806C145.773 15.2633 145.423 15.6087 144.984 15.842C144.545 16.0753 144.046 16.192 143.486 16.192C142.777 16.192 142.142 16.0287 141.582 15.702C141.022 15.3753 140.583 14.9273 140.266 14.358C139.949 13.7887 139.79 13.1493 139.79 12.44C139.79 11.7213 139.949 11.082 140.266 10.522C140.583 9.962 141.017 9.52333 141.568 9.206C142.119 8.87933 142.744 8.716 143.444 8.716C144.013 8.716 144.513 8.83733 144.942 9.08C145.381 9.31333 145.745 9.654 146.034 10.102L145.782 10.564V8.884H147.518V16.122C147.518 16.7847 147.355 17.3773 147.028 17.9C146.711 18.4227 146.272 18.8333 145.712 19.132C145.161 19.4307 144.522 19.58 143.794 19.58ZM143.71 14.498C144.102 14.498 144.443 14.414 144.732 14.246C145.031 14.0687 145.264 13.826 145.432 13.518C145.6 13.21 145.684 12.8553 145.684 12.454C145.684 12.062 145.595 11.712 145.418 11.404C145.25 11.0867 145.017 10.8393 144.718 10.662C144.429 10.4847 144.093 10.396 143.71 10.396C143.327 10.396 142.982 10.4847 142.674 10.662C142.366 10.8393 142.123 11.0867 141.946 11.404C141.778 11.712 141.694 12.062 141.694 12.454C141.694 12.846 141.778 13.196 141.946 13.504C142.123 13.812 142.361 14.0547 142.66 14.232C142.968 14.4093 143.318 14.498 143.71 14.498ZM150.155 19.58C149.95 19.58 149.749 19.5613 149.553 19.524C149.357 19.496 149.18 19.44 149.021 19.356V17.83C149.142 17.858 149.287 17.886 149.455 17.914C149.632 17.942 149.796 17.956 149.945 17.956C150.365 17.956 150.668 17.858 150.855 17.662C151.051 17.4753 151.224 17.2233 151.373 16.906L151.877 15.73L151.849 17.27L148.531 8.884H150.505L152.829 15.072H152.129L154.439 8.884H156.427L153.109 17.27C152.913 17.7553 152.675 18.1707 152.395 18.516C152.115 18.8613 151.788 19.1227 151.415 19.3C151.051 19.4867 150.631 19.58 150.155 19.58Z" fill="white"/>
</svg>
