<svg width="56" height="56" viewBox="0 0 56 56" fill="none" xmlns="http://www.w3.org/2000/svg">
<path d="M38.3126 55.5H17.6874C16.5006 55.5 15.5387 54.538 15.5387 53.3512C15.5387 52.1644 16.5006 51.2024 17.6874 51.2024H38.3126C39.4993 51.2024 40.4613 52.1644 40.4613 53.3512C40.4613 54.538 39.4993 55.5 38.3126 55.5Z" fill="#FF6C59"/>
<path d="M33.8008 37.0222H22.3063C17.5674 37.0222 13.7122 33.1669 13.7122 28.4278V9.09435C13.713 4.35525 17.5682 0.5 22.3071 0.5H33.8016C38.5406 0.5 42.3958 4.35525 42.3958 9.09435V28.4286C42.3958 33.1677 38.5406 37.023 33.8016 37.023L33.8008 37.0222ZM22.3071 4.79677C19.9376 4.79677 18.0105 6.7248 18.0105 9.09355V28.4278C18.0105 30.7974 19.9385 32.7246 22.3071 32.7246H33.8016C36.1711 32.7246 38.0983 30.7974 38.0983 28.4278V9.09435C38.0983 6.7248 36.1711 4.79758 33.8016 4.79758H22.3071V4.79677Z" fill="#FF6C59"/>
<path d="M42.6101 46.9057H13.3883C6.2815 46.9057 0.5 41.124 0.5 34.0169V16.3964C0.5 14.1211 1.10184 11.8837 2.23945 9.92584C3.34241 8.02923 4.92233 6.43315 6.80841 5.31082C7.82839 4.70413 9.14647 5.0393 9.75314 6.0585C10.3598 7.07771 10.0247 8.39663 9.00548 9.00332C7.74541 9.75262 6.69078 10.8186 5.9544 12.0851C5.19707 13.3879 4.79665 14.8785 4.79665 16.3956V34.0161C4.79665 38.7536 8.65098 42.6081 13.3883 42.6081H42.6092C47.3482 42.6081 51.2034 38.7528 51.2034 34.0137V16.3956C51.2034 14.8785 50.8029 13.3879 50.0456 12.0851C49.3092 10.8186 48.2538 9.75262 46.9945 9.00332C45.9745 8.39663 45.6402 7.07851 46.2469 6.0585C46.8535 5.03849 48.1716 4.70413 49.1916 5.31082C51.0777 6.43315 52.6576 8.02843 53.7606 9.92584C54.899 11.8837 55.5 14.1211 55.5 16.3964V34.0145C55.5 41.1224 49.7169 46.9057 42.6092 46.9057H42.6101Z" fill="#FF6C59"/>
<path d="M31.6529 13.3911H24.4559C23.2691 13.3911 22.3071 12.4291 22.3071 11.2423C22.3071 10.0555 23.2691 9.09351 24.4559 9.09351H31.6529C32.8397 9.09351 33.8016 10.0555 33.8016 11.2423C33.8016 12.4291 32.8397 13.3911 31.6529 13.3911Z" fill="#FF6C59"/>
<path d="M31.6529 20.9107H24.4559C23.2691 20.9107 22.3071 19.9487 22.3071 18.7619C22.3071 17.5752 23.2691 16.6132 24.4559 16.6132H31.6529C32.8397 16.6132 33.8016 17.5752 33.8016 18.7619C33.8016 19.9487 32.8397 20.9107 31.6529 20.9107Z" fill="#FF6C59"/>
<path d="M27.3554 28.431H24.455C23.2683 28.431 22.3063 27.469 22.3063 26.2822C22.3063 25.0954 23.2683 24.1334 24.455 24.1334H27.3554C28.5422 24.1334 29.5042 25.0954 29.5042 26.2822C29.5042 27.469 28.5422 28.431 27.3554 28.431Z" fill="#FF6C59"/>
</svg>
