<svg width="50" height="50" viewBox="0 0 50 50" fill="none" xmlns="http://www.w3.org/2000/svg">
<path fill-rule="evenodd" clip-rule="evenodd" d="M11.4404 16.7044C11.9954 17.6294 11.6955 18.8291 10.7705 19.3841L4.8575 22.9319C4.85747 22.9319 4.85744 22.9319 4.85741 22.9319C4.28328 23.2765 3.90625 23.8998 3.90625 24.6092C3.90625 25.3186 4.28333 25.9419 4.85739 26.2863C4.8624 26.2893 4.86739 26.2924 4.87237 26.2954L24.0043 38.0088C24.2944 38.1814 24.6326 38.2811 25 38.2811C25.3674 38.2811 25.7056 38.1814 25.9957 38.0088L45.1276 26.2954C45.1326 26.2924 45.1376 26.2893 45.1426 26.2863C45.7167 25.9419 46.0938 25.3186 46.0938 24.6092C46.0938 23.8998 45.7167 23.2765 45.1426 22.932L39.2295 19.3841C38.3045 18.8291 38.0046 17.6293 38.5596 16.7044C39.1146 15.7794 40.3143 15.4795 41.2393 16.0345L47.1523 19.5824C47.1523 19.5824 47.1523 19.5824 47.1523 19.5824C48.854 20.6034 50 22.4715 50 24.6092C50 26.7434 48.8578 28.6088 47.1607 29.6309L28.0267 41.3456C28.0217 41.3486 28.0168 41.3516 28.0118 41.3546C27.1302 41.8837 26.0976 42.1873 25 42.1873C23.9024 42.1873 22.8698 41.8837 21.9882 41.3546C21.9832 41.3516 21.9783 41.3486 21.9733 41.3456L2.83936 29.6309C1.14223 28.6088 0 26.7434 0 24.6092C0 22.4715 1.14598 20.6035 2.84758 19.5824L8.76075 16.0345C9.68571 15.4795 10.8854 15.7794 11.4404 16.7044Z" fill="#424242"/>
<path fill-rule="evenodd" clip-rule="evenodd" d="M1.95312 22.6562C3.03181 22.6562 3.90625 23.5307 3.90625 24.6094V44.1406C3.90625 45.2193 4.78073 46.0938 5.85938 46.0938H44.1406C45.2193 46.0938 46.0938 45.2193 46.0938 44.1406V36.3281C46.0938 35.2494 46.9682 34.375 48.0469 34.375C49.1256 34.375 50 35.2494 50 36.3281V44.1406C50 47.3766 47.3766 50 44.1406 50H5.85938C2.62337 50 0 47.3766 0 44.1406V24.6094C0 23.5307 0.874444 22.6562 1.95312 22.6562Z" fill="#424242"/>
<path fill-rule="evenodd" clip-rule="evenodd" d="M13.6719 3.90625C12.5932 3.90625 11.7188 4.78073 11.7188 5.85938V31.5093C11.7188 32.588 10.8443 33.4624 9.76562 33.4624C8.68694 33.4624 7.8125 32.588 7.8125 31.5093V5.85938C7.8125 2.62337 10.4359 0 13.6719 0H36.3281C39.5641 0 42.1875 2.62337 42.1875 5.85938V31.5093C42.1875 32.588 41.3131 33.4624 40.2344 33.4624C39.1557 33.4624 38.2812 32.588 38.2812 31.5093V5.85938C38.2812 4.78073 37.4068 3.90625 36.3281 3.90625H13.6719Z" fill="#424242"/>
<path fill-rule="evenodd" clip-rule="evenodd" d="M15.625 12.8906C15.625 11.8119 16.4994 10.9375 17.5781 10.9375H32.4219C33.5006 10.9375 34.375 11.8119 34.375 12.8906C34.375 13.9693 33.5006 14.8438 32.4219 14.8438H17.5781C16.4994 14.8438 15.625 13.9693 15.625 12.8906Z" fill="#424242"/>
<path fill-rule="evenodd" clip-rule="evenodd" d="M15.625 20.7031C15.625 19.6244 16.4994 18.75 17.5781 18.75H32.4219C33.5006 18.75 34.375 19.6244 34.375 20.7031C34.375 21.7818 33.5006 22.6562 32.4219 22.6562H17.5781C16.4994 22.6562 15.625 21.7818 15.625 20.7031Z" fill="#424242"/>
<path fill-rule="evenodd" clip-rule="evenodd" d="M19.1406 28.5156C19.1406 27.4369 20.0151 26.5625 21.0938 26.5625H28.9062C29.9849 26.5625 30.8594 27.4369 30.8594 28.5156C30.8594 29.5943 29.9849 30.4688 28.9062 30.4688H21.0938C20.0151 30.4688 19.1406 29.5943 19.1406 28.5156Z" fill="#424242"/>
</svg>
