<svg width="50" height="50" viewBox="0 0 50 50" fill="none" xmlns="http://www.w3.org/2000/svg">
<path d="M30.792 50.0002C25.7413 50.0002 20.9931 48.0338 17.4219 44.4628L5.5376 32.5788C1.9664 29.007 0 24.2589 0 19.2092C0 14.1594 1.9664 9.41054 5.5376 5.83946C6.72799 4.6491 8.31073 3.99365 9.9943 3.99365C11.6779 3.99365 13.2606 4.6491 14.451 5.83946L20.3928 11.7818C21.5832 12.9722 22.2386 14.5549 22.2386 16.2384C22.2386 17.9219 21.5832 19.5046 20.3928 20.6949L17.4219 23.6657C17.0248 24.0628 16.8066 24.5898 16.8066 25.1515C16.8066 25.7132 17.0248 26.2402 17.4219 26.6373L23.3636 32.5788C24.183 33.3982 25.5152 33.3982 26.3345 32.5788L29.3054 29.6081C30.4958 28.4177 32.0785 27.7623 33.7621 27.7623C35.4457 27.7623 37.0284 28.4177 38.2188 29.6081L44.1605 35.5504C45.3509 36.7408 46.0064 38.3235 46.0064 40.007C46.0064 41.6905 45.3509 43.2732 44.1605 44.4635C40.5893 48.0346 35.8411 50.001 30.7912 50.001L30.792 50.0002ZM9.9943 8.19497C9.43337 8.19497 8.90553 8.41319 8.50847 8.81024C2.77471 14.5438 2.77471 23.8737 8.50847 29.6073L20.3928 41.4912C26.1265 47.2248 35.4559 47.2248 41.1904 41.4912C41.5875 41.0941 41.8057 40.5671 41.8057 40.0054C41.8057 39.4437 41.5875 38.9167 41.1904 38.5204L35.2487 32.5781C34.8516 32.181 34.3246 31.9628 33.7629 31.9628C33.2012 31.9628 32.6741 32.181 32.277 32.5781L29.3062 35.5488C26.8489 38.006 22.85 38.006 20.3928 35.5488L14.451 29.6073C13.2606 28.4169 12.6051 26.8342 12.6051 25.1507C12.6051 23.4672 13.2606 21.8845 14.451 20.6942L17.4219 17.7234C17.8189 17.3263 18.0372 16.7993 18.0372 16.2376C18.0372 15.6759 17.8189 15.1489 17.4219 14.7526L11.4801 8.81024C11.0831 8.41319 10.556 8.19497 9.9943 8.19497Z" fill="#424242"/>
<path d="M47.8996 25.2085C46.7392 25.2085 45.7985 24.2679 45.7985 23.1075C45.7985 12.6818 37.3168 4.20034 26.8908 4.20034C25.7303 4.20034 24.7897 3.25971 24.7897 2.09929C24.7897 0.938865 25.7311 -0.000976562 26.8908 -0.000976562C39.633 -0.000976562 50 10.3656 50 23.1075C50 24.2679 49.0593 25.2085 47.8988 25.2085H47.8996Z" fill="#424242"/>
<path d="M39.4959 25.2077C38.3355 25.2077 37.3948 24.2671 37.3948 23.1067C37.3948 17.3148 32.6829 12.603 26.8908 12.603C25.7303 12.603 24.7897 11.6624 24.7897 10.5019C24.7897 9.34151 25.7303 8.40088 26.8908 8.40088C34.9998 8.40088 41.5971 14.9979 41.5971 23.1067C41.5971 24.2671 40.6564 25.2077 39.4959 25.2077Z" fill="#424242"/>
</svg>
