<?xml version="1.0" encoding="UTF-8"?><svg id="Capa_1" xmlns="http://www.w3.org/2000/svg" viewBox="0 0 512 512"><defs><style>.cls-1{fill:none;stroke:#424242;stroke-linecap:round;stroke-linejoin:round;stroke-width:40px;}</style></defs><g id="Warranty"><path class="cls-1" d="M396,300v112c0,44.18-35.82,80-80,80H116c-44.18,0-80-35.82-80-80V100c0-44.18,35.82-80,80-80h128.37"/><line class="cls-1" x1="116" y1="140" x2="196" y2="140"/><line class="cls-1" x1="116" y1="220" x2="196" y2="220"/><polyline class="cls-1" points="196 372 236 412 316 332"/><path class="cls-1" d="M476,60v30.4c0,54.8-30.8,105.2-80,129.6-49.2-24.4-80-74.8-80-129.6v-30.4s36-40,80-40,80,40,80,40Z"/></g></svg>