<svg width="44" height="56" viewBox="0 0 44 56" fill="none" xmlns="http://www.w3.org/2000/svg">
<path fill-rule="evenodd" clip-rule="evenodd" d="M27.6234 0.663603C28.4262 0.331066 29.3503 0.514877 29.9647 1.12932L42.8553 14.0199C43.4698 14.6344 43.6536 15.5585 43.3211 16.3613C42.9885 17.1641 42.2051 17.6875 41.3362 17.6875H32.7424C29.1828 17.6875 26.2971 14.8018 26.2971 11.2422V2.6485C26.2971 1.77954 26.8206 0.99614 27.6234 0.663603ZM30.594 7.83528V11.2422C30.594 12.4287 31.5559 13.3907 32.7424 13.3907H36.1494L30.594 7.83528Z" fill="#FF6C59"/>
<path fill-rule="evenodd" clip-rule="evenodd" d="M0.5159 6.94543C0.5159 3.38583 3.4016 0.500122 6.96121 0.500122H28.4456C29.6321 0.500122 30.594 1.46201 30.594 2.64856C30.594 3.83511 29.6321 4.79699 28.4456 4.79699H6.96121C5.7747 4.79699 4.81277 5.75892 4.81277 6.94543V27.3444C6.33441 26.7368 8.11618 26.2813 10.1839 26.2813C14.2647 26.2813 17.2557 28.0641 19.2998 29.2824C19.3316 29.3013 19.3632 29.3202 19.3946 29.3389L19.3983 29.341C21.0089 30.3049 21.6016 30.4712 22.0003 30.4712C22.399 30.4712 22.9916 30.3049 24.6022 29.3411L24.6059 29.3389C24.6374 29.3201 24.6691 29.3012 24.701 29.2822C26.745 28.0639 29.7358 26.2813 33.8166 26.2813C35.8843 26.2813 37.6661 26.7367 39.1877 27.3444V15.5392C39.1877 14.3526 40.1496 13.3907 41.3362 13.3907C42.5227 13.3907 43.4846 14.3526 43.4846 15.5392V30.8338C43.4846 31.6042 43.072 32.3157 42.4033 32.6984C41.7346 33.0811 40.9122 33.0765 40.2479 32.6862C38.3613 31.5778 36.3803 30.5782 33.8166 30.5782C30.9793 30.5782 28.8808 31.7937 26.8066 33.0294C25.2206 33.9784 23.7073 34.7681 22.0003 34.7681C20.2933 34.7681 18.7801 33.9785 17.194 33.0295C15.1198 31.7938 13.021 30.5782 10.1839 30.5782C7.62023 30.5782 5.63925 31.5779 3.75262 32.6863C3.08831 33.0766 2.26588 33.0812 1.59717 32.6985C0.928472 32.3158 0.5159 31.6044 0.5159 30.8339V6.94543Z" fill="#FF6C59"/>
<path fill-rule="evenodd" clip-rule="evenodd" d="M2.66433 38.3696C3.85088 38.3696 4.81277 39.3315 4.81277 40.5181V49.0548C4.81277 50.2413 3.85088 51.2032 2.66433 51.2032C1.47779 51.2032 0.5159 50.2413 0.5159 49.0548V40.5181C0.5159 39.3315 1.47779 38.3696 2.66433 38.3696Z" fill="#FF6C59"/>
<path fill-rule="evenodd" clip-rule="evenodd" d="M9.10965 19.8359C9.10965 18.6494 10.0715 17.6875 11.2581 17.6875H19.8518C21.0384 17.6875 22.0003 18.6494 22.0003 19.8359C22.0003 21.0225 21.0384 21.9844 19.8518 21.9844H11.2581C10.0715 21.9844 9.10965 21.0225 9.10965 19.8359Z" fill="#FF6C59"/>
<path fill-rule="evenodd" clip-rule="evenodd" d="M9.10965 11.2422C9.10965 10.0556 10.0715 9.09375 11.2581 9.09375H15.555C16.7415 9.09375 17.7034 10.0556 17.7034 11.2422C17.7034 12.4287 16.7415 13.3906 15.555 13.3906H11.2581C10.0715 13.3906 9.10965 12.4287 9.10965 11.2422Z" fill="#FF6C59"/>
<path fill-rule="evenodd" clip-rule="evenodd" d="M10.1838 34.9821C11.891 34.9821 13.4043 35.7718 14.9905 36.7209C17.0646 37.9565 19.1631 39.1719 22.0003 39.1719C24.8372 39.1719 26.9359 37.9565 29.0101 36.7209C30.5962 35.7718 32.1095 34.9821 33.8166 34.9821C35.5237 34.9821 37.037 35.7718 38.6231 36.7208C39.7431 37.3881 40.8374 38.035 42.0926 38.5071C42.93 38.8222 43.4846 39.6233 43.4846 40.518V49.0547C43.4846 52.6143 40.5989 55.5 37.0393 55.5H6.96121C3.40161 55.5 0.515902 52.6143 0.515902 49.0547C0.515902 47.8682 1.47779 46.9063 2.66434 46.9063C3.85089 46.9063 4.81277 47.8682 4.81277 49.0547C4.81277 50.2412 5.7747 51.2032 6.96121 51.2032H37.0393C38.2258 51.2032 39.1877 50.2412 39.1877 49.0547V41.9343C38.146 41.4383 37.2359 40.8961 36.4751 40.4427L36.4187 40.4091C34.808 39.4453 34.2153 39.2789 33.8166 39.2789C33.4179 39.2789 32.8253 39.4453 31.2147 40.4091L31.211 40.4113C31.1796 40.43 31.148 40.4488 31.1162 40.4678C29.0721 41.6861 26.0811 43.4688 22.0003 43.4688C17.9194 43.4688 14.9287 41.6862 12.8846 40.468C12.8527 40.4489 12.821 40.43 12.7895 40.4113L12.7859 40.4091C11.1752 39.4453 10.5825 39.2789 10.1838 39.2789C9.78514 39.2789 9.19252 39.4453 7.58189 40.4091L7.57814 40.4113C7.55972 40.4223 7.54121 40.4333 7.52261 40.4444C6.44051 41.0891 5.05627 41.9138 3.42067 42.5289C2.31007 42.9466 1.07114 42.385 0.653431 41.2744C0.235723 40.1638 0.797417 38.9248 1.90801 38.5071C3.16311 38.0351 4.25715 37.3881 5.37734 36.7209C6.96343 35.7718 8.47672 34.9821 10.1838 34.9821Z" fill="#FF6C59"/>
</svg>
