<svg width="52" height="52" viewBox="0 0 52 52" fill="none" xmlns="http://www.w3.org/2000/svg">
<path d="M41.2344 1H10.7656C5.38086 1 1 5.38086 1 10.7656V33.4219C1 38.8066 5.38086 43.1875 10.7656 43.1875H24.0469V47.0938H18.1875C17.1084 47.0938 16.2344 47.9678 16.2344 49.0469C16.2344 50.126 17.1084 51 18.1875 51H33.8125C34.8916 51 35.7656 50.126 35.7656 49.0469C35.7656 47.9678 34.8916 47.0938 33.8125 47.0938H27.9531V41.2344C27.9531 40.1553 27.0791 39.2812 26 39.2812H10.7656C7.53516 39.2812 4.90625 36.6523 4.90625 33.4219V10.7656C4.90625 7.53516 7.53516 4.90625 10.7656 4.90625H41.2344C44.4648 4.90625 47.0938 7.53516 47.0938 10.7656V33.4219C47.0938 36.6523 44.4648 39.2812 41.2344 39.2812H33.8125C32.7334 39.2812 31.8594 40.1553 31.8594 41.2344C31.8594 42.3135 32.7334 43.1875 33.8125 43.1875H41.2344C46.6191 43.1875 51 38.8066 51 33.4219V10.7656C51 5.38086 46.6191 1 41.2344 1Z" fill="#424242" stroke="#424242"/>
<path d="M39.6719 27.9531V16.2344C39.6719 16.1748 39.668 16.1162 39.6631 16.0586C39.6611 16.041 39.6592 16.0244 39.6572 16.0068C39.6523 15.9619 39.6455 15.917 39.6367 15.873C39.6338 15.8594 39.6318 15.8447 39.6289 15.8311C39.6182 15.7793 39.6045 15.7275 39.5889 15.6768C39.583 15.6562 39.5762 15.6357 39.5693 15.6152C39.5576 15.5811 39.5459 15.5469 39.5322 15.5137C39.5244 15.4941 39.5176 15.4746 39.5088 15.4551C39.4883 15.4082 39.4658 15.3613 39.4414 15.3154C39.4326 15.2998 39.4238 15.2842 39.415 15.2686C39.3955 15.2344 39.375 15.2012 39.3535 15.168C39.3437 15.1523 39.333 15.1367 39.3223 15.1211C39.293 15.0791 39.2627 15.0371 39.2295 14.9971C39.2275 14.9941 39.2256 14.9912 39.2236 14.9893C39.1885 14.9463 39.1504 14.9053 39.1113 14.8662C39.1006 14.8555 39.0898 14.8447 39.0791 14.834C39.0479 14.8027 39.0147 14.7734 38.9805 14.7451C38.9697 14.7363 38.96 14.7275 38.9502 14.7187C38.9082 14.6846 38.8643 14.6514 38.8184 14.6201C38.8057 14.6113 38.793 14.6035 38.7803 14.5957C38.7471 14.5742 38.7119 14.5527 38.6768 14.5332C38.6582 14.5225 38.6387 14.5127 38.6201 14.502C38.6104 14.4971 38.6006 14.4912 38.5908 14.4863L26.8721 8.62695C26.3223 8.35156 25.6748 8.35156 25.125 8.62695L13.4062 14.4863C13.3965 14.4912 13.3867 14.4971 13.377 14.502C13.3574 14.5117 13.3389 14.5225 13.3203 14.5332C13.2852 14.5527 13.251 14.5742 13.2168 14.5957C13.2041 14.6035 13.1914 14.6113 13.1787 14.6201C13.1328 14.6514 13.0898 14.6846 13.0469 14.7187C13.0361 14.7275 13.0264 14.7363 13.0166 14.7451C12.9824 14.7734 12.9502 14.8037 12.918 14.834C12.9072 14.8447 12.8965 14.8555 12.8857 14.8662C12.8467 14.9063 12.8086 14.9473 12.7734 14.9893C12.7715 14.9922 12.7695 14.9951 12.7676 14.9971C12.7354 15.0371 12.7041 15.0781 12.6748 15.1211C12.6641 15.1367 12.6543 15.1523 12.6436 15.168C12.6221 15.2012 12.6016 15.2344 12.582 15.2686C12.5732 15.2842 12.5635 15.2988 12.5557 15.3154C12.5313 15.3613 12.5088 15.4072 12.4883 15.4551C12.4795 15.4746 12.4727 15.4941 12.4648 15.5137C12.4512 15.5469 12.4395 15.5811 12.4277 15.6152C12.4209 15.6357 12.4141 15.6562 12.4082 15.6768C12.3936 15.7275 12.3799 15.7783 12.3682 15.8311C12.3652 15.8447 12.3633 15.8594 12.3604 15.873C12.3516 15.917 12.3457 15.9619 12.3398 16.0068C12.3379 16.0244 12.3359 16.041 12.334 16.0586C12.3291 16.1172 12.3252 16.1758 12.3252 16.2344V27.9531C12.3252 28.6934 12.7432 29.3691 13.4053 29.7002L25.124 35.5596C25.1572 35.5762 25.1914 35.5918 25.2256 35.6064C25.2393 35.6123 25.2529 35.6172 25.2656 35.6221C25.3047 35.6377 25.3447 35.6523 25.3848 35.666C25.4004 35.6709 25.416 35.6768 25.4316 35.6816C25.4805 35.6963 25.5303 35.709 25.5791 35.7197C25.5947 35.7227 25.6104 35.7266 25.626 35.7295C25.6787 35.7393 25.7324 35.748 25.7861 35.7539C25.7959 35.7549 25.8066 35.7559 25.8164 35.7568C25.876 35.7627 25.9365 35.7656 25.9961 35.7656C26.0557 35.7656 26.1162 35.7617 26.1758 35.7568C26.1855 35.7568 26.1963 35.7549 26.2061 35.7539C26.2598 35.748 26.3125 35.7402 26.3662 35.7295C26.3818 35.7266 26.3975 35.7236 26.4131 35.7197C26.4629 35.709 26.5117 35.6963 26.5605 35.6816C26.5762 35.6768 26.5918 35.6709 26.6074 35.666C26.6475 35.6523 26.6875 35.6387 26.7266 35.6221C26.7402 35.6162 26.7539 35.6113 26.7666 35.6064C26.8008 35.5918 26.835 35.5762 26.8682 35.5596L38.5869 29.7002C39.249 29.3691 39.667 28.6934 39.667 27.9531H39.6719ZM26 12.5586L33.3516 16.2344L26 19.9102L18.6484 16.2344L26 12.5586ZM16.2344 19.3945L24.0469 23.3008V30.6523L16.2344 26.7461V19.3945ZM27.9531 30.6523V23.3008L35.7656 19.3945V26.7461L27.9531 30.6523Z" fill="#424242" stroke="#424242"/>
</svg>
