<svg width="52" height="52" viewBox="0 0 52 52" fill="none" xmlns="http://www.w3.org/2000/svg">
<path fill-rule="evenodd" clip-rule="evenodd" d="M10.7656 23.6562C7.52956 23.6562 4.90625 26.2796 4.90625 29.5156V33.4219C4.90625 36.6579 7.52956 39.2812 10.7656 39.2812C11.8443 39.2812 12.7188 38.4068 12.7188 37.3281V25.6094C12.7188 24.5307 11.8443 23.6562 10.7656 23.6562ZM1 29.5156C1 24.1222 5.3722 19.75 10.7656 19.75C14.0016 19.75 16.625 22.3734 16.625 25.6094V37.3281C16.625 40.5641 14.0016 43.1875 10.7656 43.1875C5.3722 43.1875 1 38.8153 1 33.4219V29.5156Z" fill="#424242" stroke="black" stroke-miterlimit="10" stroke-linecap="round" stroke-linejoin="round"/>
<path fill-rule="evenodd" clip-rule="evenodd" d="M22.4844 4.90625C17.091 4.90625 12.7188 9.27849 12.7188 14.6719V21.7032C12.7188 22.7819 11.8443 23.6563 10.7656 23.6563C9.68694 23.6563 8.8125 22.7819 8.8125 21.7032V14.6719C8.8125 7.12112 14.9336 1 22.4844 1H30.2969C37.8476 1 43.9688 7.12112 43.9688 14.6719C43.9688 15.7506 43.0943 16.625 42.0156 16.625C40.9369 16.625 40.0625 15.7506 40.0625 14.6719C40.0625 9.27849 35.6903 4.90625 30.2969 4.90625H22.4844Z" fill="#424242" stroke="black" stroke-miterlimit="10" stroke-linecap="round" stroke-linejoin="round"/>
<path fill-rule="evenodd" clip-rule="evenodd" d="M30.2969 23.6562C29.2271 23.6562 28.3438 24.5396 28.3438 25.6094V37.3281C30.6081 36.0587 33.1794 35.375 35.8212 35.375H45.1406C46.2104 35.375 47.0938 34.4916 47.0938 33.4219V25.6094C47.0938 24.5396 46.2104 23.6562 45.1406 23.6562H30.2969ZM24.4375 25.6094C24.4375 22.3823 27.0698 19.75 30.2969 19.75H45.1406C48.3677 19.75 51 22.3823 51 25.6094V33.4219C51 36.649 48.3677 39.2812 45.1406 39.2812H35.8212C32.8021 39.2812 29.9066 40.4806 27.7717 42.6154C27.2131 43.174 26.373 43.3411 25.6432 43.0388C24.9134 42.7365 24.4375 42.0243 24.4375 41.2344V25.6094Z" fill="#424242" stroke="black" stroke-miterlimit="10" stroke-linecap="round" stroke-linejoin="round"/>
<path fill-rule="evenodd" clip-rule="evenodd" d="M10.7656 39.2812C11.8443 39.2812 12.7188 40.1557 12.7188 41.2344V43.1875C12.7188 45.3449 14.4676 47.0938 16.625 47.0938H26.3906C27.4693 47.0938 28.3438 47.9682 28.3438 49.0469C28.3438 50.1256 27.4693 51 26.3906 51H16.625C12.3103 51 8.8125 47.5022 8.8125 43.1875V41.2344C8.8125 40.1557 9.68694 39.2812 10.7656 39.2812Z" fill="#424242" stroke="black" stroke-miterlimit="10" stroke-linecap="round" stroke-linejoin="round"/>
<path fill-rule="evenodd" clip-rule="evenodd" d="M32.25 29.5156C32.25 28.4369 33.1244 27.5625 34.2031 27.5625H41.2344C42.3131 27.5625 43.1875 28.4369 43.1875 29.5156C43.1875 30.5943 42.3131 31.4688 41.2344 31.4688H34.2031C33.1244 31.4688 32.25 30.5943 32.25 29.5156Z" fill="#424242" stroke="black" stroke-miterlimit="10" stroke-linecap="round" stroke-linejoin="round"/>
</svg>
