<?xml version="1.0" encoding="UTF-8"?><svg id="Capa_1" xmlns="http://www.w3.org/2000/svg" viewBox="0 0 512 512"><defs><style>.cls-1{fill:none;stroke:#424242;stroke-linecap:round;stroke-linejoin:round;stroke-width:40px;}</style></defs><g id="Support"><path class="cls-1" d="M140,372c0,22.09-17.91,40-40,40-44.18,0-80-35.82-80-80v-40c0-44.18,35.82-80,80-80,22.09,0,40,17.91,40,40v120Z"/><path class="cls-1" d="M100,212v-72c0-66.27,53.73-120,120-120h80c66.27,0,120,53.73,120,120"/><path class="cls-1" d="M452,212c22,0,40,18,40,40v80c0,22-18,40-40,40h-95.43c-36.22,0-70.96,14.39-96.57,40v-160c0-22,18-40,40-40h152Z"/><path class="cls-1" d="M260,492h-100c-33.14,0-60-26.86-60-60v-20"/><line class="cls-1" x1="340" y1="292" x2="412" y2="292"/></g></svg>