<svg width="56" height="56" viewBox="0 0 56 56" fill="none" xmlns="http://www.w3.org/2000/svg">
<path d="M21.6299 47.7656H11.2422C7.68867 47.7656 4.79688 44.8738 4.79688 41.3203V21.9844H47.7656V24.1328C47.7656 25.3198 48.7271 26.2812 49.9141 26.2812C51.1011 26.2812 52.0625 25.3198 52.0625 24.1328V15.5391C52.0625 9.61582 47.2436 4.79688 41.3203 4.79688H39.1719V2.64844C39.1719 1.46143 38.2104 0.5 37.0234 0.5C35.8364 0.5 34.875 1.46143 34.875 2.64844V4.79688H17.6875V2.64844C17.6875 1.46143 16.7261 0.5 15.5391 0.5C14.3521 0.5 13.3906 1.46143 13.3906 2.64844V4.79688H11.2422C5.31895 4.79688 0.5 9.61582 0.5 15.5391V41.3203C0.5 47.2436 5.31895 52.0625 11.2422 52.0625H21.6299C22.8169 52.0625 23.7783 51.1011 23.7783 49.9141C23.7783 48.7271 22.8169 47.7656 21.6299 47.7656ZM4.79688 15.5391C4.79688 11.9855 7.68867 9.09375 11.2422 9.09375H13.3906V11.2422C13.3906 12.4292 14.3521 13.3906 15.5391 13.3906C16.7261 13.3906 17.6875 12.4292 17.6875 11.2422V9.09375H34.875V11.2422C34.875 12.4292 35.8364 13.3906 37.0234 13.3906C38.2104 13.3906 39.1719 12.4292 39.1719 11.2422V9.09375H41.3203C44.8738 9.09375 47.7656 11.9855 47.7656 15.5391V17.6875H4.79688V15.5391Z" fill="#FF6C59"/>
<path d="M13.3799 28.2191C13.3734 28.1493 13.3627 28.0795 13.3487 28.0107C13.3348 27.942 13.3176 27.8732 13.2972 27.8066C13.2768 27.74 13.2531 27.6734 13.2263 27.609C13.1994 27.5434 13.1693 27.4801 13.136 27.4188C13.1038 27.3565 13.0673 27.2953 13.0286 27.2373C12.9899 27.1793 12.948 27.1223 12.9029 27.0676C12.8589 27.0138 12.8105 26.9601 12.7611 26.9107C12.7117 26.8613 12.6591 26.814 12.6043 26.7689C12.5506 26.7249 12.4937 26.683 12.4346 26.6443C12.3766 26.6056 12.3164 26.5691 12.2541 26.5358C12.1929 26.5036 12.1284 26.4735 12.064 26.4467C11.9995 26.4198 11.9329 26.3962 11.8663 26.3758C11.7986 26.3553 11.731 26.3382 11.6622 26.3242C11.5935 26.3102 11.5226 26.2995 11.4538 26.292C11.3131 26.278 11.1713 26.278 11.0306 26.292C10.9618 26.2995 10.8909 26.3102 10.8222 26.3242C10.7545 26.3382 10.6857 26.3553 10.6181 26.3758C10.5515 26.3962 10.4849 26.4198 10.4204 26.4467C10.356 26.4735 10.2915 26.5036 10.2303 26.5358C10.168 26.5691 10.1078 26.6056 10.0498 26.6443C9.99072 26.683 9.93379 26.7249 9.88008 26.7689C9.82529 26.814 9.77266 26.8613 9.72324 26.9107C9.67383 26.9601 9.62549 27.0138 9.58145 27.0676C9.5374 27.1223 9.49443 27.1793 9.45576 27.2373C9.41709 27.2953 9.38057 27.3565 9.34834 27.4188C9.31504 27.4801 9.28496 27.5434 9.25811 27.609C9.23125 27.6734 9.20762 27.74 9.18721 27.8066C9.1668 27.8732 9.14961 27.942 9.13564 28.0107C9.12168 28.0795 9.11201 28.1493 9.10449 28.2191C9.09697 28.2889 9.09375 28.3598 9.09375 28.4307C9.09375 28.5016 9.09697 28.5715 9.10449 28.6413C9.11201 28.7111 9.12168 28.7809 9.13564 28.8497C9.14961 28.9184 9.1668 28.9872 9.18721 29.0538C9.20762 29.1204 9.23125 29.187 9.25811 29.2514C9.28496 29.317 9.31504 29.3803 9.34834 29.4416C9.38057 29.5039 9.41709 29.5651 9.45576 29.6231C9.49443 29.6811 9.5374 29.7381 9.58145 29.7928C9.62549 29.8466 9.67383 29.8992 9.72324 29.9497C9.77266 29.9991 9.82529 30.0464 9.88008 30.0915C9.93379 30.1355 9.99072 30.1774 10.0498 30.2161C10.1078 30.2548 10.168 30.2913 10.2303 30.3246C10.2915 30.3568 10.356 30.3869 10.4204 30.4137C10.4849 30.4406 10.5515 30.4642 10.6181 30.4846C10.6857 30.5051 10.7545 30.5233 10.8222 30.5362C10.8909 30.5502 10.9618 30.5609 11.0306 30.5684C11.1015 30.5749 11.1724 30.5792 11.2422 30.5792C11.312 30.5792 11.3829 30.5749 11.4538 30.5684C11.5226 30.5609 11.5935 30.5502 11.6622 30.5362C11.731 30.5233 11.7986 30.5051 11.8663 30.4846C11.9329 30.4642 11.9995 30.4406 12.064 30.4137C12.1284 30.3869 12.1929 30.3568 12.2541 30.3246C12.3164 30.2913 12.3766 30.2548 12.4346 30.2161C12.4937 30.1774 12.5506 30.1355 12.6043 30.0915C12.6591 30.0464 12.7117 29.9991 12.7611 29.9497C12.8105 29.8992 12.8589 29.8466 12.9029 29.7928C12.948 29.7381 12.9899 29.6811 13.0286 29.6231C13.0673 29.5651 13.1038 29.5039 13.136 29.4416C13.1693 29.3803 13.1994 29.317 13.2263 29.2514C13.2531 29.187 13.2768 29.1204 13.2972 29.0538C13.3176 28.9872 13.3348 28.9184 13.3487 28.8497C13.3627 28.7809 13.3734 28.7111 13.3799 28.6413C13.3874 28.5715 13.3906 28.5006 13.3906 28.4307C13.3906 28.3609 13.3874 28.2889 13.3799 28.2191Z" fill="#FF6C59"/>
<path d="M21.9736 28.2191C21.9672 28.1493 21.9564 28.0795 21.9425 28.0107C21.9285 27.942 21.9113 27.8732 21.8909 27.8066C21.8705 27.74 21.8469 27.6734 21.82 27.609C21.7932 27.5434 21.7631 27.4801 21.7298 27.4188C21.6976 27.3565 21.661 27.2953 21.6224 27.2373C21.5837 27.1793 21.5418 27.1223 21.4967 27.0676C21.4526 27.0138 21.4043 26.9601 21.3549 26.9107C21.3055 26.8613 21.2528 26.814 21.198 26.7689C21.1443 26.7249 21.0874 26.683 21.0283 26.6443C20.9703 26.6056 20.9102 26.5691 20.8479 26.5358C20.7866 26.5036 20.7222 26.4735 20.6577 26.4467C20.5933 26.4198 20.5267 26.3962 20.4601 26.3758C20.3924 26.3553 20.3247 26.3382 20.256 26.3242C20.1872 26.3102 20.1174 26.2995 20.0476 26.292C19.9068 26.278 19.765 26.278 19.6243 26.292C19.5556 26.2995 19.4847 26.3102 19.4159 26.3242C19.3482 26.3382 19.2795 26.3553 19.2118 26.3758C19.1452 26.3962 19.0786 26.4198 19.0142 26.4467C18.9497 26.4735 18.8853 26.5036 18.824 26.5358C18.7628 26.5691 18.7016 26.6056 18.6436 26.6443C18.5845 26.683 18.5275 26.7249 18.4738 26.7689C18.419 26.814 18.3664 26.8613 18.317 26.9107C18.2676 26.9601 18.2192 27.0138 18.1752 27.0676C18.1312 27.1223 18.0882 27.1793 18.0495 27.2373C18.0108 27.2953 17.9743 27.3565 17.9421 27.4188C17.9088 27.4801 17.8787 27.5434 17.8519 27.609C17.825 27.6734 17.8014 27.74 17.781 27.8066C17.7605 27.8732 17.7434 27.942 17.7294 28.0107C17.7154 28.0795 17.7047 28.1493 17.6982 28.2191C17.6907 28.2889 17.6875 28.3598 17.6875 28.4307C17.6875 28.5016 17.6907 28.5715 17.6982 28.6413C17.7047 28.7111 17.7154 28.7809 17.7294 28.8497C17.7434 28.9184 17.7605 28.9872 17.781 29.0538C17.8014 29.1204 17.825 29.187 17.8519 29.2514C17.8787 29.317 17.9088 29.3803 17.9421 29.4416C17.9743 29.5039 18.0108 29.5651 18.0495 29.6231C18.0882 29.6811 18.1312 29.7381 18.1752 29.7928C18.2192 29.8466 18.2676 29.8992 18.317 29.9497C18.3664 29.9991 18.419 30.0464 18.4738 30.0915C18.5275 30.1355 18.5845 30.1774 18.6436 30.2161C18.7016 30.2548 18.7628 30.2913 18.824 30.3246C18.8853 30.3568 18.9497 30.3869 19.0142 30.4137C19.0786 30.4406 19.1452 30.4642 19.2118 30.4846C19.2795 30.5051 19.3482 30.5233 19.4159 30.5362C19.4847 30.5502 19.5556 30.5609 19.6243 30.5684C19.6952 30.5749 19.7661 30.5792 19.8359 30.5792C19.9058 30.5792 19.9767 30.5749 20.0476 30.5684C20.1174 30.5609 20.1872 30.5502 20.256 30.5362C20.3247 30.5233 20.3924 30.5051 20.4601 30.4846C20.5267 30.4642 20.5933 30.4406 20.6577 30.4137C20.7222 30.3869 20.7866 30.3568 20.8479 30.3246C20.9102 30.2913 20.9703 30.2548 21.0283 30.2161C21.0874 30.1774 21.1443 30.1355 21.198 30.0915C21.2528 30.0464 21.3055 29.9991 21.3549 29.9497C21.4043 29.8992 21.4526 29.8466 21.4967 29.7928C21.5418 29.7381 21.5837 29.6811 21.6224 29.6231C21.661 29.5651 21.6976 29.5039 21.7298 29.4416C21.7631 29.3803 21.7932 29.317 21.82 29.2514C21.8469 29.187 21.8705 29.1204 21.8909 29.0538C21.9113 28.9872 21.9285 28.9184 21.9425 28.8497C21.9564 28.7809 21.9672 28.7111 21.9736 28.6413C21.9812 28.5715 21.9844 28.5006 21.9844 28.4307C21.9844 28.3609 21.9812 28.2889 21.9736 28.2191Z" fill="#FF6C59"/>
<path d="M13.3487 36.6034C13.3348 36.5346 13.3176 36.4659 13.2972 36.3993C13.2768 36.3327 13.2531 36.2661 13.2263 36.2016C13.1994 36.1372 13.1693 36.0727 13.136 36.0115C13.1038 35.9492 13.0673 35.8879 13.0286 35.8299C12.9899 35.7719 12.948 35.715 12.9029 35.6602C12.8589 35.6065 12.8105 35.5528 12.7611 35.5034C12.7117 35.454 12.6591 35.4067 12.6043 35.3616C12.5506 35.3175 12.4937 35.2756 12.4346 35.237C12.3766 35.1983 12.3164 35.1618 12.2541 35.1285C12.1929 35.0962 12.1284 35.0662 12.064 35.0393C11.9995 35.0125 11.9329 34.9888 11.8663 34.9684C11.7986 34.948 11.7299 34.9308 11.6622 34.9168C11.5935 34.9029 11.5226 34.8921 11.4538 34.8846C11.3131 34.8707 11.1713 34.8707 11.0306 34.8846C10.9618 34.8921 10.8909 34.9029 10.8222 34.9168C10.7545 34.9308 10.6857 34.948 10.6181 34.9684C10.5515 34.9888 10.4849 35.0125 10.4204 35.0393C10.356 35.0662 10.2915 35.0962 10.2303 35.1285C10.169 35.1618 10.1078 35.1983 10.0498 35.237C9.99072 35.2756 9.93379 35.3175 9.88008 35.3616C9.82529 35.4067 9.77266 35.454 9.72324 35.5034C9.67383 35.5528 9.62549 35.6065 9.58145 35.6602C9.5374 35.715 9.49443 35.7719 9.45576 35.8299C9.41709 35.8879 9.38057 35.9492 9.34834 36.0115C9.31504 36.0727 9.28496 36.1372 9.25811 36.2016C9.23125 36.2661 9.20762 36.3327 9.18721 36.3993C9.1668 36.4659 9.14961 36.5346 9.13564 36.6034C9.12168 36.6721 9.11094 36.7419 9.10449 36.8118C9.09697 36.8816 9.09375 36.9525 9.09375 37.0234C9.09375 37.0943 9.09697 37.1641 9.10449 37.2339C9.11094 37.3038 9.12168 37.3736 9.13564 37.4423C9.14961 37.5111 9.1668 37.5798 9.18721 37.6464C9.20762 37.713 9.23125 37.7796 9.25811 37.8441C9.28496 37.9096 9.31504 37.973 9.34834 38.0353C9.38057 38.0965 9.41709 38.1578 9.45576 38.2158C9.49443 38.2738 9.5374 38.3307 9.58145 38.3855C9.62549 38.4392 9.67383 38.4918 9.72324 38.5423C9.77266 38.5917 9.82529 38.639 9.88008 38.6841C9.93379 38.7282 9.99072 38.7701 10.0498 38.8087C10.1078 38.8474 10.169 38.8839 10.2303 38.9172C10.2915 38.9495 10.356 38.9795 10.4204 39.0064C10.4849 39.0333 10.5515 39.0569 10.6181 39.0773C10.6857 39.0977 10.7545 39.116 10.8222 39.1289C10.8909 39.1428 10.9618 39.1536 11.0306 39.1611C11.1015 39.1675 11.1724 39.1718 11.2422 39.1718C11.312 39.1718 11.3829 39.1675 11.4538 39.1611C11.5226 39.1536 11.5935 39.1428 11.6622 39.1289C11.7299 39.116 11.7986 39.0977 11.8663 39.0773C11.9329 39.0569 11.9995 39.0333 12.064 39.0064C12.1284 38.9795 12.1929 38.9495 12.2541 38.9172C12.3164 38.8839 12.3766 38.8474 12.4346 38.8087C12.4937 38.7701 12.5506 38.7282 12.6043 38.6841C12.6591 38.639 12.7117 38.5917 12.7611 38.5423C12.8105 38.4918 12.8589 38.4392 12.9029 38.3855C12.948 38.3307 12.9899 38.2738 13.0286 38.2158C13.0673 38.1578 13.1038 38.0965 13.136 38.0353C13.1693 37.973 13.1994 37.9096 13.2263 37.8441C13.2531 37.7796 13.2768 37.713 13.2972 37.6464C13.3176 37.5798 13.3348 37.5111 13.3487 37.4423C13.3627 37.3736 13.3734 37.3038 13.3799 37.2339C13.3874 37.1641 13.3906 37.0932 13.3906 37.0234C13.3906 36.9536 13.3874 36.8816 13.3799 36.8118C13.3734 36.7419 13.3627 36.6721 13.3487 36.6034Z" fill="#FF6C59"/>
<path d="M21.9425 36.6034C21.9285 36.5346 21.9113 36.4659 21.8909 36.3993C21.8705 36.3327 21.8469 36.2661 21.82 36.2016C21.7932 36.1372 21.7631 36.0727 21.7298 36.0115C21.6976 35.9492 21.661 35.8879 21.6224 35.8299C21.5837 35.7719 21.5418 35.715 21.4967 35.6602C21.4526 35.6065 21.4043 35.5528 21.3549 35.5034C21.3055 35.454 21.2528 35.4067 21.198 35.3616C21.1443 35.3175 21.0874 35.2756 21.0283 35.237C20.9703 35.1983 20.9102 35.1618 20.8479 35.1285C20.7866 35.0962 20.7222 35.0662 20.6577 35.0393C20.5933 35.0125 20.5267 34.9888 20.4601 34.9684C20.3924 34.948 20.3236 34.9308 20.256 34.9168C20.1872 34.9029 20.1163 34.8921 20.0476 34.8846C19.9068 34.8707 19.765 34.8707 19.6243 34.8846C19.5556 34.8921 19.4847 34.9029 19.4159 34.9168C19.3482 34.9308 19.2795 34.948 19.2118 34.9684C19.1452 34.9888 19.0786 35.0125 19.0142 35.0393C18.9497 35.0662 18.8853 35.0962 18.824 35.1285C18.7628 35.1618 18.7016 35.1983 18.6436 35.237C18.5845 35.2756 18.5275 35.3175 18.4738 35.3616C18.419 35.4067 18.3664 35.454 18.317 35.5034C18.2676 35.5528 18.2192 35.6065 18.1752 35.6602C18.1312 35.715 18.0882 35.7719 18.0495 35.8299C18.0108 35.8879 17.9743 35.9492 17.9421 36.0115C17.9088 36.0727 17.8787 36.1372 17.8519 36.2016C17.825 36.2661 17.8014 36.3327 17.781 36.3993C17.7605 36.4659 17.7434 36.5346 17.7294 36.6034C17.7154 36.6721 17.7047 36.7419 17.6982 36.8118C17.6907 36.8816 17.6875 36.9525 17.6875 37.0234C17.6875 37.0943 17.6907 37.1641 17.6982 37.2339C17.7047 37.3038 17.7154 37.3736 17.7294 37.4423C17.7434 37.5111 17.7605 37.5798 17.781 37.6464C17.8014 37.713 17.825 37.7796 17.8519 37.8441C17.8787 37.9096 17.9088 37.973 17.9421 38.0353C17.9743 38.0965 18.0108 38.1578 18.0495 38.2158C18.0882 38.2738 18.1312 38.3307 18.1752 38.3855C18.2192 38.4392 18.2676 38.4918 18.317 38.5423C18.3664 38.5917 18.419 38.639 18.4738 38.6841C18.5275 38.7282 18.5845 38.7701 18.6436 38.8087C18.7016 38.8474 18.7628 38.8839 18.824 38.9172C18.8853 38.9495 18.9497 38.9795 19.0142 39.0064C19.0786 39.0333 19.1452 39.0569 19.2118 39.0773C19.2795 39.0977 19.3482 39.116 19.4159 39.1289C19.4847 39.1428 19.5556 39.1536 19.6243 39.1611C19.6952 39.1675 19.7661 39.1718 19.8359 39.1718C19.9058 39.1718 19.9767 39.1675 20.0476 39.1611C20.1163 39.1536 20.1872 39.1428 20.256 39.1289C20.3236 39.116 20.3924 39.0977 20.4601 39.0773C20.5267 39.0569 20.5933 39.0333 20.6577 39.0064C20.7222 38.9795 20.7866 38.9495 20.8479 38.9172C20.9102 38.8839 20.9703 38.8474 21.0283 38.8087C21.0874 38.7701 21.1443 38.7282 21.198 38.6841C21.2528 38.639 21.3055 38.5917 21.3549 38.5423C21.4043 38.4918 21.4526 38.4392 21.4967 38.3855C21.5418 38.3307 21.5837 38.2738 21.6224 38.2158C21.661 38.1578 21.6976 38.0965 21.7298 38.0353C21.7631 37.973 21.7932 37.9096 21.82 37.8441C21.8469 37.7796 21.8705 37.713 21.8909 37.6464C21.9113 37.5798 21.9285 37.5111 21.9425 37.4423C21.9564 37.3736 21.9672 37.3038 21.9736 37.2339C21.9812 37.1641 21.9844 37.0932 21.9844 37.0234C21.9844 36.9536 21.9812 36.8816 21.9736 36.8118C21.9672 36.7419 21.9564 36.6721 21.9425 36.6034Z" fill="#FF6C59"/>
<path d="M54.6771 45.3669C55.21 43.8286 55.5 42.1776 55.5 40.461C55.5 38.7444 55.21 37.0933 54.6771 35.555C54.6535 35.4766 54.6277 35.4003 54.5966 35.3262C52.4933 29.5544 46.9503 25.423 40.4609 25.423C32.168 25.423 25.4219 32.1691 25.4219 40.462C25.4219 42.1786 25.7119 43.8297 26.2447 45.368C26.2684 45.4464 26.2941 45.5227 26.3253 45.5968C28.4286 51.3686 33.9716 55.5 40.4609 55.5C46.9503 55.5 52.4933 51.3675 54.5966 45.5968C54.6277 45.5227 54.6546 45.4453 54.6771 45.368V45.3669ZM49.0547 42.6094C47.8698 42.6094 46.9062 41.6458 46.9062 40.461C46.9062 39.7079 46.7763 38.985 46.5378 38.3125H50.9872C51.129 39.0065 51.2031 39.7251 51.2031 40.461C51.2031 41.1968 51.129 41.9155 50.9872 42.6094H49.0547ZM40.4609 51.2031C36.9536 51.2031 33.8341 49.5134 31.8726 46.9063H36.1641C37.3511 46.9063 38.3125 45.9448 38.3125 44.7578C38.3125 43.5708 37.3511 42.6094 36.1641 42.6094H29.9347C29.7929 41.9155 29.7188 41.1968 29.7188 40.461C29.7188 34.5377 34.5377 29.7188 40.4609 29.7188C43.9683 29.7188 47.0878 31.4085 49.0493 34.0156H40.4609C39.2739 34.0156 38.3125 34.9771 38.3125 36.1641C38.3125 37.3511 39.2739 38.3125 40.4609 38.3125C41.6479 38.3125 42.6094 39.2761 42.6094 40.461C42.6094 44.0134 45.4979 46.9031 49.0493 46.9063C47.0878 49.5134 43.9683 51.2031 40.4609 51.2031Z" fill="#FF6C59"/>
</svg>
