<svg width="50" height="52" viewBox="0 0 50 52" fill="none" xmlns="http://www.w3.org/2000/svg">
<path d="M5.96875 10.7656C5.96875 7.8057 8.3682 5.40625 11.3281 5.40625H23.8639C25.2187 5.40625 26.317 4.30795 26.317 2.95312C26.317 1.5983 25.2187 0.5 23.8639 0.5H11.3281C5.65856 0.5 1.0625 5.09606 1.0625 10.7656V41.2344C1.0625 46.9039 5.65856 51.5 11.3281 51.5H30.8594C36.5289 51.5 41.125 46.9039 41.125 41.2344V30.2969C41.125 28.9421 40.0267 27.8438 38.6719 27.8438C37.3171 27.8438 36.2188 28.9421 36.2188 30.2969V41.2344C36.2188 44.1943 33.8193 46.5938 30.8594 46.5938H11.3281C8.3682 46.5938 5.96875 44.1943 5.96875 41.2344V10.7656Z" fill="#424242" stroke="#424242" stroke-miterlimit="10" stroke-linecap="round" stroke-linejoin="round"/>
<path d="M11.3281 12.2188C9.9733 12.2188 8.875 13.3171 8.875 14.6719C8.875 16.0267 9.9733 17.125 11.3281 17.125H19.1406C20.4954 17.125 21.5938 16.0267 21.5938 14.6719C21.5938 13.3171 20.4954 12.2188 19.1406 12.2188H11.3281Z" fill="#424242" stroke="#424242" stroke-miterlimit="10" stroke-linecap="round" stroke-linejoin="round"/>
<path d="M11.3281 20.0312C9.9733 20.0312 8.875 21.1296 8.875 22.4844C8.875 23.8392 9.9733 24.9375 11.3281 24.9375H19.1406C20.4954 24.9375 21.5938 23.8392 21.5938 22.4844C21.5938 21.1296 20.4954 20.0312 19.1406 20.0312H11.3281Z" fill="#424242" stroke="#424242" stroke-miterlimit="10" stroke-linecap="round" stroke-linejoin="round"/>
<path d="M32.594 35.1565C33.552 34.1985 33.552 32.6453 32.594 31.6873C31.636 30.7292 30.0828 30.7292 29.1248 31.6873L23.0469 37.7651L20.8752 35.5935C19.9172 34.6355 18.364 34.6355 17.406 35.5935C16.448 36.5515 16.448 38.1047 17.406 39.0627L21.3123 42.969C22.2703 43.927 23.8235 43.927 24.7815 42.969L32.594 35.1565Z" fill="#424242" stroke="#424242" stroke-miterlimit="10" stroke-linecap="round" stroke-linejoin="round"/>
<mask id="path-5-outside-1_2082_115564" maskUnits="userSpaceOnUse" x="27.9062" y="0" width="22" height="26" fill="black">
<rect fill="white" x="27.9062" width="22" height="26"/>
<path fill-rule="evenodd" clip-rule="evenodd" d="M32.8125 7.67322V9.82812C32.8125 14.1155 35.0488 18.0741 38.6719 20.2589C42.2949 18.074 44.5312 14.1155 44.5312 9.82812V7.67322C44.1864 7.35577 43.6893 6.9339 43.0806 6.51409C41.8108 5.63839 40.251 4.90625 38.6719 4.90625C37.0928 4.90625 35.533 5.63839 34.2632 6.51409C33.6545 6.9339 33.1573 7.35577 32.8125 7.67322ZM45.0364 8.17009L45.0352 8.1688C45.0364 8.17012 45.0368 8.17055 45.0364 8.17009ZM46.4844 6.85938L47.9361 5.55278C48.2589 5.91143 48.4375 6.37686 48.4375 6.85938V9.82812C48.4375 15.9113 45.0184 21.517 39.5397 24.2341C38.9929 24.5053 38.3509 24.5053 37.8041 24.2341C32.3253 21.5171 28.9062 15.9112 28.9062 9.82812V6.85938C28.9062 6.37686 29.0849 5.91143 29.4076 5.55278L30.8594 6.85938C29.4076 5.55278 29.408 5.55234 29.4085 5.55188L29.4114 5.54861L29.4165 5.543C29.4203 5.53878 29.425 5.53361 29.4306 5.52753C29.4418 5.51538 29.4564 5.49955 29.4745 5.4803C29.5105 5.44181 29.5602 5.38954 29.6229 5.32548C29.7482 5.1975 29.926 5.02162 30.1511 4.81385C30.5993 4.40009 31.2452 3.85031 32.0455 3.29841C33.6078 2.22099 35.9542 1 38.6719 1C41.3896 1 43.736 2.22099 45.2983 3.29841C46.0985 3.85031 46.7444 4.40009 47.1927 4.81385C47.4177 5.02162 47.5956 5.1975 47.7208 5.32548C47.7835 5.38954 47.8332 5.44181 47.8693 5.4803C47.8873 5.49955 47.902 5.51538 47.9131 5.52753C47.9187 5.53361 47.9234 5.53878 47.9272 5.543L47.9323 5.54861L47.9353 5.55188C47.9357 5.55234 47.9361 5.55278 46.4844 6.85938Z"/>
</mask>
<path fill-rule="evenodd" clip-rule="evenodd" d="M32.8125 7.67322V9.82812C32.8125 14.1155 35.0488 18.0741 38.6719 20.2589C42.2949 18.074 44.5312 14.1155 44.5312 9.82812V7.67322C44.1864 7.35577 43.6893 6.9339 43.0806 6.51409C41.8108 5.63839 40.251 4.90625 38.6719 4.90625C37.0928 4.90625 35.533 5.63839 34.2632 6.51409C33.6545 6.9339 33.1573 7.35577 32.8125 7.67322ZM45.0364 8.17009L45.0352 8.1688C45.0364 8.17012 45.0368 8.17055 45.0364 8.17009ZM46.4844 6.85938L47.9361 5.55278C48.2589 5.91143 48.4375 6.37686 48.4375 6.85938V9.82812C48.4375 15.9113 45.0184 21.517 39.5397 24.2341C38.9929 24.5053 38.3509 24.5053 37.8041 24.2341C32.3253 21.5171 28.9062 15.9112 28.9062 9.82812V6.85938C28.9062 6.37686 29.0849 5.91143 29.4076 5.55278L30.8594 6.85938C29.4076 5.55278 29.408 5.55234 29.4085 5.55188L29.4114 5.54861L29.4165 5.543C29.4203 5.53878 29.425 5.53361 29.4306 5.52753C29.4418 5.51538 29.4564 5.49955 29.4745 5.4803C29.5105 5.44181 29.5602 5.38954 29.6229 5.32548C29.7482 5.1975 29.926 5.02162 30.1511 4.81385C30.5993 4.40009 31.2452 3.85031 32.0455 3.29841C33.6078 2.22099 35.9542 1 38.6719 1C41.3896 1 43.736 2.22099 45.2983 3.29841C46.0985 3.85031 46.7444 4.40009 47.1927 4.81385C47.4177 5.02162 47.5956 5.1975 47.7208 5.32548C47.7835 5.38954 47.8332 5.44181 47.8693 5.4803C47.8873 5.49955 47.902 5.51538 47.9131 5.52753C47.9187 5.53361 47.9234 5.53878 47.9272 5.543L47.9323 5.54861L47.9353 5.55188C47.9357 5.55234 47.9361 5.55278 46.4844 6.85938Z" fill="#424242"/>
<path d="M32.8125 7.67322L32.1352 6.93753C31.9295 7.12688 31.8125 7.39367 31.8125 7.67322H32.8125ZM38.6719 20.2589L38.1555 21.1152C38.4731 21.3068 38.8706 21.3067 39.1883 21.1152L38.6719 20.2589ZM44.5312 7.67322H45.5312C45.5312 7.39367 45.4142 7.12688 45.2086 6.93753L44.5312 7.67322ZM43.0806 6.51409L43.6483 5.69088L43.0806 6.51409ZM34.2632 6.51409L33.6955 5.69088L34.2632 6.51409ZM45.0364 8.17009L45.7766 7.49777L45.7731 7.4939L45.0364 8.17009ZM45.0352 8.1688L45.7719 7.49258C45.3984 7.08572 44.7659 7.05864 44.359 7.43209C43.9521 7.80554 43.925 8.43812 44.2985 8.84499L45.0352 8.1688ZM47.9361 5.55278L48.6794 4.88381C48.502 4.68668 48.2535 4.5681 47.9886 4.55416C47.7238 4.54023 47.4643 4.63208 47.2671 4.8095L47.9361 5.55278ZM45.8154 6.11609C45.4049 6.48556 45.3716 7.11785 45.7411 7.52835C46.1106 7.93886 46.7428 7.97212 47.1534 7.60266L45.8154 6.11609ZM39.5397 24.2341L39.984 25.13L39.5397 24.2341ZM37.8041 24.2341L37.3598 25.13H37.3598L37.8041 24.2341ZM29.4076 5.55278L30.0766 4.8095C29.8795 4.63208 29.62 4.54023 29.3551 4.55416C29.0903 4.5681 28.8418 4.68668 28.6644 4.88381L29.4076 5.55278ZM30.1904 7.60266C30.6009 7.97212 31.2332 7.93885 31.6027 7.52835C31.9721 7.11785 31.9389 6.48555 31.5283 6.11609L30.1904 7.60266ZM29.4085 5.55188L28.6662 4.88175L28.6655 4.88258L29.4085 5.55188ZM29.4114 5.54861L28.6706 4.87693L28.6692 4.87849L29.4114 5.54861ZM29.4165 5.543L28.6764 4.87046L28.6757 4.87132L29.4165 5.543ZM29.4306 5.52753L30.1674 6.20371L30.1674 6.2037L29.4306 5.52753ZM29.4745 5.4803L28.7446 4.79667L28.7446 4.79667L29.4745 5.4803ZM29.6229 5.32548L28.9082 4.62607L29.6229 5.32548ZM30.1511 4.81385L29.4728 4.07904H29.4728L30.1511 4.81385ZM32.0455 3.29841L31.4778 2.47519L32.0455 3.29841ZM45.2983 3.29841L44.7305 4.12162L45.2983 3.29841ZM47.1927 4.81385L47.8709 4.07904L47.8709 4.07904L47.1927 4.81385ZM47.7208 5.32548L47.0061 6.0249L47.0061 6.0249L47.7208 5.32548ZM47.8693 5.4803L47.1395 6.16392L47.1395 6.16395L47.8693 5.4803ZM47.9131 5.52753L47.1763 6.20366L47.1764 6.20377L47.9131 5.52753ZM47.9272 5.543L48.6681 4.87129L48.6673 4.87048L47.9272 5.543ZM47.9323 5.54861L48.6746 4.87848L48.6732 4.87691L47.9323 5.54861ZM47.9353 5.55188L48.6779 4.88217L48.6775 4.88175L47.9353 5.55188ZM33.8125 9.82812V7.67322H31.8125V9.82812H33.8125ZM39.1883 19.4025C35.8675 17.4 33.8125 13.7675 33.8125 9.82812H31.8125C31.8125 14.4636 34.2302 18.7482 38.1555 21.1152L39.1883 19.4025ZM43.5312 9.82812C43.5312 13.7675 41.4763 17.3999 38.1555 19.4025L39.1883 21.1152C43.1135 18.7481 45.5312 14.4636 45.5312 9.82812H43.5312ZM43.5312 7.67322V9.82812H45.5312V7.67322H43.5312ZM42.5128 7.33731C43.0748 7.72488 43.5354 8.11562 43.8539 8.40891L45.2086 6.93753C44.8375 6.59592 44.3037 6.14291 43.6483 5.69088L42.5128 7.33731ZM38.6719 5.90625C39.9596 5.90625 41.3181 6.51333 42.5128 7.33731L43.6483 5.69088C42.3035 4.76345 40.5424 3.90625 38.6719 3.90625V5.90625ZM34.8309 7.33731C36.0257 6.51333 37.3842 5.90625 38.6719 5.90625V3.90625C36.8014 3.90625 35.0402 4.76345 33.6955 5.69088L34.8309 7.33731ZM33.4898 8.40892C33.8084 8.11562 34.2689 7.72488 34.8309 7.33731L33.6955 5.69088C33.04 6.14291 32.5062 6.59592 32.1352 6.93753L33.4898 8.40892ZM45.7731 7.4939L45.7719 7.49262L44.2985 8.84499L44.2996 8.84628L45.7731 7.4939ZM44.2985 8.84503C44.2986 8.84518 44.2987 8.84522 44.2987 8.84524C44.2987 8.84525 44.2987 8.8453 44.2988 8.84535C44.2988 8.84538 44.2989 8.84552 44.2991 8.84568C44.2991 8.84569 44.2997 8.84631 44.3004 8.84706C44.3004 8.84708 44.3019 8.84874 44.3038 8.85078C44.3044 8.8514 44.3055 8.85257 44.3068 8.85404C44.3076 8.85481 44.3112 8.85869 44.3159 8.86357C44.3174 8.86514 44.3244 8.87238 44.3335 8.8814C44.3391 8.88694 44.3556 8.90261 44.3665 8.91263C44.395 8.9374 44.6469 9.09126 44.8953 9.16024C45.8424 8.76238 45.9001 7.66596 45.855 7.59578C45.8415 7.57698 45.8209 7.54998 45.8142 7.54154C45.804 7.52902 45.7957 7.51941 45.7945 7.51801C45.7896 7.51226 45.7856 7.50779 45.785 7.50706C45.7836 7.50546 45.7824 7.50419 45.7818 7.50354C45.7806 7.50221 45.7797 7.50118 45.7794 7.50079C45.7786 7.49991 45.7779 7.49921 45.7778 7.49903C45.7773 7.49855 45.777 7.49816 45.7769 7.49811C45.7768 7.49799 45.7767 7.49789 45.7767 7.49786C45.7767 7.49784 45.7767 7.49782 45.7767 7.49781C45.7767 7.49779 45.7766 7.49778 45.7766 7.49778L44.2961 8.84241C44.3077 8.85519 44.2902 8.83605 44.2785 8.82253C44.2773 8.82113 44.269 8.81152 44.2589 8.799C44.2522 8.79056 44.2315 8.76356 44.218 8.74476C44.173 8.67458 44.2307 7.57816 45.1778 7.1803C45.4261 7.24928 45.678 7.40314 45.7065 7.42791C45.7175 7.43793 45.7339 7.4536 45.7396 7.45914C45.7487 7.46816 45.7557 7.4754 45.7572 7.47697C45.7619 7.48185 45.7655 7.48573 45.7662 7.4865C45.7676 7.48797 45.7687 7.48914 45.7693 7.48976C45.7712 7.49179 45.7727 7.49345 45.7727 7.49347C45.7731 7.49392 45.7734 7.49427 45.7736 7.49441C45.7737 7.49458 45.7738 7.49472 45.7739 7.49479C45.7741 7.49497 45.7743 7.49516 45.7741 7.49499C45.7737 7.49457 45.773 7.49374 45.7719 7.49258L44.2985 8.84503ZM47.2671 4.8095L45.8154 6.11609L47.1534 7.60266L48.6051 6.29607L47.2671 4.8095ZM49.4375 6.85938C49.4375 6.12982 49.1674 5.42608 48.6794 4.88381L47.1928 6.22176C47.3503 6.39678 47.4375 6.62391 47.4375 6.85938H49.4375ZM49.4375 9.82812V6.85938H47.4375V9.82812H49.4375ZM39.984 25.13C45.808 22.2416 49.4375 16.2857 49.4375 9.82812H47.4375C47.4375 15.5368 44.2289 20.7923 39.0954 23.3383L39.984 25.13ZM37.3598 25.13C38.1865 25.54 39.1573 25.54 39.984 25.13L39.0954 23.3383C38.8285 23.4706 38.5152 23.4706 38.2484 23.3383L37.3598 25.13ZM27.9062 9.82812C27.9062 16.2857 31.5358 22.2417 37.3598 25.13L38.2484 23.3383C33.1149 20.7924 29.9062 15.5368 29.9062 9.82812H27.9062ZM27.9062 6.85938V9.82812H29.9062V6.85938H27.9062ZM28.6644 4.88381C28.1763 5.42608 27.9062 6.12982 27.9062 6.85938H29.9062C29.9062 6.62391 29.9934 6.39678 30.1509 6.22176L28.6644 4.88381ZM31.5284 6.11609L30.0766 4.8095L28.7387 6.29607L30.1904 7.60266L31.5284 6.11609ZM28.6655 4.88258C28.6655 4.88258 28.6615 4.88706 28.6575 4.89155C28.6535 4.89608 28.6418 4.90977 28.6342 4.91902C28.6145 4.94308 28.5841 4.98252 28.5525 5.03491C28.4824 5.15091 28.425 5.29986 28.4114 5.47473C28.3875 5.784 28.5144 6.00342 28.5428 6.05255C28.585 6.12563 28.6272 6.17657 28.6406 6.19253C28.6589 6.21454 28.6744 6.23116 28.6821 6.23934C28.6978 6.25587 28.7107 6.26834 28.7145 6.27208C28.7201 6.27748 28.7248 6.2819 28.7275 6.28445C28.7367 6.29304 28.7478 6.30317 28.7584 6.31276C28.7826 6.33474 28.8292 6.37691 28.9197 6.45849C29.1014 6.62234 29.4646 6.94941 30.1904 7.60266L31.5283 6.11609C30.8024 5.46275 30.4399 5.1363 30.259 4.97317C30.1682 4.89125 30.1243 4.85156 30.1033 4.8325C30.0913 4.82157 30.0911 4.82137 30.0948 4.82475C30.0961 4.826 30.0997 4.82943 30.1046 4.83409C30.1076 4.83707 30.12 4.84904 30.1353 4.86522C30.1429 4.87323 30.1583 4.88971 30.1765 4.91162C30.1898 4.92748 30.2319 4.97835 30.2742 5.05136C30.3025 5.10045 30.4294 5.31983 30.4055 5.62908C30.3765 6.00305 30.143 6.23052 30.1515 6.22117L28.6655 4.88258ZM28.6757 4.87132L28.6706 4.87693L30.1523 6.22029L30.1573 6.21467L28.6757 4.87132ZM28.6939 4.85136C28.6872 4.85867 28.6814 4.86505 28.6764 4.87046L30.1566 6.21553C30.1593 6.21251 30.1629 6.20856 30.1674 6.20371L28.6939 4.85136ZM28.7446 4.79667C28.7242 4.81845 28.7073 4.83677 28.6939 4.85137L30.1674 6.2037C30.1763 6.19398 30.1886 6.18065 30.2043 6.16392L28.7446 4.79667ZM28.9082 4.62607C28.8402 4.69558 28.7854 4.75312 28.7446 4.79667L30.2043 6.16393C30.2356 6.13049 30.2803 6.0835 30.3376 6.0249L28.9082 4.62607ZM29.4728 4.07904C29.2341 4.29943 29.044 4.48724 28.9082 4.62607L30.3376 6.0249C30.4523 5.90775 30.618 5.7438 30.8294 5.54866L29.4728 4.07904ZM31.4778 2.47519C30.6303 3.05967 29.9474 3.64094 29.4728 4.07904L30.8294 5.54866C31.2512 5.15925 31.8602 4.64095 32.6132 4.12162L31.4778 2.47519ZM38.6719 0C35.6627 0 33.1148 1.34619 31.4778 2.47519L32.6132 4.12162C34.1007 3.09578 36.2457 2 38.6719 2V0ZM45.866 2.47519C44.2289 1.34619 41.6811 0 38.6719 0V2C41.098 2 43.2431 3.09578 44.7305 4.12162L45.866 2.47519ZM47.8709 4.07904C47.3963 3.64094 46.7135 3.05967 45.866 2.47519L44.7305 4.12162C45.4836 4.64095 46.0925 5.15925 46.5144 5.54866L47.8709 4.07904ZM48.4356 4.62607C48.2997 4.48724 48.1097 4.29943 47.8709 4.07904L46.5144 5.54866C46.7258 5.7438 46.8915 5.90775 47.0061 6.0249L48.4356 4.62607ZM48.5991 4.79667C48.5583 4.75312 48.5036 4.69558 48.4356 4.62606L47.0061 6.0249C47.0635 6.0835 47.1081 6.13049 47.1395 6.16392L48.5991 4.79667ZM48.6499 4.85141C48.6365 4.83678 48.6195 4.81844 48.5991 4.79665L47.1395 6.16395C47.1551 6.18066 47.1674 6.19398 47.1763 6.20366L48.6499 4.85141ZM48.6673 4.87048C48.6624 4.8651 48.6566 4.8587 48.6498 4.8513L47.1764 6.20377C47.1808 6.20853 47.1844 6.21245 47.1872 6.21552L48.6673 4.87048ZM48.6732 4.87691L48.6681 4.87129L47.1864 6.2147L47.1915 6.22031L48.6732 4.87691ZM47.1534 7.60266C47.8792 6.94941 48.2423 6.62234 48.4241 6.45849C48.5145 6.37691 48.5612 6.33474 48.5854 6.31276C48.5959 6.30317 48.607 6.29304 48.6162 6.28444C48.6189 6.28189 48.6236 6.27748 48.6292 6.27207C48.6331 6.26834 48.646 6.25586 48.6616 6.23932C48.6694 6.23113 48.6849 6.21451 48.7032 6.19249C48.7165 6.17651 48.7588 6.12553 48.801 6.05241C48.8295 6.00322 48.9564 5.78363 48.9323 5.47419C48.9186 5.29925 48.8611 5.15032 48.791 5.03439C48.7593 4.98203 48.7289 4.94262 48.7092 4.91858C48.7015 4.90934 48.6899 4.89565 48.6859 4.89114C48.6819 4.88664 48.6779 4.88217 48.6779 4.88217L47.1927 6.22159C47.1927 6.22159 47.1887 6.21711 47.1847 6.21262C47.1807 6.2081 47.169 6.19442 47.1614 6.18519C47.1417 6.16115 47.1113 6.12174 47.0796 6.06939C47.0095 5.95346 46.952 5.80454 46.9383 5.62962C46.9142 5.3202 47.0411 5.10065 47.0695 5.05151C47.1118 4.97844 47.1539 4.92753 47.1672 4.91166C47.1854 4.88975 47.2008 4.87326 47.2084 4.86524C47.2237 4.84905 47.2361 4.83708 47.2392 4.83409C47.244 4.82943 47.2477 4.826 47.249 4.82475C47.2526 4.82138 47.2525 4.82157 47.2404 4.8325C47.2195 4.85155 47.1756 4.89125 47.0847 4.97317C46.9038 5.1363 46.5413 5.46275 45.8154 6.11609L47.1534 7.60266ZM28.6692 4.87849L28.6662 4.88175L30.1507 6.222L30.1537 6.21873L28.6692 4.87849ZM48.6775 4.88175L48.6746 4.87849L47.1901 6.21873L47.193 6.222L48.6775 4.88175Z" fill="#424242" mask="url(#path-5-outside-1_2082_115564)"/>
</svg>
