<?xml version="1.0" encoding="UTF-8"?><svg id="Capa_1" xmlns="http://www.w3.org/2000/svg" viewBox="0 0 512 512"><defs><style>.cls-1{fill:none;stroke:#ff6c59;stroke-linecap:round;stroke-linejoin:round;stroke-width:40px;}</style></defs><g id="Torn"><path class="cls-1" d="M316,20v80c0,22.09,17.91,40,40,40h80l-120-120Z"/><path class="cls-1" d="M316,20H116c-22.09,0-40,17.91-40,40v222.38c18.21-10.7,40.54-22.38,70-22.38,32.5,0,56.33,14.22,75.51,25.64,29.77,17.81,39.22,17.81,68.98,0,19.18-11.43,43.01-25.64,75.51-25.64,29.46,0,51.79,11.68,70,22.38v-142.38"/><line class="cls-1" x1="76" y1="372.53" x2="76" y2="452"/><line class="cls-1" x1="156" y1="180" x2="236" y2="180"/><line class="cls-1" x1="156" y1="100" x2="196" y2="100"/></g><path class="cls-1" d="M76,452c0,22.09,17.91,40,40,40h280c22.09,0,40-17.91,40-40v-79.47c-13.59-5.11-25.22-12.05-35.51-18.18-29.77-17.81-39.22-17.81-68.98,0-19.18,11.43-43.01,25.64-75.51,25.64s-56.33-14.22-75.51-25.64c-29.77-17.81-39.22-17.81-68.98,0-10.29,6.13-21.92,13.07-35.51,18.18"/></svg>