<?xml version="1.0" encoding="UTF-8"?><svg id="Capa_1" xmlns="http://www.w3.org/2000/svg" viewBox="0 0 512 512"><defs><style>.cls-1{fill:none;stroke:#424242;stroke-linecap:round;stroke-linejoin:round;stroke-width:40px;}</style></defs><g id="_x33_d_Modeling"><line class="cls-1" x1="256" y1="412" x2="256" y2="492"/><line class="cls-1" x1="176" y1="492" x2="336" y2="492"/><path class="cls-1" d="M256,412H100c-44.18,0-80-35.82-80-80V100c0-44.18,35.82-80,80-80h312c44.18,0,80,35.82,80,80v232c0,44.18-35.82,80-80,80h-76"/><polygon class="cls-1" points="256 96 136 156 256 216 376 156 256 96"/><polyline class="cls-1" points="376 156 376 276 256 336 136 276 136 156"/><line class="cls-1" x1="256" y1="216" x2="256" y2="336"/></g></svg>