<?xml version="1.0" encoding="UTF-8"?><svg id="Capa_1" xmlns="http://www.w3.org/2000/svg" viewBox="0 0 512 512"><defs><style>.cls-1{fill:none;stroke:#ff6c59;stroke-linecap:round;stroke-linejoin:round;stroke-width:40px;}</style></defs><g id="Earth_Day"><g id="Hospital"><line class="cls-1" x1="140" y1="20" x2="140" y2="100"/><line class="cls-1" x1="340" y1="20" x2="340" y2="100"/><path class="cls-1" d="M196.7,460h-96.7c-44.18,0-80-35.82-80-80v-240c0-44.18,35.82-80,80-80h280c44.18,0,80,35.82,80,80v40H20"/><line class="cls-1" x1="100" y1="260" x2="100" y2="260"/><line class="cls-1" x1="180" y1="260" x2="180" y2="260"/><line class="cls-1" x1="100" y1="340" x2="100" y2="340"/><line class="cls-1" x1="180" y1="340" x2="180" y2="340"/></g><line class="cls-1" x1="460" y1="220" x2="460" y2="180"/><circle class="cls-1" cx="372" cy="372" r="120"/><path class="cls-1" d="M485.17,332h-113.17c22.09,0,40,17.91,40,40s17.91,40,40,40h33.17"/><line class="cls-1" x1="258.83" y1="412" x2="332" y2="412"/></g></svg>