<svg width="43" height="50" viewBox="0 0 43 50" fill="none" xmlns="http://www.w3.org/2000/svg">
<path fill-rule="evenodd" clip-rule="evenodd" d="M3.90625 17.5781C3.90625 7.86995 11.7762 0 21.4844 0C31.1925 0 39.0625 7.86995 39.0625 17.5781C39.0625 22.5296 36.637 27.2833 33.8436 31.1564C31.0222 35.0685 27.646 38.3278 25.3692 40.3333C24.2592 41.3109 22.8733 41.8056 21.4844 41.8056C20.0956 41.8056 18.7097 41.3111 17.5996 40.3333L18.8905 38.8677L17.5996 40.3333C15.3227 38.3279 11.9465 35.0685 9.12512 31.1564C6.33176 27.2833 3.90625 22.5296 3.90625 17.5781ZM21.4844 3.90625C13.9336 3.90625 7.8125 10.0273 7.8125 17.5781C7.8125 21.3153 9.68162 25.2501 12.2934 28.8715C14.877 32.4539 18.0165 35.4951 20.1815 37.402C20.5622 37.7374 21.0247 37.8993 21.4844 37.8993C21.9439 37.8993 22.4064 37.7374 22.7873 37.4019L24.0782 38.8676L22.7873 37.4019C24.9523 35.495 28.0917 32.4539 30.6754 28.8715C33.2871 25.2501 35.1562 21.3153 35.1562 17.5781C35.1562 10.0273 29.0352 3.90625 21.4844 3.90625Z" fill="#424242"/>
<path fill-rule="evenodd" clip-rule="evenodd" d="M10.3769 37.3082C10.6557 38.3502 10.0369 39.421 8.99491 39.6998C7.08913 40.2096 5.67676 40.8019 4.78766 41.3843C4.13361 41.8127 3.96117 42.0953 3.91801 42.1884C3.95857 42.2753 4.10672 42.5125 4.61793 42.8751C5.36358 43.404 6.56925 43.9602 8.23492 44.4599C11.5414 45.4519 16.2263 46.0937 21.4844 46.0937C26.7425 46.0937 31.4274 45.4519 34.7338 44.4599C36.3995 43.9602 37.6052 43.404 38.3508 42.8751C38.862 42.5126 39.0102 42.2753 39.0507 42.1884C39.0076 42.0953 38.8351 41.8127 38.1811 41.3843C37.292 40.8019 35.8796 40.2096 33.9738 39.6998C32.9318 39.421 32.3131 38.3502 32.5918 37.3082C32.8706 36.2662 33.9414 35.6474 34.9834 35.9262C37.0888 36.4895 38.945 37.2149 40.3216 38.1167C41.6212 38.9681 42.9688 40.3042 42.9688 42.1875C42.9688 43.9434 41.791 45.2242 40.6107 46.0613C39.3797 46.9344 37.7251 47.6408 35.8563 48.2015C32.0938 49.3302 27.0131 50 21.4844 50C15.9557 50 10.8749 49.3302 7.11247 48.2015C5.24368 47.6408 3.58906 46.9344 2.35804 46.0613C1.17776 45.2242 0 43.9434 0 42.1875C0 40.3042 1.34751 38.9681 2.64718 38.1167C4.02378 37.2149 5.87992 36.4895 7.98536 35.9262C9.02739 35.6474 10.0981 36.2662 10.3769 37.3082Z" fill="#424242"/>
<path fill-rule="evenodd" clip-rule="evenodd" d="M21.4844 13.6719C19.327 13.6719 17.5781 15.4208 17.5781 17.5781C17.5781 19.7355 19.327 21.4844 21.4844 21.4844C23.6417 21.4844 25.3906 19.7355 25.3906 17.5781C25.3906 15.4208 23.6417 13.6719 21.4844 13.6719ZM13.6719 17.5781C13.6719 13.2634 17.1697 9.76562 21.4844 9.76562C25.7991 9.76562 29.2969 13.2634 29.2969 17.5781C29.2969 21.8928 25.7991 25.3906 21.4844 25.3906C17.1697 25.3906 13.6719 21.8928 13.6719 17.5781Z" fill="#424242"/>
</svg>
