<?xml version="1.0" encoding="UTF-8"?><svg id="svg3333" xmlns="http://www.w3.org/2000/svg" xmlns:xlink="http://www.w3.org/1999/xlink" viewBox="0 0 682.67 682.67"><defs><style>.cls-1,.cls-2{fill:none;}.cls-2{stroke:#ff6c59;stroke-linecap:round;stroke-linejoin:round;stroke-width:53.33px;}.cls-3{clip-path:url(#clippath);}</style><clipPath id="clippath"><rect class="cls-1" x="0" width="682.67" height="682.67"/></clipPath></defs><g id="g3339"><g class="cls-3"><g id="g3343"><g id="g3349"><path id="path3351" class="cls-2" d="M469.33,656h-256"/></g><g id="g3353"><path id="path3355" class="cls-2" d="M413.33,426.67h-142.67c-44.18,0-80-35.82-80-80V106.7c0-44.18,35.82-80,80-80h142.67c44.18,0,80,35.82,80,80v239.97c0,44.18-35.82,80-80,80Z"/></g><g id="g3357"><path id="path3359" class="cls-2" d="M91.94,82.67c-39.08,23.25-65.27,65.89-65.27,114.67v218.69c0,73.62,59.68,133.31,133.31,133.31h362.69c73.64,0,133.33-59.69,133.33-133.33v-218.67c0-48.77-26.19-91.42-65.27-114.67"/></g><g id="g3361"><path id="path3363" class="cls-2" d="M297.33,133.36h89.33"/></g><g id="g3365"><path id="path3367" class="cls-2" d="M297.33,226.7h89.33"/></g><g id="g3369"><path id="path3371" class="cls-2" d="M297.33,320.03h36"/></g></g></g></g></svg>